<svg id="avatar" class="avatar-dark" width="90px" height="90px" viewBox="0 0 90 90" version="1.1" xmlns="http://www.w3.org/2000/svg" xmlns:xlink="http://www.w3.org/1999/xlink">
    <title>avatar.work.dark</title>
    <g id="avatar.work.dark" stroke="none" stroke-width="1" fill="none" fill-rule="evenodd">
        <path d="M62.9342142,29.3168707 C63.095948,29.5305109 63.2873786,29.7263306 63.5101638,29.8986412 L63.5101638,29.8986412 L63.7311356,30.0617295 C63.9485137,30.2145962 64.1684138,30.3472483 64.389554,30.4602295 L64.389554,30.4602295 L63.1625,31.685 L60.4603901,34.388466 C60.1098118,33.8786695 59.734672,33.3870773 59.3366782,32.9153969 L59.3366782,32.9153969 L61.925,30.32625 Z M68.3845665,23.1188613 C71.2365078,26.4068455 67.9369774,31.7422569 64.2749134,28.9098753 C62.655291,27.6571968 63.7353626,24.4999996 65.3458897,24.4999996 C66.8652969,24.4999996 67.8781892,24.0396202 68.3845665,23.1188613 Z M67.7466864,25.7507967 C67.5145259,25.7644712 67.3161527,25.93958 67.2817155,26.178738 C67.149717,27.095437 66.7217334,27.4861905 65.875,27.4861905 C65.5988576,27.4861905 65.375,27.7100481 65.375,27.9861905 C65.375,28.2623329 65.5988576,28.4861905 65.875,28.4861905 C67.2304151,28.4861905 68.0701723,27.7194834 68.271507,26.3212613 C68.3108637,26.047938 68.1211963,25.7944607 67.8478729,25.7551039 L67.8478729,25.7551039 Z" id="Combined-Shape" fill="#000000" fill-rule="nonzero" opacity="0.699999988"></path>
        <path d="M32.7547889,32.389254 L43.7762102,32.5004453 C42.7575998,35.6300844 42.1963345,38.9019077 42.0964053,42.335305 L42.0964053,42.335305 L42.09375,42.47375 L41.9190598,42.512612 L41.7128587,42.5718326 C40.3564295,43.0088476 39.375,44.2800051 39.375,45.7803468 L39.375,45.7803468 L39.3812503,45.9895569 L39.399752,46.1967708 C39.6039409,47.9139507 41.0453508,49.3749993 42.75,49.3749993 L42.75,49.3749993 L44.8875,49.37375 L44.9136736,50.0380591 L44.9566229,50.7258804 C45.0439177,51.907723 45.2012203,53.0980898 45.4289016,54.2983995 C42.919145,54.6548993 40.5019305,53.8026967 39.0944357,52.1157737 C38.8290706,51.7977261 38.3561212,51.7550184 38.0380736,52.0203835 C37.720026,52.2857485 37.6773184,52.7586979 37.9426834,53.0767455 C39.7131205,55.1986652 42.6971419,56.2344615 45.7415815,55.7679696 C46.2456331,57.9048819 46.9695793,60.0684617 47.9134478,62.2585776 C46.9659376,62.4173575 45.9926199,62.5 45,62.5 C35.3350169,62.5 27.5,54.6649831 27.5,45 C27.5,40.2192091 29.4170667,35.8861731 32.5244041,32.7276883 L32.5244041,32.7276883 L32.7547889,32.389254 Z M42.6583335,59.7989847 C42.2855413,59.7989847 41.9833335,60.1011925 41.9833335,60.4739847 C41.9833335,60.8467769 42.2855413,61.1489847 42.6583335,61.1489847 C43.0311257,61.1489847 43.3333335,60.8467769 43.3333335,60.4739847 C43.3333335,60.1011925 43.0311257,59.7989847 42.6583335,59.7989847 Z M45.6,59.7989847 C45.2272078,59.7989847 44.925,60.1011925 44.925,60.4739847 C44.925,60.8467769 45.2272078,61.1489847 45.6,61.1489847 C45.9727923,61.1489847 46.275,60.8467769 46.275,60.4739847 C46.275,60.1011925 45.9727923,59.7989847 45.6,59.7989847 Z M39.2166668,58.8377133 C38.8438746,58.8377133 38.5416668,59.1399211 38.5416668,59.5127133 C38.5416668,59.8855055 38.8438746,60.1877133 39.2166668,60.1877133 C39.589459,60.1877133 39.8916668,59.8855055 39.8916668,59.5127133 C39.8916668,59.1399211 39.589459,58.8377133 39.2166668,58.8377133 Z M35.7750001,56.9151705 C35.4022079,56.9151705 35.1000001,57.2173783 35.1000001,57.5901705 C35.1000001,57.9629627 35.4022079,58.2651705 35.7750001,58.2651705 C36.1477923,58.2651705 36.4500001,57.9629627 36.4500001,57.5901705 C36.4500001,57.2173783 36.1477923,56.9151705 35.7750001,56.9151705 Z M44.6250002,56.9151705 C44.252208,56.9151705 43.9500002,57.2173783 43.9500002,57.5901705 C43.9500002,57.9629627 44.252208,58.2651705 44.6250002,58.2651705 C44.9977924,58.2651705 45.3000002,57.9629627 45.3000002,57.5901705 C45.3000002,57.2173783 44.9977924,56.9151705 44.6250002,56.9151705 Z M41.6750002,56.9151705 C41.302208,56.9151705 41.0000002,57.2173783 41.0000002,57.5901705 C41.0000002,57.9629627 41.302208,58.2651705 41.6750002,58.2651705 C42.0477924,58.2651705 42.3500002,57.9629627 42.3500002,57.5901705 C42.3500002,57.2173783 42.0477924,56.9151705 41.6750002,56.9151705 Z M38.7250002,55.9538992 C38.352208,55.9538992 38.0500002,56.256107 38.0500002,56.6288992 C38.0500002,57.0016914 38.352208,57.3038992 38.7250002,57.3038992 C39.0977924,57.3038992 39.4000002,57.0016914 39.4000002,56.6288992 C39.4000002,56.256107 39.0977924,55.9538992 38.7250002,55.9538992 Z M33.3166668,54.5119921 C32.9438746,54.5119921 32.6416668,54.8141999 32.6416668,55.1869921 C32.6416668,55.5597843 32.9438746,55.8619921 33.3166668,55.8619921 C33.689459,55.8619921 33.9916668,55.5597843 33.9916668,55.1869921 C33.9916668,54.8141999 33.689459,54.5119921 33.3166668,54.5119921 Z M36.2666668,54.0313564 C35.8938746,54.0313564 35.5916668,54.3335642 35.5916668,54.7063564 C35.5916668,55.0791486 35.8938746,55.3813564 36.2666668,55.3813564 C36.639459,55.3813564 36.9416668,55.0791486 36.9416668,54.7063564 C36.9416668,54.3335642 36.639459,54.0313564 36.2666668,54.0313564 Z M31.3500001,52.1088137 C30.9772079,52.1088137 30.6750001,52.4110214 30.6750001,52.7838137 C30.6750001,53.1566059 30.9772079,53.4588137 31.3500001,53.4588137 C31.7227923,53.4588137 32.0250001,53.1566059 32.0250001,52.7838137 C32.0250001,52.4110214 31.7227923,52.1088137 31.3500001,52.1088137 Z M34.3000001,51.628178 C33.9272079,51.628178 33.6250001,51.9303858 33.6250001,52.303178 C33.6250001,52.6759702 33.9272079,52.978178 34.3000001,52.978178 C34.6727923,52.978178 34.9750001,52.6759702 34.9750001,52.303178 C34.9750001,51.9303858 34.6727923,51.628178 34.3000001,51.628178 Z M43.1500002,51.628178 C42.777208,51.628178 42.4750002,51.9303858 42.4750002,52.303178 C42.4750002,52.6759702 42.777208,52.978178 43.1500002,52.978178 C43.5227924,52.978178 43.8250002,52.6759702 43.8250002,52.303178 C43.8250002,51.9303858 43.5227924,51.628178 43.1500002,51.628178 Z M40.2000002,50.1862709 C39.827208,50.1862709 39.5250002,50.4884787 39.5250002,50.8612709 C39.5250002,51.2340631 39.827208,51.5362709 40.2000002,51.5362709 C40.5727924,51.5362709 40.8750002,51.2340631 40.8750002,50.8612709 C40.8750002,50.4884787 40.5727924,50.1862709 40.2000002,50.1862709 Z M36.2666668,49.7056352 C35.8938746,49.7056352 35.5916668,50.007843 35.5916668,50.3806352 C35.5916668,50.7534274 35.8938746,51.0556352 36.2666668,51.0556352 C36.639459,51.0556352 36.9416668,50.7534274 36.9416668,50.3806352 C36.9416668,50.007843 36.639459,49.7056352 36.2666668,49.7056352 Z M30.3666667,49.2249995 C29.9938745,49.2249995 29.6916667,49.5272073 29.6916667,49.8999995 C29.6916667,50.2727917 29.9938745,50.5749995 30.3666667,50.5749995 C30.739459,50.5749995 31.0416667,50.2727917 31.0416667,49.8999995 C31.0416667,49.5272073 30.739459,49.2249995 30.3666667,49.2249995 Z M35.9975,34.875 C35.479733,34.875 35.06,35.294733 35.06,35.8125 L35.06,35.8125 L35.06,41.6875 C35.06,42.205267 35.479733,42.625 35.9975,42.625 C36.515267,42.625 36.935,42.205267 36.935,41.6875 L36.935,41.6875 L36.935,35.8125 C36.935,35.294733 36.515267,34.875 35.9975,34.875 Z" id="Combined-Shape" fill="#000000" fill-rule="nonzero" opacity="0.699999988"></path>
        <path d="M57.1875,29.375 L57.2994158,29.3816844 L57.3801727,29.3948187 L57.5524173,29.4486734 C57.8889002,29.5909936 58.125,29.9241748 58.125,30.3125 C58.125,30.8242861 57.7149078,31.1304576 57.2054027,31.14 L57.2054027,31.14 L32.6852868,31.14 C32.2276924,31.077922 31.875,30.7871197 31.875,30.3125 C31.875,30.139911 31.921637,29.9782147 32.0091631,29.8289521 C32.0400243,29.7777911 32.0756347,29.7298177 32.1153837,29.6856425 L32.1153837,29.6856425 L32.1650781,29.6344483 L32.2112255,29.5931825 L32.2606519,29.5545471 L32.3147199,29.5179221 L32.3720597,29.4846918 L32.4241501,29.4589661 L32.5462885,29.4133349 L32.6751166,29.3849948 L32.8125,29.375 L57.1875,29.375 Z M44.5075,18.8 C45.025267,18.8 45.445,19.219733 45.445,19.7375 L45.444,21.824 L55.1161323,20.6153473 L55.3378383,20.5941161 L55.557749,20.5858344 C57.3817565,20.5699201 58.9774415,21.8707829 59.3117458,23.684933 L59.3117458,23.684933 L59.3457416,23.9050434 L59.3676783,24.1395668 L59.375,24.375 C59.375,25.9684588 58.5231181,27.3629499 57.2493906,28.1258587 L57.2493906,28.1258587 L32.8125,28.125 L32.59676,28.1355115 C32.3128552,28.1633336 32.0447968,28.2455488 31.8028162,28.3721486 C31.0955517,27.9305616 30.625,27.1452324 30.625,26.25 C30.625,24.7799257 31.7196679,23.5399054 33.1783901,23.3575651 L33.1783901,23.3575651 L43.569,22.058 L43.57,19.7375 C43.57,19.219733 43.989733,18.8 44.5075,18.8 Z" id="Combined-Shape" fill="#000000" opacity="0.400000006"></path>
        <path d="M57.2453503,32.387936 C60.4879606,35.5643746 62.5,40.1022189 62.5,45 C62.5,53.2305252 56.8181098,60.1339739 49.1620722,62.0022878 C48.1998892,59.8023405 47.4666838,57.6343231 46.9634383,55.499589 C49.741273,54.6950269 51.9288362,52.6901879 52.7298384,50.2025042 C52.8567912,49.8082253 52.6400805,49.3856835 52.2458016,49.2587308 C51.8515227,49.131778 51.4289809,49.3484887 51.3020281,49.7427676 C50.668351,51.7107874 48.9128289,53.3390946 46.6493396,54.0257632 C46.3137355,52.2430743 46.1393382,50.4827142 46.1258484,48.7445384 C46.1231839,48.4012093 45.8440678,48.1243125 45.5007284,48.1243888 L45.5007284,48.1243888 L42.7498611,48.1249992 L42.5829048,48.1167481 C41.5323467,48.013031 40.625,46.9467007 40.625,45.7803468 L40.625,45.7803468 L40.6327983,45.5973991 L40.6557683,45.4187668 C40.8175998,44.4787022 41.5995667,43.7499506 42.5666156,43.6674679 L42.5666156,43.6674679 L42.7691374,43.659389 L42.8980891,43.6445105 L43.011536,43.6099024 C43.3286346,43.4789258 43.4365852,43.1144926 43.33625,42.81125 L43.33625,42.81125 L43.3464422,42.3523812 C43.4486137,38.9040906 44.0320039,35.6285882 45.0937453,32.5000423 L45.0937453,32.5000423 Z M54.1540069,44.8141309 C53.1130349,44.3950399 52.03332,44.440607 50.9566312,44.941122 C50.643621,45.0866295 50.5078332,45.4583315 50.6533407,45.7713417 C50.7988482,46.084352 51.1705502,46.2201397 51.4835604,46.0746323 C52.253144,45.7168798 52.9737592,45.6864677 53.6871749,45.9736859 C54.4145105,46.2665082 54.9552418,46.7942711 55.3270657,47.5846815 C55.4739981,47.8970254 55.8463151,48.0311178 56.158659,47.8841854 C56.4710029,47.7372529 56.6050953,47.3649359 56.4581629,47.0525921 C55.9550099,45.983007 55.181059,45.2276177 54.1540069,44.8141309 Z M53.9975,34.88 C53.479733,34.88 53.06,35.299733 53.06,35.8175 L53.06,35.8175 L53.06,41.4285714 L54.935,42.5 L54.935,35.8175 C54.935,35.299733 54.515267,34.88 53.9975,34.88 Z" id="Combined-Shape" fill="#000000" fill-rule="nonzero" opacity="0.900000036"></path>
    </g>
</svg>