<svg id="avatar" width="90px" height="90px" viewBox="0 0 90 90" version="1.1" xmlns="http://www.w3.org/2000/svg" xmlns:xlink="http://www.w3.org/1999/xlink">
    <title>avatar.words</title>
    <g id="avatar.words" stroke="none" stroke-width="1" fill="none" fill-rule="evenodd">
        <path d="M45,26.25 C45.60312,26.25 46.1995891,26.2784762 46.788136,26.3341574 L47.4585272,26.4097356 L47.8358465,26.4630589 C56.8457754,27.8302066 63.75,35.6088193 63.75,45 C63.75,53.991396 57.4210923,61.5045964 48.9750823,63.3277957 L48.6550685,63.3939359 C47.4729535,63.6275283 46.2507791,63.75 45,63.75 C34.6446609,63.75 26.25,55.3553391 26.25,45 C26.25,34.6446609 34.6446609,26.25 45,26.25 Z M45,27.5 C35.3350169,27.5 27.5,35.3350169 27.5,45 C27.5,54.6649831 35.3350169,62.5 45,62.5 C45.9926199,62.5 46.9659376,62.4173575 47.9134478,62.2585776 C46.9686,60.0678768 46.2451558,57.9044231 45.7413423,55.7676052 L45.4297911,54.2982731 C45.2012026,53.0979557 45.0439128,51.9076564 44.9566229,50.7258804 L44.9136736,50.0380591 L44.8875,49.37375 L42.75,49.3749993 C41.0453508,49.3749993 39.6039409,47.9139507 39.399752,46.1967708 L39.3812503,45.9895569 L39.375,45.7803468 C39.375,44.2800051 40.3564295,43.0088476 41.7128587,42.5718326 L41.9190598,42.512612 L42.09375,42.47375 L42.0964053,42.335305 C42.2506426,37.0359739 43.5039146,32.1215585 45.8415465,27.5207623 C45.5639784,27.5067067 45.2827724,27.5 45,27.5 Z M47.1896007,27.6356547 L47.1586519,27.6950478 C44.7763232,32.2402743 43.5022002,37.0955457 43.3464422,42.3523812 L43.33625,42.81125 C43.4365852,43.1144926 43.3286346,43.4789258 43.011536,43.6099024 L42.8980891,43.6445105 L42.7691374,43.659389 L42.5666156,43.6674679 C41.5995667,43.7499506 40.8175998,44.4787022 40.6557683,45.4187668 L40.6327983,45.5973991 L40.625,45.7803468 C40.625,46.9467007 41.5323467,48.013031 42.5829048,48.1167481 L42.7498611,48.1249992 L45.5007284,48.1243888 C45.8440678,48.1243125 46.1231839,48.4012093 46.1258484,48.7445384 C46.1393384,50.482738 46.3137403,52.2431224 46.6493533,54.0258364 L46.964079,55.4994035 C47.4667007,57.6343377 48.1998382,59.80217 49.1619144,62.0019268 C56.8187168,60.1332364 62.5,53.2300856 62.5,45 C62.5,36.0765603 55.8211403,28.7130519 47.1896007,27.6356547 Z M42.6583335,59.7989847 C43.0311257,59.7989847 43.3333335,60.1011925 43.3333335,60.4739847 C43.3333335,60.8467769 43.0311257,61.1489847 42.6583335,61.1489847 C42.2855413,61.1489847 41.9833335,60.8467769 41.9833335,60.4739847 C41.9833335,60.1011925 42.2855413,59.7989847 42.6583335,59.7989847 Z M45.6,59.7989847 C45.9727923,59.7989847 46.275,60.1011925 46.275,60.4739847 C46.275,60.8467769 45.9727923,61.1489847 45.6,61.1489847 C45.2272078,61.1489847 44.925,60.8467769 44.925,60.4739847 C44.925,60.1011925 45.2272078,59.7989847 45.6,59.7989847 Z M39.2166668,58.8377133 C39.589459,58.8377133 39.8916668,59.1399211 39.8916668,59.5127133 C39.8916668,59.8855055 39.589459,60.1877133 39.2166668,60.1877133 C38.8438746,60.1877133 38.5416668,59.8855055 38.5416668,59.5127133 C38.5416668,59.1399211 38.8438746,58.8377133 39.2166668,58.8377133 Z M35.7750001,56.9151705 C36.1477923,56.9151705 36.4500001,57.2173783 36.4500001,57.5901705 C36.4500001,57.9629627 36.1477923,58.2651705 35.7750001,58.2651705 C35.4022079,58.2651705 35.1000001,57.9629627 35.1000001,57.5901705 C35.1000001,57.2173783 35.4022079,56.9151705 35.7750001,56.9151705 Z M44.6250002,56.9151705 C44.9977924,56.9151705 45.3000002,57.2173783 45.3000002,57.5901705 C45.3000002,57.9629627 44.9977924,58.2651705 44.6250002,58.2651705 C44.252208,58.2651705 43.9500002,57.9629627 43.9500002,57.5901705 C43.9500002,57.2173783 44.252208,56.9151705 44.6250002,56.9151705 Z M41.6750002,56.9151705 C42.0477924,56.9151705 42.3500002,57.2173783 42.3500002,57.5901705 C42.3500002,57.9629627 42.0477924,58.2651705 41.6750002,58.2651705 C41.302208,58.2651705 41.0000002,57.9629627 41.0000002,57.5901705 C41.0000002,57.2173783 41.302208,56.9151705 41.6750002,56.9151705 Z M52.2502739,50.0116178 L52.3919818,50.0205429 C53.76513,50.1648666 54.7027904,51.9515989 54.4863048,54.0113212 C54.2698193,56.0710434 52.9811665,57.6237808 51.6080184,57.4794571 C50.2348702,57.3351334 49.2972098,55.5484011 49.5136954,53.4886788 C49.7301809,51.4289566 51.0188336,49.8762192 52.3919818,50.0205429 Z M38.7250002,55.9538992 C39.0977924,55.9538992 39.4000002,56.256107 39.4000002,56.6288992 C39.4000002,57.0016914 39.0977924,57.3038992 38.7250002,57.3038992 C38.352208,57.3038992 38.0500002,57.0016914 38.0500002,56.6288992 C38.0500002,56.256107 38.352208,55.9538992 38.7250002,55.9538992 Z M33.3166668,54.5119921 C33.689459,54.5119921 33.9916668,54.8141999 33.9916668,55.1869921 C33.9916668,55.5597843 33.689459,55.8619921 33.3166668,55.8619921 C32.9438746,55.8619921 32.6416668,55.5597843 32.6416668,55.1869921 C32.6416668,54.8141999 32.9438746,54.5119921 33.3166668,54.5119921 Z M42.7798361,54.3880333 C43.1526283,54.3880333 43.4548361,54.6902411 43.4548361,55.0630333 C43.4548361,55.4358255 43.1526283,55.7380333 42.7798361,55.7380333 C42.4070439,55.7380333 42.1048361,55.4358255 42.1048361,55.0630333 C42.1048361,54.6902411 42.4070439,54.3880333 42.7798361,54.3880333 Z M36.2666668,54.0313564 C36.639459,54.0313564 36.9416668,54.3335642 36.9416668,54.7063564 C36.9416668,55.0791486 36.639459,55.3813564 36.2666668,55.3813564 C35.8938746,55.3813564 35.5916668,55.0791486 35.5916668,54.7063564 C35.5916668,54.3335642 35.8938746,54.0313564 36.2666668,54.0313564 Z M39.4048363,52.8880337 C39.7776285,52.8880337 40.0798363,53.1902415 40.0798363,53.5630337 C40.0798363,53.9358259 39.7776285,54.2380337 39.4048363,54.2380337 C39.0320441,54.2380337 38.7298363,53.9358259 38.7298363,53.5630337 C38.7298363,53.1902415 39.0320441,52.8880337 39.4048363,52.8880337 Z M31.3500001,52.1088137 C31.7227923,52.1088137 32.0250001,52.4110214 32.0250001,52.7838137 C32.0250001,53.1566059 31.7227923,53.4588137 31.3500001,53.4588137 C30.9772079,53.4588137 30.6750001,53.1566059 30.6750001,52.7838137 C30.6750001,52.4110214 30.9772079,52.1088137 31.3500001,52.1088137 Z M34.3000001,51.628178 C34.6727923,51.628178 34.9750001,51.9303858 34.9750001,52.303178 C34.9750001,52.6759702 34.6727923,52.978178 34.3000001,52.978178 C33.9272079,52.978178 33.6250001,52.6759702 33.6250001,52.303178 C33.6250001,51.9303858 33.9272079,51.628178 34.3000001,51.628178 Z M43.1500002,51.628178 C43.5227924,51.628178 43.8250002,51.9303858 43.8250002,52.303178 C43.8250002,52.6759702 43.5227924,52.978178 43.1500002,52.978178 C42.777208,52.978178 42.4750002,52.6759702 42.4750002,52.303178 C42.4750002,51.9303858 42.777208,51.628178 43.1500002,51.628178 Z M40.2000002,50.1862709 C40.5727924,50.1862709 40.8750002,50.4884787 40.8750002,50.8612709 C40.8750002,51.2340631 40.5727924,51.5362709 40.2000002,51.5362709 C39.827208,51.5362709 39.5250002,51.2340631 39.5250002,50.8612709 C39.5250002,50.4884787 39.827208,50.1862709 40.2000002,50.1862709 Z M36.2666668,49.7056352 C36.639459,49.7056352 36.9416668,50.007843 36.9416668,50.3806352 C36.9416668,50.7534274 36.639459,51.0556352 36.2666668,51.0556352 C35.8938746,51.0556352 35.5916668,50.7534274 35.5916668,50.3806352 C35.5916668,50.007843 35.8938746,49.7056352 36.2666668,49.7056352 Z M30.3666667,49.2249995 C30.739459,49.2249995 31.0416667,49.5272073 31.0416667,49.8999995 C31.0416667,50.2727917 30.739459,50.5749995 30.3666667,50.5749995 C29.9938745,50.5749995 29.6916667,50.2727917 29.6916667,49.8999995 C29.6916667,49.5272073 29.9938745,49.2249995 30.3666667,49.2249995 Z M54.1540069,44.8141309 C55.181059,45.2276177 55.9550099,45.983007 56.4581629,47.0525921 C56.6050953,47.3649359 56.4710029,47.7372529 56.158659,47.8841854 C55.8463151,48.0311178 55.4739981,47.8970254 55.3270657,47.5846815 C54.9552418,46.7942711 54.4145105,46.2665082 53.6871749,45.9736859 C52.9737592,45.6864677 52.253144,45.7168798 51.4835604,46.0746323 C51.1705502,46.2201397 50.7988482,46.084352 50.6533407,45.7713417 C50.5078332,45.4583315 50.643621,45.0866295 50.9566312,44.941122 C52.03332,44.440607 53.1130349,44.3950399 54.1540069,44.8141309 Z M35.9975,34.875 C36.515267,34.875 36.935,35.294733 36.935,35.8125 L36.935,41.6875 C36.935,42.205267 36.515267,42.625 35.9975,42.625 C35.479733,42.625 35.06,42.205267 35.06,41.6875 L35.06,35.8125 C35.06,35.294733 35.479733,34.875 35.9975,34.875 Z M53.9975,34.88 C54.515267,34.88 54.935,35.299733 54.935,35.8175 L54.935,42.5 L53.06,41.4285714 L53.06,35.8175 C53.06,35.299733 53.479733,34.88 53.9975,34.88 Z" id="Shape" fill="#000000" fill-rule="nonzero"></path>
        <path d="M15.099736,28.1070489 C15.3514211,28.0566995 15.5731228,28.0513217 15.764994,28.0899349 C15.9555946,28.1282923 16.1197647,28.2025388 16.2588192,28.3127705 C16.4008264,28.4253429 16.5133166,28.5538617 16.5968943,28.6986225 C16.7185882,28.9094024 16.7721991,29.1225822 16.7591158,29.3402412 C16.7463179,29.5531518 16.6292906,29.7909204 16.4036557,30.0521274 L16.4036557,30.0521274 L16.3927287,30.1674972 L16.4152287,30.2064684 L16.53187,30.2518501 L16.6722957,30.2076255 L16.8249055,30.1772662 C17.0279784,30.1498227 17.2293596,30.1745844 17.4282819,30.2523018 C17.7202241,30.3663612 17.9434592,30.5584412 18.1008678,30.831081 C18.3327436,31.2327017 18.3598675,31.6328979 18.1837508,32.0416347 L18.1837508,32.0416347 L18.1167404,32.178798 L18.0352209,32.3128674 C17.8280585,32.6220759 17.5021651,32.9059062 17.0558627,33.163579 L17.0558627,33.163579 L15.1836057,34.2442348 L12.4430932,29.4975279 L14.244967,28.4572155 L14.4361748,28.3527972 L14.6128158,28.268058 C14.7859963,28.1910493 14.9486724,28.1372691 15.099736,28.1070489 Z M16.3852811,31.0559087 C16.1951754,31.0269549 15.9986686,31.0719511 15.7981777,31.1877046 L15.7981777,31.1877046 L15.1648966,31.5533296 L15.128294,31.6899321 L15.713294,32.7031819 L15.8498966,32.7397844 L16.5221488,32.3516594 L16.6350093,32.2778119 C16.7739723,32.1743841 16.866624,32.0511137 16.9100742,31.9081845 C16.9646155,31.7287709 16.9408628,31.5493934 16.8410757,31.376557 C16.7361784,31.1948696 16.5820976,31.0858845 16.3852811,31.0559087 Z M18.6031444,25.9410496 L20.763771,29.6833646 L20.9003735,29.7199671 L22.7327567,28.6617479 L23.2627567,29.5797348 L20.2498543,31.3192348 L17.5093543,26.5725496 L18.6031444,25.9410496 Z M15.1581494,29.252669 C14.9803474,29.2208183 14.810919,29.2505551 14.6540959,29.3410969 L14.6540959,29.3410969 L14.0792716,29.6729719 L14.042669,29.8095745 L14.605169,30.7838531 L14.7417716,30.8204556 L15.2776248,30.5110806 L15.3836094,30.441156 C15.51438,30.3423486 15.6027586,30.2213106 15.6460646,30.0788557 C15.7003912,29.9001484 15.6809473,29.7271557 15.5883161,29.5667138 C15.4877138,29.3924655 15.3425223,29.2856967 15.1581494,29.252669 Z M24.3414287,22.6280496 L29.1603897,26.1747348 L28.0077099,26.8402348 L27.2294743,26.2079602 L27.1164175,26.1989711 L25.3529733,27.2170961 L25.30439,27.3204717 L25.4711215,28.3047348 L24.3193077,28.9697348 L23.6373501,23.0345496 L24.3414287,22.6280496 Z M24.9090524,24.3557025 L24.8505957,24.3894525 L24.8021982,24.4938857 L25.1111983,26.1990896 L25.2595958,26.2678615 L26.341045,25.6434865 L26.3552191,25.4801919 L25.0232265,24.3656129 L24.9090524,24.3557025 Z M31.8533331,18.2910496 L34.5938331,23.0377348 L33.500043,23.6692348 L32.4368526,21.826735 L32.3002501,21.7901325 L30.4491208,22.8588825 L30.4125182,22.995485 L31.4761416,24.8377348 L30.3823516,25.4692348 L27.6418516,20.7225496 L28.7356416,20.0910496 L29.7825182,21.904293 L29.9191208,21.9408955 L31.7702501,20.8721455 L31.8068526,20.735543 L30.759543,18.9225496 L31.8533331,18.2910496 Z" id="Combined-Shape" fill="#000000" fill-rule="nonzero" opacity="0.5"></path>
        <path d="M19.9453202,10.6995603 L20.1228812,10.7125877 C20.4075134,10.7459606 20.6450408,10.8168178 20.835912,10.9242739 C21.0256537,11.0310942 21.1749578,11.1671172 21.2850449,11.332841 C21.3972168,11.5017034 21.472517,11.6774333 21.5114288,11.8604989 C21.568096,12.1270973 21.5514023,12.3729911 21.4620257,12.6005869 C21.3743879,12.823755 21.1674154,13.0365453 20.837383,13.2362548 L20.837383,13.2362548 L20.7913396,13.3426014 L20.8017351,13.3915088 L20.8986439,13.4707135 L21.0622204,13.4721956 L21.2071942,13.487842 C21.4444804,13.5258512 21.6600102,13.6235553 21.8526966,13.7814932 C22.1239913,14.0038633 22.2952867,14.2857049 22.3685376,14.6303233 C22.4763921,15.1377389 22.3667449,15.5735345 22.0379538,15.9476541 C21.7038578,16.3278101 21.1771076,16.59599 20.4548233,16.7495163 L20.4548233,16.7495163 L18.0946074,17.2503878 L16.8238511,11.2719497 L19.0960459,10.7892476 L19.3339531,10.7445574 L19.5505993,10.7155391 C19.7609026,10.6935325 19.9520486,10.6925577 20.1228812,10.7125877 Z M24.5756709,9.62424954 L25.5765768,14.3318112 L25.6951827,14.4088348 L28.0051325,13.917032 L28.2546265,15.0908091 L24.4525668,15.8989618 L23.1818105,9.9205237 L24.5756709,9.62424954 Z M20.4625777,14.2910948 C20.2740333,14.1964325 20.0534828,14.1767383 19.8042113,14.2297226 L19.8042113,14.2297226 L19.0094664,14.3986509 L18.9324428,14.5172568 L19.202728,15.7888487 L19.3213339,15.8658723 L20.1649862,15.6865484 L20.285313,15.6551184 C20.4768155,15.594881 20.6228965,15.4953189 20.7203849,15.3556201 C20.8378207,15.1873371 20.8737299,14.9927726 20.8282511,14.7788117 C20.7804741,14.5540387 20.6571885,14.3888029 20.4625777,14.2910948 Z M31.7738591,8.09422741 L35.6621383,13.5162939 L34.1910043,13.828993 L33.5821671,12.8876093 L33.4774215,12.8441237 L31.2643626,13.3145239 L31.1862123,13.3978269 L31.0237624,14.5022111 L29.5536065,14.8147024 L30.8759196,8.28509034 L31.7738591,8.09422741 Z M19.7847202,11.9640863 C19.6100819,11.8706186 19.4235074,11.844247 19.2292633,11.8855349 L19.2292633,11.8855349 L18.5078794,12.0388698 L18.4308558,12.1574757 L18.6907455,13.3801602 L18.8093514,13.4571838 L19.4818279,13.3142445 L19.6162847,13.2771905 C19.7863713,13.2184256 19.9194677,13.1222183 20.0127728,12.988514 C20.1297862,12.8208363 20.1679935,12.6344908 20.1258368,12.4361593 C20.0800191,12.2206037 19.9652441,12.0607039 19.7847202,11.9640863 Z M41.2041801,6.0897508 L42.4749363,12.0681889 L41.081076,12.3644631 L40.5877206,10.042078 L40.4691146,9.96505439 L38.1460141,10.4588447 L38.0689905,10.5774506 L38.5623459,12.8998357 L37.1684856,13.1961099 L35.8977293,7.21767172 L37.2915897,6.92139756 L37.7779141,9.20804394 L37.8965201,9.28506753 L40.2196206,8.79127727 L40.2966442,8.67267134 L39.8103197,6.38602496 L41.2041801,6.0897508 Z M31.7777241,10.1383838 L31.704363,10.1539771 L31.6260627,10.2383433 L31.3671067,12.1463784 L31.4869894,12.2576418 L32.8441692,11.9691643 L32.9081104,11.8182419 L31.8832477,10.1830908 L31.7777241,10.1383838 Z" id="Combined-Shape" fill="#000000" fill-rule="nonzero" opacity="0.699999988"></path>
        <path d="M69.5783286,29.4254179 C69.8541189,29.3304557 70.1238372,29.347269 70.3874834,29.4758579 C70.6511297,29.6044467 70.8304339,29.8066363 70.9253962,30.0824267 C71.0203584,30.358217 71.0035451,30.6279353 70.8749562,30.8915815 C70.7463673,31.1552278 70.5441777,31.334532 70.2683874,31.4294942 C69.9925971,31.5244565 69.7228788,31.5076431 69.4592325,31.3790543 C69.1955863,31.2504654 69.016282,31.0482758 68.9213198,30.7724855 C68.8263576,30.4966952 68.8431709,30.2269769 68.9717598,29.9633306 C69.1003487,29.6996844 69.3025383,29.5203801 69.5783286,29.4254179 Z M67.5366876,19.13594 L68.3858165,19.8101585 L66.6416435,21.9120359 L67.4778076,22.518738 L69.3738836,20.2308779 L70.2230125,20.9050965 L68.3634053,23.1495505 L69.4473442,23.9382935 L68.5491947,25.1524506 L67.3971329,24.3151835 L66.2669023,25.6915161 L67.2640291,26.4073215 L66.4330928,27.5777693 L65.349154,26.7890262 L63.3255886,29.2441797 L62.4824873,28.5576028 L64.4635562,26.1582138 L63.6273921,25.5515117 L61.4883927,28.1492418 L60.6452913,27.4626648 L62.7478219,24.9083408 L61.6762415,24.1256253 L62.5071777,22.9551775 L63.6715979,23.7984722 L64.7958009,22.434498 L63.7923433,21.7003066 L64.6904928,20.4861496 L65.7620733,21.268865 L67.5366876,19.13594 Z M72.5509433,22.4994525 L72.6600083,22.5091999 C72.8162957,22.526681 73.0160523,22.5620998 73.2592782,22.6154564 C73.5633107,22.6821521 73.9007031,22.805914 74.2714557,22.9867421 C74.7245977,23.2077542 75.0991221,23.4592642 75.3950288,23.7412721 C75.6909356,24.0232799 75.9081236,24.3255375 76.046593,24.6480448 C76.1850623,24.9705521 76.249836,25.3030104 76.240914,25.6454198 C76.231992,25.9878292 76.1471629,26.3238128 75.9864268,26.6533706 C75.7855067,27.0653179 75.5252019,27.379459 75.2055124,27.5957941 C74.8858228,27.8121292 74.5429203,27.9610488 74.1768048,28.042553 C73.8106893,28.1240573 73.4347744,28.147238 73.04906,28.1120953 C72.6633456,28.0769526 72.3060127,28.0097577 71.9770613,27.9105105 L71.9770613,27.9105105 L71.4406046,29.0104097 L70.0811786,28.3473733 L71.1058712,26.2464422 L71.4158342,26.3602255 C71.6233467,26.4319728 71.8326003,26.4955036 72.0435949,26.5508179 C72.3600868,26.6337894 72.6597471,26.6728555 72.9425757,26.6680163 C73.2254043,26.6631771 73.4830613,26.6001661 73.7155466,26.4789832 C73.948032,26.3578003 74.1345967,26.1530273 74.2752407,25.8646642 C74.42794,25.5515843 74.4321423,25.250218 74.2878474,24.9605654 C74.1435526,24.6709128 73.8736705,24.4296449 73.4782011,24.2367616 C72.9838644,23.9956575 72.4557755,23.8655769 71.8939345,23.8465201 L71.8939345,23.8465201 L71.7827088,23.7922716 L72.5509433,22.4994525 Z M57.294061,23.4339803 C57.5698513,23.339018 57.8395696,23.3558314 58.1032158,23.4844202 C58.3668621,23.6130091 58.5461663,23.8151987 58.6411285,24.090989 C58.7360908,24.3667793 58.7192774,24.6364976 58.5906886,24.9001439 C58.4620997,25.1637901 58.2599101,25.3430944 57.9841198,25.4380566 C57.7083295,25.5330188 57.4386112,25.5162055 57.1749649,25.3876166 C56.9113187,25.2590277 56.7320144,25.0568382 56.6370522,24.7810478 C56.54209,24.5052575 56.5589033,24.2355392 56.6874922,23.971893 C56.816081,23.7082467 57.0182706,23.5289425 57.294061,23.4339803 Z M65.675371,23.0776689 L64.5511681,24.4416431 L65.3873322,25.0483452 L66.5115351,23.684371 L65.675371,23.0776689 Z M52.9480847,13.0073418 C53.6142143,13.0007722 54.2685979,13.1542051 54.9112356,13.4676405 C55.314944,13.6645422 55.6677148,13.8926937 55.9695481,14.152095 C56.2713813,14.4114963 56.4965557,14.6921519 56.645071,14.9940618 C56.7935864,15.2959717 56.8603187,15.6191865 56.845268,15.9637062 C56.8302174,16.3082258 56.7138919,16.6721927 56.4962918,17.0556069 L56.4962918,17.0556069 L54.5918357,20.3643643 L54.5283041,20.4820771 C54.4524366,20.6376284 54.4119351,20.7875833 54.4067993,20.9319419 C54.4003796,21.1123901 54.4245023,21.2720388 54.4791672,21.4108881 L54.4791672,21.4108881 L54.4065327,21.5284446 L53.0206073,21.2961337 L53.024779,20.4720614 L52.93827,20.4298682 L52.7544272,20.4718427 C52.2645852,20.5633233 51.7779885,20.4911904 51.2946371,20.2554441 C51.0804245,20.1509657 50.8935382,20.0113706 50.7339784,19.836659 C50.5744185,19.6619474 50.4566537,19.4642754 50.3806839,19.2436432 C50.3047141,19.0230109 50.2787278,18.7783127 50.3027249,18.5095485 C50.3267221,18.2407842 50.4110519,17.9581011 50.5557144,17.6614991 C50.7084136,17.3484191 50.9046706,17.0871803 51.1444852,16.8777824 C51.3842999,16.6683846 51.6502907,16.5150989 51.9424579,16.4179254 C52.234625,16.3207518 52.5386513,16.2829063 52.8545368,16.3043889 C53.1704223,16.3258715 53.4807855,16.4109532 53.7856265,16.5596341 C53.9504054,16.6400021 54.1214646,16.7336321 54.2988041,16.840524 C54.4761436,16.947416 54.6268075,17.0514963 54.750796,17.1527649 L54.750796,17.1527649 L55.1380786,16.5155483 L55.2147383,16.3788962 C55.3976609,16.0203714 55.4085582,15.7088924 55.2474302,15.4444593 C55.0661612,15.146972 54.7489557,14.8877224 54.2958137,14.6667102 C53.8591496,14.4537349 53.407271,14.3608246 52.9401778,14.3879794 C52.4730847,14.4151341 52.0192091,14.5354257 51.578551,14.7488541 C51.1378929,14.9622826 50.7288384,15.262517 50.3513874,15.6495575 C49.9739363,16.036598 49.6606404,16.4855256 49.4114994,16.9963402 C49.1181561,17.5977832 48.9401519,18.1509427 48.8774868,18.6558186 C48.8148217,19.1606944 48.8397651,19.6114107 48.9523169,20.0079675 C49.0648688,20.4045242 49.2537765,20.7490822 49.5190399,21.0416414 C49.7843032,21.3342006 50.1023112,21.5708943 50.4730637,21.7517224 C50.8520552,21.9365689 51.1831674,22.0470688 51.4664003,22.0832222 C51.7496333,22.1193756 52.0099059,22.113734 52.2472181,22.0662973 L52.2472181,22.0662973 L52.3090102,22.0964353 L52.2723114,23.3635914 L52.0687616,23.4049727 C51.7276761,23.4610058 51.3774118,23.4523605 51.0179686,23.3790369 C50.5866368,23.2910485 50.2267894,23.1767323 49.9384263,23.0360882 C49.378178,22.7628369 48.8950879,22.4150307 48.4891561,21.9926698 C48.0832242,21.5703089 47.7852455,21.078214 47.59522,20.5163852 C47.4051945,19.9545564 47.3426644,19.3299754 47.4076297,18.6426421 C47.472595,17.9553088 47.6999701,17.2120533 48.0897551,16.4128756 C48.4273009,15.7208041 48.8518104,15.1170426 49.3632837,14.601591 C49.874757,14.0861393 50.4335598,13.6932106 51.039692,13.4228048 C51.6458243,13.1523991 52.2819552,13.0139114 52.9480847,13.0073418 Z M60.4137638,16.4573683 L62.2304513,17.343426 L60.6285883,20.1572402 L59.0815801,22.9213175 L57.9940393,22.3908885 L59.213701,19.4824519 L60.4137638,16.4573683 Z M53.3974708,17.7318645 C53.1091078,17.5912204 52.8208013,17.5602416 52.5325515,17.6389281 C52.2443017,17.7176146 52.0137811,17.9340952 51.8409898,18.2883698 C51.7204378,18.5355382 51.7102018,18.7447216 51.810282,18.9159202 C51.9103622,19.0871188 52.0633891,19.2229481 52.2693628,19.3234082 C52.4176638,19.3957394 52.5934428,19.4483263 52.7966997,19.4811688 C52.9999567,19.5140113 53.1978368,19.521284 53.3903403,19.5029868 L53.3903403,19.5029868 L54.1709332,18.2161953 L53.8025881,17.9676991 C53.664333,17.8747705 53.529294,17.796159 53.3974708,17.7318645 Z" id="Combined-Shape" fill="#000000" fill-rule="nonzero"></path>
        <path d="M45,27.5 C35.3350169,27.5 27.5,35.3350169 27.5,45 C27.5,54.6649831 35.3350169,62.5 45,62.5 C45.9926199,62.5 46.9659376,62.4173575 47.9134478,62.2585776 C46.9686,60.0678768 46.2451558,57.9044231 45.7413423,55.7676052 L45.4297911,54.2982731 C45.2012026,53.0979557 45.0439128,51.9076564 44.9566229,50.7258804 L44.9136736,50.0380591 L44.8875,49.37375 L42.75,49.3749993 C41.0453508,49.3749993 39.6039409,47.9139507 39.399752,46.1967708 L39.3812503,45.9895569 L39.375,45.7803468 C39.375,44.2800051 40.3564295,43.0088476 41.7128587,42.5718326 L41.9190598,42.512612 L42.09375,42.47375 L42.0964053,42.335305 C42.2506426,37.0359739 43.5039146,32.1215585 45.8415465,27.5207623 C45.5639784,27.5067067 45.2827724,27.5 45,27.5 Z" id="Path" fill="#000000" fill-rule="nonzero" opacity="0.03"></path>
    </g>
</svg>