<?xml version="1.0" encoding="UTF-8"?>
<svg width="72px" height="72px" viewBox="0 0 72 72" version="1.1" xmlns="http://www.w3.org/2000/svg" xmlns:xlink="http://www.w3.org/1999/xlink">
    <title>avatar.work.dark</title>
    <g id="avatar.work.dark" stroke="none" stroke-width="1" fill="none" fill-rule="evenodd">
        <g id="Group-3" transform="translate(22.000000, 15.000000)" fill="#FFFFFF">
            <path d="M28.3473714,8.45349657 C28.4767584,8.62440872 28.6299029,8.78106446 28.808131,8.91891295 L28.808131,8.91891295 L28.9849085,9.04938356 C29.158811,9.17167697 29.3347311,9.27779862 29.5116432,9.36818359 L29.5116432,9.36818359 L28.53,10.348 L26.3683121,12.5107728 C26.0878495,12.1029356 25.7877376,11.7096618 25.4693426,11.3323175 L25.4693426,11.3323175 L27.74,9.061 Z M32.7076532,3.495089 C34.9892062,6.12547637 32.3495819,10.3938055 29.4199308,8.12790026 C28.1242328,7.12575746 28.9882901,4.59999971 30.2767117,4.59999971 C31.4922375,4.59999971 32.3025514,4.23169614 32.7076532,3.495089 Z M32.1973491,5.60063738 C32.0116207,5.61157693 31.8529221,5.75166401 31.8253724,5.94299036 C31.7197736,6.6763496 31.3773867,6.9889524 30.7,6.9889524 C30.4790861,6.9889524 30.3,7.1680385 30.3,7.3889524 C30.3,7.6098663 30.4790861,7.7889524 30.7,7.7889524 C31.7843321,7.7889524 32.4561378,7.17558674 32.6172056,6.05700906 C32.648691,5.83835038 32.496957,5.63556853 32.2782984,5.60408314 L32.2782984,5.60408314 Z" id="Combined-Shape" fill-rule="nonzero" opacity="0.699999988"></path>
            <path d="M23.75,8.5 L23.8395326,8.50534755 L23.9041382,8.51585493 L24.0419338,8.55893872 C24.3111201,8.67279491 24.5,8.93933983 24.5,9.25 C24.5,9.62530984 24.2243269,9.93623277 23.8644224,9.99132699 L23.7643221,9.99986599 L4.235,9.999 L4.14822944,9.99315338 C3.78215388,9.94349096 3.5,9.62969577 3.5,9.25 C3.5,9.11192881 3.5373096,8.98257175 3.60733047,8.86316167 L3.64715237,8.80374211 L3.64715237,8.80374211 L3.69230694,8.74851398 L3.7320625,8.70755865 L3.7689804,8.67454601 L3.8085215,8.6436377 L3.85177592,8.61433771 L3.89764776,8.58775342 L3.93932008,8.56717288 L4.03703078,8.53066794 L4.14009328,8.50799583 L4.25,8.5 L23.75,8.5 Z M13.75,0 C14.1642136,-7.6089797e-17 14.5,0.335786438 14.5,0.75 L14.5,2.441 L22.0929059,1.49227788 L22.2702706,1.47529286 L22.4461992,1.46866753 C23.8446049,1.45646659 25.0752571,2.41173101 25.4107702,3.76871662 L25.4493966,3.94794644 L25.4765932,4.12403473 L25.4941427,4.31165341 L25.5,4.5 C25.5,5.69978076 24.8963134,6.75856296 23.9757596,7.38780764 L23.7995125,7.50068694 L4.25,7.5 L4.07740803,7.50840919 C3.85028416,7.53066688 3.63583746,7.59643908 3.442253,7.69771885 C2.87644139,7.34444927 2.5,6.71618593 2.5,6 C2.5,4.8773978 3.29793145,3.92248787 4.38543885,3.71112628 L4.54271206,3.6860521 L13,2.629 L13,0.75 C13,0.335786438 13.3357864,7.6089797e-17 13.75,0 Z" id="Combined-Shape" opacity="0.400000006"></path>
            <path d="M13.0209681,11.0003562 C12.2060798,13.5040676 11.7570676,16.1215261 11.6771243,18.868244 L11.6771243,18.868244 L11.675,18.979 L11.5352478,19.0100896 L11.370287,19.0574661 C10.2851436,19.4070781 9.5,20.4240041 9.5,21.6242775 L9.5,21.6242775 L9.50500027,21.7916455 L9.5198016,21.9574166 C9.68315268,23.3311605 10.8362806,24.4999994 12.2,24.4999994 L12.2,24.4999994 L13.91,24.499 L13.9309389,25.0304473 L13.9652983,25.5807043 C14.0351342,26.5261784 14.1609762,27.4784718 14.3431213,28.4387196 C12.335316,28.7239194 10.4015444,28.0421574 9.27554852,26.692619 C9.0632565,26.4381809 8.68489699,26.4040147 8.43045891,26.6163068 C8.17602083,26.8285988 8.1418547,27.2069583 8.35414672,27.4613964 C9.77049641,29.1589321 12.1577135,29.9875692 14.5932652,29.6143756 C14.9965064,31.3239055 15.5756634,33.0547694 16.3307583,34.8068621 C15.5727501,34.933886 14.7940959,35 14,35 C6.2680135,35 3.86179977e-12,28.7319865 3.86179977e-12,21 C3.86179977e-12,17.1753673 1.5336534,13.7089385 4.01952327,11.1821506 L4.01952327,11.1821506 L4.20383112,10.9994028 Z M12.1181422,32.8591877 C11.8356622,32.8591877 11.6066668,33.0830454 11.6066668,33.3591877 C11.6066668,33.6353301 11.8356622,33.8591877 12.1181422,33.8591877 C12.4006223,33.8591877 12.6296176,33.6353301 12.6296176,33.3591877 C12.6296176,33.0830454 12.4006223,32.8591877 12.1181422,32.8591877 Z M14.46,32.8591877 C14.1838577,32.8591877 13.96,33.0830454 13.96,33.3591877 C13.96,33.6353301 14.1838577,33.8591877 14.46,33.8591877 C14.7361424,33.8591877 14.96,33.6353301 14.96,33.3591877 C14.96,33.0830454 14.7361424,32.8591877 14.46,32.8591877 Z M9.36480888,32.0901706 C9.08232881,32.0901706 8.85333347,32.3140283 8.85333347,32.5901706 C8.85333347,32.866313 9.08232881,33.0901706 9.36480888,33.0901706 C9.64728895,33.0901706 9.87628429,32.866313 9.87628429,32.5901706 C9.87628429,32.3140283 9.64728895,32.0901706 9.36480888,32.0901706 Z M6.61147552,30.5521364 C6.32899545,30.5521364 6.10000011,30.7759941 6.10000011,31.0521364 C6.10000011,31.3282788 6.32899545,31.5521364 6.61147552,31.5521364 C6.89395558,31.5521364 7.12295093,31.3282788 7.12295093,31.0521364 C7.12295093,30.7759941 6.89395558,30.5521364 6.61147552,30.5521364 Z M13.6914756,30.5521364 C13.4089955,30.5521364 13.1800002,30.7759941 13.1800002,31.0521364 C13.1800002,31.3282788 13.4089955,31.5521364 13.6914756,31.5521364 C13.9739557,31.5521364 14.202951,31.3282788 14.202951,31.0521364 C14.202951,30.7759941 13.9739557,30.5521364 13.6914756,30.5521364 Z M11.3314756,30.5521364 C11.0489955,30.5521364 10.8200002,30.7759941 10.8200002,31.0521364 C10.8200002,31.3282788 11.0489955,31.5521364 11.3314756,31.5521364 C11.6139556,31.5521364 11.842951,31.3282788 11.842951,31.0521364 C11.842951,30.7759941 11.6139556,30.5521364 11.3314756,30.5521364 Z M8.97147554,29.7831193 C8.68899547,29.7831193 8.46000013,30.006977 8.46000013,30.2831193 C8.46000013,30.5592617 8.68899547,30.7831193 8.97147554,30.7831193 C9.25395561,30.7831193 9.48295095,30.5592617 9.48295095,30.2831193 C9.48295095,30.006977 9.25395561,29.7831193 8.97147554,29.7831193 Z M4.64480883,28.6295937 C4.36232876,28.6295937 4.13333342,28.8534513 4.13333342,29.1295937 C4.13333342,29.4057361 4.36232876,29.6295937 4.64480883,29.6295937 C4.9272889,29.6295937 5.15628424,29.4057361 5.15628424,29.1295937 C5.15628424,28.8534513 4.9272889,28.6295937 4.64480883,28.6295937 Z M7.00480885,28.2450851 C6.72232878,28.2450851 6.49333344,28.4689428 6.49333344,28.7450851 C6.49333344,29.0212275 6.72232878,29.2450851 7.00480885,29.2450851 C7.28728892,29.2450851 7.51628426,29.0212275 7.51628426,28.7450851 C7.51628426,28.4689428 7.28728892,28.2450851 7.00480885,28.2450851 Z M3.07147548,26.7070509 C2.78899541,26.7070509 2.56000007,26.9309085 2.56000007,27.2070509 C2.56000007,27.4831933 2.78899541,27.7070509 3.07147548,27.7070509 C3.35395555,27.7070509 3.58295089,27.4831933 3.58295089,27.2070509 C3.58295089,26.9309085 3.35395555,26.7070509 3.07147548,26.7070509 Z M5.4314755,26.3225424 C5.14899544,26.3225424 4.92000009,26.5464 4.92000009,26.8225424 C4.92000009,27.0986847 5.14899544,27.3225424 5.4314755,27.3225424 C5.71395557,27.3225424 5.94295091,27.0986847 5.94295091,26.8225424 C5.94295091,26.5464 5.71395557,26.3225424 5.4314755,26.3225424 Z M12.5114756,26.3225424 C12.2289955,26.3225424 12.0000002,26.5464 12.0000002,26.8225424 C12.0000002,27.0986847 12.2289955,27.3225424 12.5114756,27.3225424 C12.7939556,27.3225424 13.022951,27.0986847 13.022951,26.8225424 C13.022951,26.5464 12.7939556,26.3225424 12.5114756,26.3225424 Z M10.1514756,25.1690167 C9.86899548,25.1690167 9.64000014,25.3928743 9.64000014,25.6690167 C9.64000014,25.9451591 9.86899548,26.1690167 10.1514756,26.1690167 C10.4339556,26.1690167 10.662951,25.9451591 10.662951,25.6690167 C10.662951,25.3928743 10.4339556,25.1690167 10.1514756,25.1690167 Z M7.00480885,24.7845082 C6.72232878,24.7845082 6.49333344,25.0083658 6.49333344,25.2845082 C6.49333344,25.5606505 6.72232878,25.7845082 7.00480885,25.7845082 C7.28728892,25.7845082 7.51628426,25.5606505 7.51628426,25.2845082 C7.51628426,25.0083658 7.28728892,24.7845082 7.00480885,24.7845082 Z M2.28480881,24.3999996 C2.00232874,24.3999996 1.7733334,24.6238572 1.7733334,24.8999996 C1.7733334,25.176142 2.00232874,25.3999996 2.28480881,25.3999996 C2.56728888,25.3999996 2.79628422,25.176142 2.79628422,24.8999996 C2.79628422,24.6238572 2.56728888,24.3999996 2.28480881,24.3999996 Z M6.75,13 C6.33578644,13 6,13.3357864 6,13.75 L6,13.75 L6,18.25 C6,18.6642136 6.33578644,19 6.75,19 C7.16421356,19 7.5,18.6642136 7.5,18.25 L7.5,18.25 L7.5,13.75 C7.5,13.3357864 7.16421356,13 6.75,13 Z" id="Combined-Shape" fill-rule="nonzero" opacity="0.699999988"></path>
            <path d="M23.7962802,10.9983488 C26.3903685,13.5394998 28,17.0817751 28,21 C28,27.5844202 23.4544878,33.1071791 17.3296578,34.6018302 C16.5599113,32.8418724 15.973347,31.1074585 15.5707506,29.3996712 C17.7930184,28.7560215 19.543069,27.1521503 20.1838708,25.1620034 C20.285433,24.8465802 20.1120644,24.5085468 19.7966413,24.4069846 C19.4812181,24.3054224 19.1431847,24.4787909 19.0416225,24.7942141 C18.5346808,26.3686299 17.1302631,27.6712757 15.3194716,28.2206106 C15.0509884,26.7944594 14.9114705,25.3861713 14.9006787,23.9956307 C14.8985471,23.7209674 14.6752542,23.49945 14.4005827,23.499511 L14.4005827,23.499511 L12.1998889,23.4999994 L12.0663238,23.4933985 C11.2258774,23.4104248 10.5,22.5573606 10.5,21.6242775 L10.5,21.6242775 L10.5062386,21.4779192 L10.5246146,21.3350134 C10.6540799,20.5829617 11.2796534,19.9999605 12.0532925,19.9339743 L12.0532925,19.9339743 L12.2153099,19.9275112 L12.3184712,19.9156084 L12.4092288,19.8879219 C12.6629077,19.7831407 12.7492681,19.491594 12.669,19.249 L12.669,19.249 L12.6771537,18.8819049 C12.7588909,16.1232725 13.2256031,13.5028706 14.0749963,11.0000338 L14.0749963,11.0000338 Z M21.3232055,20.8513047 C20.4904279,20.5160319 19.626656,20.5524856 18.7653049,20.9528976 C18.5148968,21.0693036 18.4062665,21.3666652 18.5226725,21.6170734 C18.6390785,21.8674816 18.9364402,21.9761118 19.1868484,21.8597058 C19.8025152,21.5735038 20.3790073,21.5491742 20.9497399,21.7789487 C21.5316084,22.0132065 21.9641934,22.4354169 22.2616526,23.0677452 C22.3791985,23.3176203 22.6770521,23.4248943 22.9269272,23.3073483 C23.1768023,23.1898024 23.2840763,22.8919488 23.1665303,22.6420737 C22.7640079,21.7864056 22.1448472,21.1820942 21.3232055,20.8513047 Z M21.25,13 C20.8357864,13 20.5,13.3357864 20.5,13.75 L20.5,13.75 L20.5,18.1428571 L22,19 L22,13.75 C22,13.3357864 21.6642136,13 21.25,13 Z" id="Combined-Shape" fill-rule="nonzero" opacity="0.900000036"></path>
        </g>
    </g>
</svg>