<svg id="avatar" class="avatar-dark" width="72px" height="72px" viewBox="0 0 72 72" version="1.1" xmlns="http://www.w3.org/2000/svg" xmlns:xlink="http://www.w3.org/1999/xlink">
    <title>avatar.words.dark</title>
    <g id="avatar.words.dark" stroke="none" stroke-width="1" fill="none" fill-rule="evenodd">
        <path d="M36.1452018,53.4 C36.4434356,53.4 36.6908486,53.6175896 36.7373488,53.9026769 L36.7452018,54 L36.7452018,57 C36.7452018,57.3313708 36.4765727,57.6 36.1452018,57.6 C35.8469681,57.6 35.5995551,57.3824104 35.5530548,57.0973231 L35.5452018,57 L35.5452018,54 C35.5452018,53.6686292 35.813831,53.4 36.1452018,53.4 Z M30.4096282,53.0460032 C30.5065117,52.7291116 30.8419426,52.5507599 31.1588341,52.6476433 C31.4440365,52.7348384 31.6170216,53.015257 31.5781386,53.3014826 L31.5571939,53.3968492 L30.6800788,56.2657635 C30.5831954,56.582655 30.2477645,56.7610068 29.9308729,56.6641233 C29.6456706,56.5769282 29.4726854,56.2965096 29.5115684,56.010284 L29.5325131,55.9149174 L30.4096282,53.0460032 Z M25.7834875,50.6194646 C25.9687878,50.3447457 26.3417069,50.2722576 26.6164258,50.4575578 C26.8636728,50.624328 26.9471129,50.9430696 26.8262446,51.2054202 L26.7783326,51.2904961 L25.1007539,53.7776088 C24.9154537,54.0523277 24.5425345,54.1248158 24.2678156,53.9395156 C24.0205686,53.7727454 23.9371285,53.4540039 24.0579969,53.1916532 L24.1059088,53.1065773 L25.7834875,50.6194646 Z M22.0785304,46.9360381 C22.3360539,46.7274996 22.7138718,46.7672099 22.9224102,47.0247334 C23.1077777,47.2536432 23.0969981,47.5776004 22.9114471,47.793228 L22.8337148,47.8686132 L20.502277,49.7565744 C20.2447534,49.9651128 19.8669356,49.9254026 19.6583971,49.6678791 C19.4730297,49.4389693 19.4838093,49.1150121 19.6693602,48.8993844 L19.7470925,48.8239992 L22.0785304,46.9360381 Z" id="Combined-Shape" fill="#000000" fill-rule="nonzero" opacity="0.400000006"></path>
        <path d="M36,22 C36.2261623,22 36.451072,22.0053628 36.673469,22.0161562 C34.805419,25.6926266 33.8026385,29.6201504 33.6775155,33.8549314 L33.6775155,33.8549314 L33.675,33.979 L33.5352478,34.0100896 C32.3656208,34.3058439 31.5,35.3639904 31.5,36.6242775 L31.5,36.6242775 L31.5050003,36.7916455 C31.5912394,38.2357833 32.7817318,39.5 34.2,39.5 L34.2,39.5 L35.909,39.499 L35.9327489,40.0654185 C36.0990216,43.2354853 36.8983342,46.4828604 38.3293572,49.8070968 C37.5717906,49.9339674 36.7936067,50 36,50 C28.2680135,50 22,43.7319865 22,36 C22,28.2680135 28.2680135,22 36,22 Z M34.1181422,47.8591877 C33.8356622,47.8591877 33.6066668,48.0830454 33.6066668,48.3591877 C33.6066668,48.6353301 33.8356622,48.8591877 34.1181422,48.8591877 C34.4006223,48.8591877 34.6296176,48.6353301 34.6296176,48.3591877 C34.6296176,48.0830454 34.4006223,47.8591877 34.1181422,47.8591877 Z M36.46,47.8591877 C36.1838577,47.8591877 35.96,48.0830454 35.96,48.3591877 C35.96,48.6353301 36.1838577,48.8591877 36.46,48.8591877 C36.7361424,48.8591877 36.96,48.6353301 36.96,48.3591877 C36.96,48.0830454 36.7361424,47.8591877 36.46,47.8591877 Z M31.3648089,47.0901706 C31.0823288,47.0901706 30.8533335,47.3140283 30.8533335,47.5901706 C30.8533335,47.866313 31.0823288,48.0901706 31.3648089,48.0901706 C31.6472889,48.0901706 31.8762843,47.866313 31.8762843,47.5901706 C31.8762843,47.3140283 31.6472889,47.0901706 31.3648089,47.0901706 Z M28.6114755,45.5521364 C28.3289954,45.5521364 28.1000001,45.7759941 28.1000001,46.0521364 C28.1000001,46.3282788 28.3289954,46.5521364 28.6114755,46.5521364 C28.8939556,46.5521364 29.1229509,46.3282788 29.1229509,46.0521364 C29.1229509,45.7759941 28.8939556,45.5521364 28.6114755,45.5521364 Z M35.6914756,45.5521364 C35.4089955,45.5521364 35.1800002,45.7759941 35.1800002,46.0521364 C35.1800002,46.3282788 35.4089955,46.5521364 35.6914756,46.5521364 C35.9739557,46.5521364 36.202951,46.3282788 36.202951,46.0521364 C36.202951,45.7759941 35.9739557,45.5521364 35.6914756,45.5521364 Z M33.3314756,45.5521364 C33.0489955,45.5521364 32.8200002,45.7759941 32.8200002,46.0521364 C32.8200002,46.3282788 33.0489955,46.5521364 33.3314756,46.5521364 C33.6139556,46.5521364 33.842951,46.3282788 33.842951,46.0521364 C33.842951,45.7759941 33.6139556,45.5521364 33.3314756,45.5521364 Z M30.9714755,44.7831193 C30.6889955,44.7831193 30.4600001,45.006977 30.4600001,45.2831193 C30.4600001,45.5592617 30.6889955,45.7831193 30.9714755,45.7831193 C31.2539556,45.7831193 31.4829509,45.5592617 31.4829509,45.2831193 C31.4829509,45.006977 31.2539556,44.7831193 30.9714755,44.7831193 Z M26.6448088,43.6295937 C26.3623288,43.6295937 26.1333334,43.8534513 26.1333334,44.1295937 C26.1333334,44.4057361 26.3623288,44.6295937 26.6448088,44.6295937 C26.9272889,44.6295937 27.1562842,44.4057361 27.1562842,44.1295937 C27.1562842,43.8534513 26.9272889,43.6295937 26.6448088,43.6295937 Z M34.2114754,43.522542 C33.9289953,43.522542 33.7,43.7463996 33.7,44.022542 C33.7,44.2986844 33.9289953,44.522542 34.2114754,44.522542 C34.4939555,44.522542 34.7229508,44.2986844 34.7229508,44.022542 C34.7229508,43.7463996 34.4939555,43.522542 34.2114754,43.522542 Z M29.0048089,43.2450851 C28.7223288,43.2450851 28.4933334,43.4689428 28.4933334,43.7450851 C28.4933334,44.0212275 28.7223288,44.2450851 29.0048089,44.2450851 C29.2872889,44.2450851 29.5162843,44.0212275 29.5162843,43.7450851 C29.5162843,43.4689428 29.2872889,43.2450851 29.0048089,43.2450851 Z M31.5114756,42.3225424 C31.2289955,42.3225424 31.0000002,42.5464 31.0000002,42.8225424 C31.0000002,43.0986847 31.2289955,43.3225424 31.5114756,43.3225424 C31.7939556,43.3225424 32.022951,43.0986847 32.022951,42.8225424 C32.022951,42.5464 31.7939556,42.3225424 31.5114756,42.3225424 Z M25.0714755,41.7070509 C24.7889954,41.7070509 24.5600001,41.9309085 24.5600001,42.2070509 C24.5600001,42.4831933 24.7889954,42.7070509 25.0714755,42.7070509 C25.3539555,42.7070509 25.5829509,42.4831933 25.5829509,42.2070509 C25.5829509,41.9309085 25.3539555,41.7070509 25.0714755,41.7070509 Z M27.4314755,41.3225424 C27.1489954,41.3225424 26.9200001,41.5464 26.9200001,41.8225424 C26.9200001,42.0986847 27.1489954,42.3225424 27.4314755,42.3225424 C27.7139556,42.3225424 27.9429509,42.0986847 27.9429509,41.8225424 C27.9429509,41.5464 27.7139556,41.3225424 27.4314755,41.3225424 Z M34.5114756,41.3225424 C34.2289955,41.3225424 34.0000002,41.5464 34.0000002,41.8225424 C34.0000002,42.0986847 34.2289955,42.3225424 34.5114756,42.3225424 C34.7939556,42.3225424 35.022951,42.0986847 35.022951,41.8225424 C35.022951,41.5464 34.7939556,41.3225424 34.5114756,41.3225424 Z M32.1514756,40.1690167 C31.8689955,40.1690167 31.6400001,40.3928743 31.6400001,40.6690167 C31.6400001,40.9451591 31.8689955,41.1690167 32.1514756,41.1690167 C32.4339556,41.1690167 32.662951,40.9451591 32.662951,40.6690167 C32.662951,40.3928743 32.4339556,40.1690167 32.1514756,40.1690167 Z M29.0048089,39.7845082 C28.7223288,39.7845082 28.4933334,40.0083658 28.4933334,40.2845082 C28.4933334,40.5606505 28.7223288,40.7845082 29.0048089,40.7845082 C29.2872889,40.7845082 29.5162843,40.5606505 29.5162843,40.2845082 C29.5162843,40.0083658 29.2872889,39.7845082 29.0048089,39.7845082 Z M24.2848088,39.3999996 C24.0023287,39.3999996 23.7733334,39.6238572 23.7733334,39.8999996 C23.7733334,40.176142 24.0023287,40.3999996 24.2848088,40.3999996 C24.5672889,40.3999996 24.7962842,40.176142 24.7962842,39.8999996 C24.7962842,39.6238572 24.5672889,39.3999996 24.2848088,39.3999996 Z M28.75,28 C28.3357864,28 28,28.3357864 28,28.75 L28,28.75 L28,33.25 C28,33.6642136 28.3357864,34 28.75,34 C29.1642136,34 29.5,33.6642136 29.5,33.25 L29.5,33.25 L29.5,28.75 C29.5,28.3357864 29.1642136,28 28.75,28 Z" id="Path-2" fill="#000000" fill-rule="nonzero" opacity="0.699999988"></path>
        <path d="M37.7523587,22.1086084 C44.657262,22.9708272 50,28.8614819 50,36 C50,42.5844202 45.4544878,48.1071791 39.330248,49.6014922 L39.330248,49.6014922 L39.2683916,49.4608898 C37.7150288,45.8663111 36.926946,42.3786337 36.9006794,38.9957117 C36.8985468,38.7210565 36.6752656,38.4995432 36.4006022,38.4995939 L36.4006022,38.4995939 L34.1999077,38.5 L34.06634,38.4933991 C33.2258774,38.4104254 32.5,37.5573606 32.5,36.6242775 L32.5,36.6242775 L32.5062386,36.4779192 C32.5764615,35.6578565 33.2313009,35.0040846 34.0532925,34.9339743 L34.0532925,34.9339743 L34.187,34.928 L34.3094396,34.9178011 C34.6366768,34.8565547 34.7578208,34.5247832 34.6745974,34.2619439 L34.6745974,34.2619439 L34.669,34.248 L34.6777259,33.8628288 C34.8097801,29.5020575 35.9043161,25.487551 37.9497822,21.7386885 Z M41.7821383,40.0089952 C40.7339655,40.0009995 39.7772172,41.2090764 39.6109563,42.7909431 C39.4377679,44.4387209 40.1878961,45.8681067 41.2864147,45.9835657 C42.3849332,46.0990246 43.4158554,44.8568348 43.5890439,43.2090569 C43.7622323,41.5612791 43.012104,40.1318933 41.9135855,40.0164343 L41.9135855,40.0164343 Z M43.3232055,35.8513047 C42.4904279,35.5160319 41.626656,35.5524856 40.7653049,35.9528976 C40.5148968,36.0693036 40.4062665,36.3666652 40.5226725,36.6170734 C40.6390785,36.8674816 40.9364402,36.9761118 41.1868484,36.8597058 C41.8025152,36.5735038 42.3790073,36.5491742 42.9497399,36.7789487 C43.5316084,37.0132065 43.9641934,37.4354169 44.2616526,38.0677452 C44.3791985,38.3176203 44.6770521,38.4248943 44.9269272,38.3073483 C45.1768023,38.1898024 45.2840763,37.8919488 45.1665303,37.6420737 C44.7640079,36.7864056 44.1448472,36.1820942 43.3232055,35.8513047 Z M43.25,28 C42.8357864,28 42.5,28.3357864 42.5,28.75 L42.5,28.75 L42.5,33.1428571 L44,34 L44,28.75 C44,28.3357864 43.6642136,28 43.25,28 Z" id="Path-4" fill="#000000" fill-rule="nonzero" opacity="0.900000036"></path>
    </g>
</svg>