<?xml version="1.0" encoding="UTF-8"?>
<svg width="72px" height="72px" viewBox="0 0 72 72" version="1.1" xmlns="http://www.w3.org/2000/svg" xmlns:xlink="http://www.w3.org/1999/xlink">
    <title>avatar.404.dark</title>
    <g id="avatar.404.dark" stroke="none" stroke-width="1" fill="none" fill-rule="evenodd">
        <path d="M36,22 C36.2262179,22 36.4511827,22.0053654 36.6732372,22.0166098 C34.8031317,25.6972468 33.8005141,29.6287791 33.6771243,33.868244 L33.6771243,33.868244 L33.675,33.979 L33.5352478,34.0100896 L33.370287,34.0574661 C32.2851436,34.4070781 31.5,35.4240041 31.5,36.6242775 L31.5,36.6242775 L31.5050003,36.7916455 L31.5198016,36.9574166 C31.6831527,38.3311605 32.8362806,39.5 34.2,39.5 L34.2,39.5 L35.91,39.499 L35.9309389,40.0304473 L35.9652983,40.5807043 C36.0351302,41.5261251 36.160962,42.4783646 36.3438329,43.4386185 C34.3357729,43.7240805 32.4016774,43.0423168 31.2755485,41.692619 C31.0632565,41.4381809 30.684897,41.4040147 30.4304589,41.6163068 C30.1760208,41.8285988 30.1418547,42.2069583 30.3541467,42.4613964 C31.7703027,44.1586999 34.1570604,44.9873425 36.5930739,44.6140841 C36.9961246,46.3235385 37.57488,48.0543014 38.3307583,49.8068621 C37.5727501,49.933886 36.7940959,50 36,50 C28.2680135,50 22,43.7319865 22,36 C22,28.2680135 28.2680135,22 36,22 Z M34.1181422,47.8591877 C33.8356622,47.8591877 33.6066668,48.0830454 33.6066668,48.3591877 C33.6066668,48.6353301 33.8356622,48.8591877 34.1181422,48.8591877 C34.4006223,48.8591877 34.6296176,48.6353301 34.6296176,48.3591877 C34.6296176,48.0830454 34.4006223,47.8591877 34.1181422,47.8591877 Z M36.46,47.8591877 C36.1838577,47.8591877 35.96,48.0830454 35.96,48.3591877 C35.96,48.6353301 36.1838577,48.8591877 36.46,48.8591877 C36.7361424,48.8591877 36.96,48.6353301 36.96,48.3591877 C36.96,48.0830454 36.7361424,47.8591877 36.46,47.8591877 Z M31.3648089,47.0901706 C31.0823288,47.0901706 30.8533335,47.3140283 30.8533335,47.5901706 C30.8533335,47.866313 31.0823288,48.0901706 31.3648089,48.0901706 C31.6472889,48.0901706 31.8762843,47.866313 31.8762843,47.5901706 C31.8762843,47.3140283 31.6472889,47.0901706 31.3648089,47.0901706 Z M28.6114755,45.5521364 C28.3289954,45.5521364 28.1000001,45.7759941 28.1000001,46.0521364 C28.1000001,46.3282788 28.3289954,46.5521364 28.6114755,46.5521364 C28.8939556,46.5521364 29.1229509,46.3282788 29.1229509,46.0521364 C29.1229509,45.7759941 28.8939556,45.5521364 28.6114755,45.5521364 Z M35.6914756,45.5521364 C35.4089955,45.5521364 35.1800002,45.7759941 35.1800002,46.0521364 C35.1800002,46.3282788 35.4089955,46.5521364 35.6914756,46.5521364 C35.9739557,46.5521364 36.202951,46.3282788 36.202951,46.0521364 C36.202951,45.7759941 35.9739557,45.5521364 35.6914756,45.5521364 Z M33.3314756,45.5521364 C33.0489955,45.5521364 32.8200002,45.7759941 32.8200002,46.0521364 C32.8200002,46.3282788 33.0489955,46.5521364 33.3314756,46.5521364 C33.6139556,46.5521364 33.842951,46.3282788 33.842951,46.0521364 C33.842951,45.7759941 33.6139556,45.5521364 33.3314756,45.5521364 Z M30.9714755,44.7831193 C30.6889955,44.7831193 30.4600001,45.006977 30.4600001,45.2831193 C30.4600001,45.5592617 30.6889955,45.7831193 30.9714755,45.7831193 C31.2539556,45.7831193 31.4829509,45.5592617 31.4829509,45.2831193 C31.4829509,45.006977 31.2539556,44.7831193 30.9714755,44.7831193 Z M26.6448088,43.6295937 C26.3623288,43.6295937 26.1333334,43.8534513 26.1333334,44.1295937 C26.1333334,44.4057361 26.3623288,44.6295937 26.6448088,44.6295937 C26.9272889,44.6295937 27.1562842,44.4057361 27.1562842,44.1295937 C27.1562842,43.8534513 26.9272889,43.6295937 26.6448088,43.6295937 Z M29.0048089,43.2450851 C28.7223288,43.2450851 28.4933334,43.4689428 28.4933334,43.7450851 C28.4933334,44.0212275 28.7223288,44.2450851 29.0048089,44.2450851 C29.2872889,44.2450851 29.5162843,44.0212275 29.5162843,43.7450851 C29.5162843,43.4689428 29.2872889,43.2450851 29.0048089,43.2450851 Z M25.0714755,41.7070509 C24.7889954,41.7070509 24.5600001,41.9309085 24.5600001,42.2070509 C24.5600001,42.4831933 24.7889954,42.7070509 25.0714755,42.7070509 C25.3539555,42.7070509 25.5829509,42.4831933 25.5829509,42.2070509 C25.5829509,41.9309085 25.3539555,41.7070509 25.0714755,41.7070509 Z M27.4314755,41.3225424 C27.1489954,41.3225424 26.9200001,41.5464 26.9200001,41.8225424 C26.9200001,42.0986847 27.1489954,42.3225424 27.4314755,42.3225424 C27.7139556,42.3225424 27.9429509,42.0986847 27.9429509,41.8225424 C27.9429509,41.5464 27.7139556,41.3225424 27.4314755,41.3225424 Z M34.5114756,41.3225424 C34.2289955,41.3225424 34.0000002,41.5464 34.0000002,41.8225424 C34.0000002,42.0986847 34.2289955,42.3225424 34.5114756,42.3225424 C34.7939556,42.3225424 35.022951,42.0986847 35.022951,41.8225424 C35.022951,41.5464 34.7939556,41.3225424 34.5114756,41.3225424 Z M32.1514756,40.1690167 C31.8689955,40.1690167 31.6400001,40.3928743 31.6400001,40.6690167 C31.6400001,40.9451591 31.8689955,41.1690167 32.1514756,41.1690167 C32.4339556,41.1690167 32.662951,40.9451591 32.662951,40.6690167 C32.662951,40.3928743 32.4339556,40.1690167 32.1514756,40.1690167 Z M29.0048089,39.7845082 C28.7223288,39.7845082 28.4933334,40.0083658 28.4933334,40.2845082 C28.4933334,40.5606505 28.7223288,40.7845082 29.0048089,40.7845082 C29.2872889,40.7845082 29.5162843,40.5606505 29.5162843,40.2845082 C29.5162843,40.0083658 29.2872889,39.7845082 29.0048089,39.7845082 Z M24.2848088,39.3999996 C24.0023287,39.3999996 23.7733334,39.6238572 23.7733334,39.8999996 C23.7733334,40.176142 24.0023287,40.3999996 24.2848088,40.3999996 C24.5672889,40.3999996 24.7962842,40.176142 24.7962842,39.8999996 C24.7962842,39.6238572 24.5672889,39.3999996 24.2848088,39.3999996 Z M28.75,28 C28.3357864,28 28,28.3357864 28,28.75 L28,28.75 L28,33.25 C28,33.6642136 28.3357864,34 28.75,34 C29.1642136,34 29.5,33.6642136 29.5,33.25 L29.5,33.25 L29.5,28.75 C29.5,28.3357864 29.1642136,28 28.75,28 Z" id="Combined-Shape" fill="#FFFFFF" fill-rule="nonzero" opacity="0.699999988"></path>
        <path d="M37.7516806,22.1085237 C44.6569122,22.9704415 50,28.8612482 50,36 C50,42.5840685 45.4549734,48.1065891 39.3295315,49.6015414 C38.5598705,47.841736 37.9733605,46.1074702 37.5712632,44.3995228 C39.7932875,43.7557749 41.5431182,42.1519973 42.1838708,40.1620034 C42.285433,39.8465802 42.1120644,39.5085468 41.7966413,39.4069846 C41.4812181,39.3054224 41.1431847,39.4787909 41.0416225,39.7942141 C40.5346808,41.3686299 39.1302631,42.6712757 37.3194827,43.2206691 C37.0509923,41.7944979 36.9114707,40.3861904 36.9006787,38.9956307 C36.8985471,38.7209674 36.6752542,38.49945 36.4005827,38.499511 L36.4005827,38.499511 L34.1998889,38.4999994 L34.0663238,38.4933985 C33.2258774,38.4104248 32.5,37.5573606 32.5,36.6242775 L32.5,36.6242775 L32.5062386,36.4779192 L32.5246146,36.3350134 C32.6540799,35.5829617 33.2796534,34.9999605 34.0532925,34.9339743 L34.0532925,34.9339743 L34.2153099,34.9275112 L34.3184712,34.9156084 L34.4092288,34.8879219 C34.6629077,34.7831407 34.7492681,34.491594 34.669,34.249 L34.669,34.249 L34.6771537,33.8819049 C34.8017601,29.6764366 35.8210586,25.7922194 37.7269215,22.1560383 L37.7269215,22.1560383 Z M43.3232055,35.8513047 C42.4904279,35.5160319 41.626656,35.5524856 40.7653049,35.9528976 C40.5148968,36.0693036 40.4062665,36.3666652 40.5226725,36.6170734 C40.6390785,36.8674816 40.9364402,36.9761118 41.1868484,36.8597058 C41.8025152,36.5735038 42.3790073,36.5491742 42.9497399,36.7789487 C43.5316084,37.0132065 43.9641934,37.4354169 44.2616526,38.0677452 C44.3791985,38.3176203 44.6770521,38.4248943 44.9269272,38.3073483 C45.1768023,38.1898024 45.2840763,37.8919488 45.1665303,37.6420737 C44.7640079,36.7864056 44.1448472,36.1820942 43.3232055,35.8513047 Z M43.25,28 C42.8357864,28 42.5,28.3357864 42.5,28.75 L42.5,28.75 L42.5,33.1428571 L44,34 L44,28.75 C44,28.3357864 43.6642136,28 43.25,28 Z" id="Combined-Shape" fill="#FFFFFF" fill-rule="nonzero" opacity="0.900000036"></path>
        <path d="M32.9280617,17.3442301 C33.1130563,17.4936924 33.2227355,17.6906788 33.2570992,17.9351894 C33.2901902,18.1706441 33.2390566,18.3902313 33.1036985,18.5939511 C32.9683403,18.7976708 32.7779357,18.9167787 32.5324847,18.9512746 C32.2954975,18.9845809 32.0820724,18.9245364 31.8922094,18.7711409 C31.7023465,18.6177454 31.5908696,18.4233203 31.5577786,18.1878656 C31.5234148,17.943355 31.5742302,17.7215038 31.7102247,17.522312 C31.8462193,17.3231202 32.036942,17.2062764 32.2823931,17.1717805 C32.5278442,17.1372846 32.743067,17.1947678 32.9280617,17.3442301 Z M39.0838572,17.1540977 L39.203908,17.1655889 C39.4487196,17.2043633 39.6377318,17.3222598 39.7709445,17.5192785 C39.9041572,17.7162972 39.9514507,17.9367434 39.9128249,18.180617 C39.8756297,18.4154583 39.7625293,18.6105006 39.5735238,18.7657439 C39.3845183,18.9209872 39.1676097,18.9792216 38.922798,18.9404473 C38.6864282,18.90301 38.4998841,18.7831896 38.3631658,18.5809862 C38.2264475,18.3787828 38.1766859,18.1602605 38.2138811,17.9254192 C38.2525069,17.6815455 38.3659649,17.4842451 38.5542552,17.333518 C38.7425454,17.182791 38.9590963,17.1268146 39.203908,17.1655889 Z M39.5359442,9.08651396 C39.8661724,9.02308022 40.2085639,9.01944133 40.5631187,9.07559729 C40.9176735,9.13175325 41.2404299,9.23842648 41.5313879,9.39561698 C41.8223458,9.55280748 42.0692004,9.75625159 42.2719515,10.0059493 C42.4747026,10.255647 42.6189348,10.5470004 42.7046481,10.8800095 C42.7903614,11.2130186 42.8010299,11.5827512 42.7366536,11.9892073 C42.6908749,12.2782428 42.6212723,12.5264692 42.5278458,12.7338864 C42.4344193,12.9413037 42.3209967,13.1247213 42.187578,13.2841392 C42.0541594,13.4435571 41.899314,13.5880076 41.723042,13.7174909 C41.54677,13.8469741 41.3571201,13.978968 41.1540921,14.1134724 C40.9609366,14.2402816 40.7956099,14.3552952 40.6581121,14.4585134 C40.5206142,14.5617316 40.4080841,14.671219 40.3205217,14.7869756 C40.2329592,14.9027323 40.1622449,15.0350458 40.1083788,15.1839162 C40.0545126,15.3327867 40.0096972,15.5201263 39.9739326,15.7459353 L39.9739326,15.7459353 L39.8988269,16.2201341 L38.7085358,16.0316105 L38.8115379,15.3812807 L38.8427208,15.2100104 C38.8771902,15.0436007 38.9215191,14.891773 38.9757075,14.7545273 C39.0479587,14.5715331 39.1363427,14.4096118 39.2408596,14.2687637 C39.3453764,14.1279156 39.4657039,13.9965158 39.601842,13.8745644 C39.7379801,13.7526129 39.889249,13.6307433 40.0556486,13.5089553 L40.0556486,13.5089553 L40.5992732,13.1089626 L40.7534822,12.998409 C40.9022249,12.8839514 41.0345691,12.7577823 41.1505146,12.6199017 C41.3051085,12.4360608 41.4074408,12.1860741 41.4575112,11.8699416 C41.5261793,11.4363884 41.452162,11.0705107 41.2354594,10.7723086 C41.0187568,10.4741065 40.7078027,10.2929163 40.3025972,10.228738 C39.8805082,10.1618857 39.5199476,10.2529216 39.2209155,10.5018456 C38.9218833,10.7507697 38.7183594,11.0796333 38.6103435,11.4884365 L38.6103435,11.4884365 L37.4183318,11.1468679 L37.4914863,10.9242958 C37.5968322,10.6350656 37.7334048,10.3759655 37.9012041,10.1469956 C38.1109531,9.86078309 38.35329,9.62834148 38.6282148,9.44967072 C38.9031395,9.27099996 39.205716,9.14994771 39.5359442,9.08651396 Z M31.7914816,9.16492348 L32.7479387,15.9704695 L31.49106,16.1471123 L30.5346029,9.34156627 L31.7914816,9.16492348 Z" id="Combined-Shape" fill="#FFFFFF" opacity="0.400000006"></path>
    </g>
</svg>