<svg id="avatar" class="avatar-dark" width="90px" height="90px" viewBox="0 0 90 90" version="1.1" xmlns="http://www.w3.org/2000/svg" xmlns:xlink="http://www.w3.org/1999/xlink">
    <title>avatar.404.dark</title>
    <g id="avatar.404.dark" stroke="none" stroke-width="1" fill="none" fill-rule="evenodd">
        <path d="M45,27.5 C45.2827724,27.5 45.5639784,27.5067067 45.8415465,27.5207623 C43.5039146,32.1215585 42.2506426,37.0359739 42.0964053,42.335305 L42.0964053,42.335305 L42.09375,42.47375 L41.9190598,42.512612 L41.7128587,42.5718326 C40.3564295,43.0088476 39.375,44.2800051 39.375,45.7803468 L39.375,45.7803468 L39.3812503,45.9895569 L39.399752,46.1967708 C39.6039409,47.9139507 41.0453508,49.3749993 42.75,49.3749993 L42.75,49.3749993 L44.8875,49.37375 L44.9136736,50.0380591 L44.9566229,50.7258804 C45.0439128,51.9076564 45.2012026,53.0979557 45.4297911,54.2982731 C42.9197161,54.6551006 40.5020968,53.802896 39.0944357,52.1157737 C38.8290706,51.7977261 38.3561212,51.7550184 38.0380736,52.0203835 C37.720026,52.2857485 37.6773184,52.7586979 37.9426834,53.0767455 C39.7128783,55.1983749 42.6963255,56.2341781 45.7413423,55.7676052 C46.2451558,57.9044231 46.9686,60.0678768 47.9134478,62.2585776 C46.9659376,62.4173575 45.9926199,62.5 45,62.5 C35.3350169,62.5 27.5,54.6649831 27.5,45 C27.5,35.3350169 35.3350169,27.5 45,27.5 Z M42.6583335,59.7989847 C42.2855413,59.7989847 41.9833335,60.1011925 41.9833335,60.4739847 C41.9833335,60.8467769 42.2855413,61.1489847 42.6583335,61.1489847 C43.0311257,61.1489847 43.3333335,60.8467769 43.3333335,60.4739847 C43.3333335,60.1011925 43.0311257,59.7989847 42.6583335,59.7989847 Z M45.6,59.7989847 C45.2272078,59.7989847 44.925,60.1011925 44.925,60.4739847 C44.925,60.8467769 45.2272078,61.1489847 45.6,61.1489847 C45.9727923,61.1489847 46.275,60.8467769 46.275,60.4739847 C46.275,60.1011925 45.9727923,59.7989847 45.6,59.7989847 Z M39.2166668,58.8377133 C38.8438746,58.8377133 38.5416668,59.1399211 38.5416668,59.5127133 C38.5416668,59.8855055 38.8438746,60.1877133 39.2166668,60.1877133 C39.589459,60.1877133 39.8916668,59.8855055 39.8916668,59.5127133 C39.8916668,59.1399211 39.589459,58.8377133 39.2166668,58.8377133 Z M35.7750001,56.9151705 C35.4022079,56.9151705 35.1000001,57.2173783 35.1000001,57.5901705 C35.1000001,57.9629627 35.4022079,58.2651705 35.7750001,58.2651705 C36.1477923,58.2651705 36.4500001,57.9629627 36.4500001,57.5901705 C36.4500001,57.2173783 36.1477923,56.9151705 35.7750001,56.9151705 Z M44.6250002,56.9151705 C44.252208,56.9151705 43.9500002,57.2173783 43.9500002,57.5901705 C43.9500002,57.9629627 44.252208,58.2651705 44.6250002,58.2651705 C44.9977924,58.2651705 45.3000002,57.9629627 45.3000002,57.5901705 C45.3000002,57.2173783 44.9977924,56.9151705 44.6250002,56.9151705 Z M41.6750002,56.9151705 C41.302208,56.9151705 41.0000002,57.2173783 41.0000002,57.5901705 C41.0000002,57.9629627 41.302208,58.2651705 41.6750002,58.2651705 C42.0477924,58.2651705 42.3500002,57.9629627 42.3500002,57.5901705 C42.3500002,57.2173783 42.0477924,56.9151705 41.6750002,56.9151705 Z M38.7250002,55.9538992 C38.352208,55.9538992 38.0500002,56.256107 38.0500002,56.6288992 C38.0500002,57.0016914 38.352208,57.3038992 38.7250002,57.3038992 C39.0977924,57.3038992 39.4000002,57.0016914 39.4000002,56.6288992 C39.4000002,56.256107 39.0977924,55.9538992 38.7250002,55.9538992 Z M33.3166668,54.5119921 C32.9438746,54.5119921 32.6416668,54.8141999 32.6416668,55.1869921 C32.6416668,55.5597843 32.9438746,55.8619921 33.3166668,55.8619921 C33.689459,55.8619921 33.9916668,55.5597843 33.9916668,55.1869921 C33.9916668,54.8141999 33.689459,54.5119921 33.3166668,54.5119921 Z M36.2666668,54.0313564 C35.8938746,54.0313564 35.5916668,54.3335642 35.5916668,54.7063564 C35.5916668,55.0791486 35.8938746,55.3813564 36.2666668,55.3813564 C36.639459,55.3813564 36.9416668,55.0791486 36.9416668,54.7063564 C36.9416668,54.3335642 36.639459,54.0313564 36.2666668,54.0313564 Z M31.3500001,52.1088137 C30.9772079,52.1088137 30.6750001,52.4110214 30.6750001,52.7838137 C30.6750001,53.1566059 30.9772079,53.4588137 31.3500001,53.4588137 C31.7227923,53.4588137 32.0250001,53.1566059 32.0250001,52.7838137 C32.0250001,52.4110214 31.7227923,52.1088137 31.3500001,52.1088137 Z M34.3000001,51.628178 C33.9272079,51.628178 33.6250001,51.9303858 33.6250001,52.303178 C33.6250001,52.6759702 33.9272079,52.978178 34.3000001,52.978178 C34.6727923,52.978178 34.9750001,52.6759702 34.9750001,52.303178 C34.9750001,51.9303858 34.6727923,51.628178 34.3000001,51.628178 Z M43.1500002,51.628178 C42.777208,51.628178 42.4750002,51.9303858 42.4750002,52.303178 C42.4750002,52.6759702 42.777208,52.978178 43.1500002,52.978178 C43.5227924,52.978178 43.8250002,52.6759702 43.8250002,52.303178 C43.8250002,51.9303858 43.5227924,51.628178 43.1500002,51.628178 Z M40.2000002,50.1862709 C39.827208,50.1862709 39.5250002,50.4884787 39.5250002,50.8612709 C39.5250002,51.2340631 39.827208,51.5362709 40.2000002,51.5362709 C40.5727924,51.5362709 40.8750002,51.2340631 40.8750002,50.8612709 C40.8750002,50.4884787 40.5727924,50.1862709 40.2000002,50.1862709 Z M36.2666668,49.7056352 C35.8938746,49.7056352 35.5916668,50.007843 35.5916668,50.3806352 C35.5916668,50.7534274 35.8938746,51.0556352 36.2666668,51.0556352 C36.639459,51.0556352 36.9416668,50.7534274 36.9416668,50.3806352 C36.9416668,50.007843 36.639459,49.7056352 36.2666668,49.7056352 Z M30.3666667,49.2249995 C29.9938745,49.2249995 29.6916667,49.5272073 29.6916667,49.8999995 C29.6916667,50.2727917 29.9938745,50.5749995 30.3666667,50.5749995 C30.739459,50.5749995 31.0416667,50.2727917 31.0416667,49.8999995 C31.0416667,49.5272073 30.739459,49.2249995 30.3666667,49.2249995 Z M34.3746899,36.0099612 C34.0661757,35.701447 33.5659754,35.701447 33.2574612,36.0099612 C32.948947,36.3184754 32.948947,36.8186757 33.2574612,37.1271899 L33.2574612,37.1271899 L34.88,38.75 L33.2574612,40.3728101 C32.9769938,40.6532775 32.9514967,41.0921633 33.1809701,41.401434 L33.2574612,41.4900388 C33.5659754,41.798553 34.0661757,41.798553 34.3746899,41.4900388 L34.3746899,41.4900388 L35.997,39.867 L37.6203101,41.4900388 C37.9007775,41.7705062 38.3396633,41.7960033 38.648934,41.5665299 L38.7375388,41.4900388 C39.046053,41.1815246 39.046053,40.6813243 38.7375388,40.3728101 L38.7375388,40.3728101 L37.115,38.75 L38.7375388,37.1271899 C39.0180062,36.8467225 39.0435033,36.4078367 38.8140299,36.098566 L38.7375388,36.0099612 C38.4290246,35.701447 37.9288243,35.701447 37.6203101,36.0099612 L37.6203101,36.0099612 L35.997,37.632 Z" id="Combined-Shape" fill="#000000" fill-rule="nonzero" opacity="0.699999988"></path>
        <path d="M47.1896007,27.6356547 C55.8211403,28.7130519 62.5,36.0765603 62.5,45 C62.5,53.2300856 56.8187168,60.1332364 49.1619144,62.0019268 C48.1998382,59.80217 47.4667007,57.6343377 46.964079,55.4994035 C49.7416093,54.6947186 51.9288978,52.6899967 52.7298384,50.2025042 C52.8567912,49.8082253 52.6400805,49.3856835 52.2458016,49.2587308 C51.8515227,49.131778 51.4289809,49.3484887 51.3020281,49.7427676 C50.668351,51.7107874 48.9128289,53.3390946 46.6493533,54.0258364 C46.3137403,52.2431224 46.1393384,50.482738 46.1258484,48.7445384 C46.1231839,48.4012093 45.8440678,48.1243125 45.5007284,48.1243888 L45.5007284,48.1243888 L42.7498611,48.1249992 L42.5829048,48.1167481 C41.5323467,48.013031 40.625,46.9467007 40.625,45.7803468 L40.625,45.7803468 L40.6327983,45.5973991 L40.6557683,45.4187668 C40.8175998,44.4787022 41.5995667,43.7499506 42.5666156,43.6674679 L42.5666156,43.6674679 L42.7691374,43.659389 L42.8980891,43.6445105 L43.011536,43.6099024 C43.3286346,43.4789258 43.4365852,43.1144926 43.33625,42.81125 L43.33625,42.81125 L43.3464422,42.3523812 C43.5022002,37.0955457 44.7763232,32.2402743 47.1586519,27.6950478 L47.1586519,27.6950478 Z M54.1540069,44.8141309 C53.1130349,44.3950399 52.03332,44.440607 50.9566312,44.941122 C50.643621,45.0866295 50.5078332,45.4583315 50.6533407,45.7713417 C50.7988482,46.084352 51.1705502,46.2201397 51.4835604,46.0746323 C52.253144,45.7168798 52.9737592,45.6864677 53.6871749,45.9736859 C54.4145105,46.2665082 54.9552418,46.7942711 55.3270657,47.5846815 C55.4739981,47.8970254 55.8463151,48.0311178 56.158659,47.8841854 C56.4710029,47.7372529 56.6050953,47.3649359 56.4581629,47.0525921 C55.9550099,45.983007 55.181059,45.2276177 54.1540069,44.8141309 Z M52.3746899,36.0099612 C52.0661757,35.701447 51.5659754,35.701447 51.2574612,36.0099612 C50.948947,36.3184754 50.948947,36.8186757 51.2574612,37.1271899 L51.2574612,37.1271899 L52.88,38.7496547 L51.2574612,40.3728101 C50.9769938,40.6532775 50.9514967,41.0921633 51.1809701,41.401434 L51.2574612,41.4900388 C51.5659754,41.798553 52.0661757,41.798553 52.3746899,41.4900388 L52.3746899,41.4900388 L53.997,39.8666547 L55.6203101,41.4900388 C55.9007775,41.7705062 56.3396633,41.7960033 56.648934,41.5665299 L56.7375388,41.4900388 C57.046053,41.1815246 57.046053,40.6813243 56.7375388,40.3728101 L56.7375388,40.3728101 L55.114,38.7496547 L56.7375388,37.1271899 C57.0180062,36.8467225 57.0435033,36.4078367 56.8140299,36.098566 L56.7375388,36.0099612 C56.4290246,35.701447 55.9288243,35.701447 55.6203101,36.0099612 L55.6203101,36.0099612 L53.997,37.6326547 Z" id="Combined-Shape" fill="#000000" fill-rule="nonzero" opacity="0.900000036"></path>
        <path d="M49.6541202,21.711771 L49.822064,21.7310328 L49.9864675,21.7703728 C50.2508383,21.8514716 50.4667835,22.0100808 50.6305424,22.2439527 C50.827053,22.5245989 50.8960191,22.8387941 50.8360135,23.1791027 C50.7760079,23.5194114 50.6037399,23.7910705 50.3230936,23.9875811 C50.0424474,24.1840917 49.7282522,24.2530578 49.3879436,24.1930522 C49.0476349,24.1330466 48.7759759,23.9607786 48.5794652,23.6801323 C48.3829546,23.3994861 48.3139885,23.0852909 48.3739941,22.7449823 C48.4339997,22.4046736 48.6062677,22.1330146 48.886914,21.9365039 C49.1207858,21.7727451 49.3779556,21.6975588 49.6541202,21.711771 Z M39.8622384,21.444484 C40.202547,21.3844784 40.5167422,21.4534445 40.7973884,21.6499551 C41.0780347,21.8464658 41.2503027,22.1181248 41.3103083,22.4584335 C41.3703139,22.7987422 41.3013478,23.1129373 41.1048372,23.3935836 C40.9083265,23.6742298 40.6366675,23.8464978 40.2963588,23.9065034 C39.9560502,23.966509 39.641855,23.8975429 39.3612088,23.7010323 C39.0805625,23.5045217 38.9082945,23.2328626 38.8482889,22.8925539 C38.7882833,22.5522453 38.8572494,22.2380501 39.05376,21.9574039 C39.2502706,21.6767576 39.5219297,21.5044896 39.8622384,21.444484 Z M50.9111716,10.9986961 C51.3152878,10.9654907 51.762353,10.9923152 52.252489,11.0787394 C52.9053731,11.1938605 53.4698328,11.381062 53.945553,11.6409668 C54.4233207,11.9019904 54.8103549,12.2233028 55.1055345,12.6048582 C55.4010906,12.9869004 55.6004453,13.4120489 55.7029652,13.8791085 C55.8050855,14.344347 55.8111487,14.8314673 55.7215481,15.3396175 C55.6097177,15.9738388 55.390766,16.5071827 55.0639369,16.938059 C54.7401895,17.3648726 54.3582659,17.71027 53.9186513,17.9735239 C53.4813166,18.2354124 53.0148448,18.420625 52.5197229,18.528947 C52.2746522,18.5825633 52.0357664,18.6228132 51.8019856,18.6497219 L51.455008,18.6800821 L51.2275,18.6875 L50.9659341,20.1747706 L50.8211271,20.2761656 L49.3069852,20.0091815 L49.2055902,19.8643745 L49.6907198,17.1130679 L49.8217041,17.0100227 L50.2669143,17.0382074 C50.5606943,17.0483787 50.853253,17.0416888 51.1446141,17.0181396 C51.5758633,16.983284 51.970112,16.8900081 52.3278329,16.7385387 C52.6802911,16.5892976 52.9815811,16.3680807 53.2329134,16.0739147 C53.481223,15.7832867 53.6499248,15.3908744 53.7374368,14.8945689 C53.8351059,14.3406603 53.7119459,13.8768568 53.3669561,13.4915859 C53.0162802,13.099965 52.4804976,12.8388223 51.7552558,12.7109426 C51.4942612,12.6649222 51.1823045,12.6500101 50.8198191,12.666682 C50.6391086,12.6749935 50.4646403,12.6928419 50.2975593,12.7199209 L50.0526215,12.7674242 L49.7534831,12.8339573 L49.5872968,12.8046542 L49.4891499,12.6460526 L49.9125526,11.2166093 L50.0038202,11.1304222 L50.1385598,11.0988166 C50.3349986,11.0581641 50.5922571,11.0249006 50.9111716,10.9986961 Z M38.9578636,10.8086955 L39.1037436,10.9174496 L39.6100731,15.2999798 L40.2296298,19.8934298 L40.1274576,20.0332392 L39.0564791,20.2220816 L38.9127646,20.126164 L37.909481,15.6228643 L36.8271803,11.3204403 L36.9266976,11.1668449 L38.9578636,10.8086955 Z" id="Combined-Shape" fill="#000000" fill-rule="nonzero" opacity="0.400000006"></path>
    </g>
</svg>