<svg id="avatar" width="72px" height="72px" viewBox="0 0 72 72" version="1.1" xmlns="http://www.w3.org/2000/svg" xmlns:xlink="http://www.w3.org/1999/xlink">
    <title>avatar.words</title>
    <g id="avatar.words" stroke="none" stroke-width="1" fill="none" fill-rule="evenodd">
        <path d="M36,21 C44.2842712,21 51,27.7157288 51,36 C51,44.2842712 44.2842712,51 36,51 C27.7157288,51 21,44.2842712 21,36 C21,27.7157288 27.7157288,21 36,21 Z M36,22 C28.2680135,22 22,28.2680135 22,36 C22,43.7319865 28.2680135,50 36,50 C36.7936067,50 37.5717906,49.9339674 38.3293572,49.8070968 C36.8983342,46.4828604 36.0990216,43.2354853 35.9327489,40.0654185 L35.909,39.499 L34.2,39.5 C32.7817318,39.5 31.5912394,38.2357833 31.5050003,36.7916455 L31.5,36.6242775 C31.5,35.3639904 32.3656208,34.3058439 33.5352478,34.0100896 L33.675,33.979 L33.6775155,33.8549314 C33.8026385,29.6201504 34.805419,25.6926266 36.673469,22.0161562 C36.451072,22.0053628 36.2261623,22 36,22 Z M37.7523587,22.1086084 L37.9497822,21.7386885 C35.9043161,25.487551 34.8097801,29.5020575 34.6777259,33.8628288 L34.669,34.248 L34.6745974,34.2619439 C34.7578208,34.5247832 34.6366768,34.8565547 34.3094396,34.9178011 L34.187,34.928 L34.0532925,34.9339743 C33.2313009,35.0040846 32.5764615,35.6578565 32.5062386,36.4779192 L32.5,36.6242775 C32.5,37.5573606 33.2258774,38.4104254 34.06634,38.4933991 L34.1999077,38.5 L36.4006022,38.4995939 C36.6752656,38.4995432 36.8985468,38.7210565 36.9006794,38.9957117 C36.926946,42.3786337 37.7150288,45.8663111 39.2683916,49.4608898 L39.330248,49.6014922 C45.4544878,48.1071791 50,42.5844202 50,36 C50,28.8614819 44.657262,22.9708272 37.7523587,22.1086084 Z M34.1181422,47.8591877 C34.4006223,47.8591877 34.6296176,48.0830454 34.6296176,48.3591877 C34.6296176,48.6353301 34.4006223,48.8591877 34.1181422,48.8591877 C33.8356622,48.8591877 33.6066668,48.6353301 33.6066668,48.3591877 C33.6066668,48.0830454 33.8356622,47.8591877 34.1181422,47.8591877 Z M36.46,47.8591877 C36.7361424,47.8591877 36.96,48.0830454 36.96,48.3591877 C36.96,48.6353301 36.7361424,48.8591877 36.46,48.8591877 C36.1838577,48.8591877 35.96,48.6353301 35.96,48.3591877 C35.96,48.0830454 36.1838577,47.8591877 36.46,47.8591877 Z M31.3648089,47.0901706 C31.6472889,47.0901706 31.8762843,47.3140283 31.8762843,47.5901706 C31.8762843,47.866313 31.6472889,48.0901706 31.3648089,48.0901706 C31.0823288,48.0901706 30.8533335,47.866313 30.8533335,47.5901706 C30.8533335,47.3140283 31.0823288,47.0901706 31.3648089,47.0901706 Z M28.6114755,45.5521364 C28.8939556,45.5521364 29.1229509,45.7759941 29.1229509,46.0521364 C29.1229509,46.3282788 28.8939556,46.5521364 28.6114755,46.5521364 C28.3289954,46.5521364 28.1000001,46.3282788 28.1000001,46.0521364 C28.1000001,45.7759941 28.3289954,45.5521364 28.6114755,45.5521364 Z M35.6914756,45.5521364 C35.9739557,45.5521364 36.202951,45.7759941 36.202951,46.0521364 C36.202951,46.3282788 35.9739557,46.5521364 35.6914756,46.5521364 C35.4089955,46.5521364 35.1800002,46.3282788 35.1800002,46.0521364 C35.1800002,45.7759941 35.4089955,45.5521364 35.6914756,45.5521364 Z M33.3314756,45.5521364 C33.6139556,45.5521364 33.842951,45.7759941 33.842951,46.0521364 C33.842951,46.3282788 33.6139556,46.5521364 33.3314756,46.5521364 C33.0489955,46.5521364 32.8200002,46.3282788 32.8200002,46.0521364 C32.8200002,45.7759941 33.0489955,45.5521364 33.3314756,45.5521364 Z M41.7821383,40.009035 L41.9135855,40.0164343 C43.012104,40.1318933 43.7622323,41.5612791 43.5890439,43.2090569 C43.4158554,44.8568348 42.3849332,46.0990246 41.2864147,45.9835657 C40.1878961,45.8681067 39.4377679,44.4387209 39.6109563,42.7909431 C39.7841447,41.1431652 40.8150669,39.9009754 41.9135855,40.0164343 Z M30.9714755,44.7831193 C31.2539556,44.7831193 31.4829509,45.006977 31.4829509,45.2831193 C31.4829509,45.5592617 31.2539556,45.7831193 30.9714755,45.7831193 C30.6889955,45.7831193 30.4600001,45.5592617 30.4600001,45.2831193 C30.4600001,45.006977 30.6889955,44.7831193 30.9714755,44.7831193 Z M26.6448088,43.6295937 C26.9272889,43.6295937 27.1562842,43.8534513 27.1562842,44.1295937 C27.1562842,44.4057361 26.9272889,44.6295937 26.6448088,44.6295937 C26.3623288,44.6295937 26.1333334,44.4057361 26.1333334,44.1295937 C26.1333334,43.8534513 26.3623288,43.6295937 26.6448088,43.6295937 Z M34.2114754,43.522542 C34.4939555,43.522542 34.7229508,43.7463996 34.7229508,44.022542 C34.7229508,44.2986844 34.4939555,44.522542 34.2114754,44.522542 C33.9289953,44.522542 33.7,44.2986844 33.7,44.022542 C33.7,43.7463996 33.9289953,43.522542 34.2114754,43.522542 Z M29.0048089,43.2450851 C29.2872889,43.2450851 29.5162843,43.4689428 29.5162843,43.7450851 C29.5162843,44.0212275 29.2872889,44.2450851 29.0048089,44.2450851 C28.7223288,44.2450851 28.4933334,44.0212275 28.4933334,43.7450851 C28.4933334,43.4689428 28.7223288,43.2450851 29.0048089,43.2450851 Z M31.5114756,42.3225424 C31.7939556,42.3225424 32.022951,42.5464 32.022951,42.8225424 C32.022951,43.0986847 31.7939556,43.3225424 31.5114756,43.3225424 C31.2289955,43.3225424 31.0000002,43.0986847 31.0000002,42.8225424 C31.0000002,42.5464 31.2289955,42.3225424 31.5114756,42.3225424 Z M27.4314755,41.3225424 C27.7139556,41.3225424 27.9429509,41.5464 27.9429509,41.8225424 C27.9429509,42.0986847 27.7139556,42.3225424 27.4314755,42.3225424 C27.1489954,42.3225424 26.9200001,42.0986847 26.9200001,41.8225424 C26.9200001,41.5464 27.1489954,41.3225424 27.4314755,41.3225424 Z M34.5114756,41.3225424 C34.7939556,41.3225424 35.022951,41.5464 35.022951,41.8225424 C35.022951,42.0986847 34.7939556,42.3225424 34.5114756,42.3225424 C34.2289955,42.3225424 34.0000002,42.0986847 34.0000002,41.8225424 C34.0000002,41.5464 34.2289955,41.3225424 34.5114756,41.3225424 Z M32.1514756,40.1690167 C32.4339556,40.1690167 32.662951,40.3928743 32.662951,40.6690167 C32.662951,40.9451591 32.4339556,41.1690167 32.1514756,41.1690167 C31.8689955,41.1690167 31.6400001,40.9451591 31.6400001,40.6690167 C31.6400001,40.3928743 31.8689955,40.1690167 32.1514756,40.1690167 Z M29.0048089,39.7845082 C29.2872889,39.7845082 29.5162843,40.0083658 29.5162843,40.2845082 C29.5162843,40.5606505 29.2872889,40.7845082 29.0048089,40.7845082 C28.7223288,40.7845082 28.4933334,40.5606505 28.4933334,40.2845082 C28.4933334,40.0083658 28.7223288,39.7845082 29.0048089,39.7845082 Z M24.2848088,39.3999996 C24.5672889,39.3999996 24.7962842,39.6238572 24.7962842,39.8999996 C24.7962842,40.176142 24.5672889,40.3999996 24.2848088,40.3999996 C24.0023287,40.3999996 23.7733334,40.176142 23.7733334,39.8999996 C23.7733334,39.6238572 24.0023287,39.3999996 24.2848088,39.3999996 Z M40.7653049,35.9528976 C41.626656,35.5524856 42.4904279,35.5160319 43.3232055,35.8513047 C44.1448472,36.1820942 44.7640079,36.7864056 45.1665303,37.6420737 C45.2840763,37.8919488 45.1768023,38.1898024 44.9269272,38.3073483 C44.6770521,38.4248943 44.3791985,38.3176203 44.2616526,38.0677452 C43.9641934,37.4354169 43.5316084,37.0132065 42.9497399,36.7789487 C42.3790073,36.5491742 41.8025152,36.5735038 41.1868484,36.8597058 C40.9364402,36.9761118 40.6390785,36.8674816 40.5226725,36.6170734 C40.4062665,36.3666652 40.5148968,36.0693036 40.7653049,35.9528976 Z M43.25,28 C43.6642136,28 44,28.3357864 44,28.75 L44,34 L42.5,33.1428571 L42.5,28.75 C42.5,28.3357864 42.8357864,28 43.25,28 Z M28.75,28 C29.1642136,28 29.5,28.3357864 29.5,28.75 L29.5,33.25 C29.5,33.6642136 29.1642136,34 28.75,34 C28.3357864,34 28,33.6642136 28,33.25 L28,28.75 C28,28.3357864 28.3357864,28 28.75,28 Z M36.1452018,53.5 C36.4213442,53.5 36.6452018,53.7238576 36.6452018,54 L36.6452018,57 C36.6452018,57.2761424 36.4213442,57.5 36.1452018,57.5 C35.8690595,57.5 35.6452018,57.2761424 35.6452018,57 L35.6452018,54 C35.6452018,53.7238576 35.8690595,53.5 36.1452018,53.5 Z M31.1295969,52.7432738 C31.3936732,52.82401 31.5422997,53.1035358 31.4615635,53.367612 L30.5844483,56.2365263 C30.5037121,56.5006026 30.2241864,56.649229 29.9601101,56.5684928 C29.6960338,56.4877566 29.5474074,56.2082309 29.6281436,55.9441546 L30.5052587,53.0752403 C30.5859949,52.8111641 30.8655207,52.6625376 31.1295969,52.7432738 Z M26.5605065,50.5404616 C26.7894389,50.6948784 26.8498457,51.0056444 26.6954289,51.2345768 L25.0178502,53.7216895 C24.8634333,53.9506219 24.5526673,54.0110287 24.3237349,53.8566119 C24.0948025,53.702195 24.0343957,53.391429 24.1888126,53.1624966 L25.8663913,50.6753839 C26.0208082,50.4464515 26.3315741,50.3860447 26.5605065,50.5404616 Z M22.8446956,47.0876655 C23.0184776,47.3022684 22.9853857,47.6171166 22.7707828,47.7908986 L20.4393449,49.6788598 C20.224742,49.8526418 19.9098938,49.8195499 19.7361117,49.604947 C19.5623297,49.3903441 19.5954216,49.0754959 19.8100245,48.9017138 L22.1414624,47.0137527 C22.3560653,46.8399706 22.6709136,46.8730625 22.8446956,47.0876655 Z M25.0714755,41.7070509 C25.3539555,41.7070509 25.5829509,41.9309085 25.5829509,42.2070509 C25.5829509,42.4831933 25.3539555,42.7070509 25.0714755,42.7070509 C24.7889954,42.7070509 24.5600001,42.4831933 24.5600001,42.2070509 C24.5600001,41.9309085 24.7889954,41.7070509 25.0714755,41.7070509 Z" id="Oval-3" fill="#000000"></path>
        <path d="M36,22 C28.2680135,22 22,28.2680135 22,36 C22,43.7319865 28.2680135,50 36,50 C36.7936067,50 37.5717906,49.9339674 38.3293572,49.8070968 C36.8983342,46.4828604 36.0990216,43.2354853 35.9327489,40.0654185 L35.909,39.499 L34.2,39.5 C32.7817318,39.5 31.5912394,38.2357833 31.5050003,36.7916455 L31.5,36.6242775 C31.5,35.3639904 32.3656208,34.3058439 33.5352478,34.0100896 L33.675,33.979 L33.6775155,33.8549314 C33.8026385,29.6201504 34.805419,25.6926266 36.673469,22.0161562 C36.451072,22.0053628 36.2261623,22 36,22 Z" id="Path" fill="#000000" fill-rule="nonzero" opacity="0.03"></path>
    </g>
</svg>