<svg id="avatar" class="avatar-dark" width="90px" height="90px" viewBox="0 0 90 90" version="1.1" xmlns="http://www.w3.org/2000/svg" xmlns:xlink="http://www.w3.org/1999/xlink">
    <title>avatar.words.dark</title>
    <g id="avatar.words.dark" stroke="none" stroke-width="1" fill="none" fill-rule="evenodd">
        <path d="M45,27.5 C45.2827724,27.5 45.5639784,27.5067067 45.8415465,27.5207623 C43.5039146,32.1215585 42.2506426,37.0359739 42.0964053,42.335305 L42.0964053,42.335305 L42.09375,42.47375 L41.9190598,42.512612 L41.7128587,42.5718326 C40.3564295,43.0088476 39.375,44.2800051 39.375,45.7803468 L39.375,45.7803468 L39.3812503,45.9895569 L39.399752,46.1967708 C39.6039409,47.9139507 41.0453508,49.3749993 42.75,49.3749993 L42.75,49.3749993 L44.8875,49.37375 L44.9136736,50.0380591 L44.9566229,50.7258804 C45.0439128,51.9076564 45.2012026,53.0979557 45.4297911,54.2982731 L45.4297911,54.2982731 L45.7413423,55.7676052 C46.2451558,57.9044231 46.9686,60.0678768 47.9134478,62.2585776 C46.9659376,62.4173575 45.9926199,62.5 45,62.5 C35.3350169,62.5 27.5,54.6649831 27.5,45 C27.5,35.3350169 35.3350169,27.5 45,27.5 Z M42.6583335,59.7989847 C42.2855413,59.7989847 41.9833335,60.1011925 41.9833335,60.4739847 C41.9833335,60.8467769 42.2855413,61.1489847 42.6583335,61.1489847 C43.0311257,61.1489847 43.3333335,60.8467769 43.3333335,60.4739847 C43.3333335,60.1011925 43.0311257,59.7989847 42.6583335,59.7989847 Z M45.6,59.7989847 C45.2272078,59.7989847 44.925,60.1011925 44.925,60.4739847 C44.925,60.8467769 45.2272078,61.1489847 45.6,61.1489847 C45.9727923,61.1489847 46.275,60.8467769 46.275,60.4739847 C46.275,60.1011925 45.9727923,59.7989847 45.6,59.7989847 Z M39.2166668,58.8377133 C38.8438746,58.8377133 38.5416668,59.1399211 38.5416668,59.5127133 C38.5416668,59.8855055 38.8438746,60.1877133 39.2166668,60.1877133 C39.589459,60.1877133 39.8916668,59.8855055 39.8916668,59.5127133 C39.8916668,59.1399211 39.589459,58.8377133 39.2166668,58.8377133 Z M35.7750001,56.9151705 C35.4022079,56.9151705 35.1000001,57.2173783 35.1000001,57.5901705 C35.1000001,57.9629627 35.4022079,58.2651705 35.7750001,58.2651705 C36.1477923,58.2651705 36.4500001,57.9629627 36.4500001,57.5901705 C36.4500001,57.2173783 36.1477923,56.9151705 35.7750001,56.9151705 Z M44.6250002,56.9151705 C44.252208,56.9151705 43.9500002,57.2173783 43.9500002,57.5901705 C43.9500002,57.9629627 44.252208,58.2651705 44.6250002,58.2651705 C44.9977924,58.2651705 45.3000002,57.9629627 45.3000002,57.5901705 C45.3000002,57.2173783 44.9977924,56.9151705 44.6250002,56.9151705 Z M41.6750002,56.9151705 C41.302208,56.9151705 41.0000002,57.2173783 41.0000002,57.5901705 C41.0000002,57.9629627 41.302208,58.2651705 41.6750002,58.2651705 C42.0477924,58.2651705 42.3500002,57.9629627 42.3500002,57.5901705 C42.3500002,57.2173783 42.0477924,56.9151705 41.6750002,56.9151705 Z M38.7250002,55.9538992 C38.352208,55.9538992 38.0500002,56.256107 38.0500002,56.6288992 C38.0500002,57.0016914 38.352208,57.3038992 38.7250002,57.3038992 C39.0977924,57.3038992 39.4000002,57.0016914 39.4000002,56.6288992 C39.4000002,56.256107 39.0977924,55.9538992 38.7250002,55.9538992 Z M33.3166668,54.5119921 C32.9438746,54.5119921 32.6416668,54.8141999 32.6416668,55.1869921 C32.6416668,55.5597843 32.9438746,55.8619921 33.3166668,55.8619921 C33.689459,55.8619921 33.9916668,55.5597843 33.9916668,55.1869921 C33.9916668,54.8141999 33.689459,54.5119921 33.3166668,54.5119921 Z M42.7798361,54.3880333 C42.4070439,54.3880333 42.1048361,54.6902411 42.1048361,55.0630333 C42.1048361,55.4358255 42.4070439,55.7380333 42.7798361,55.7380333 C43.1526283,55.7380333 43.4548361,55.4358255 43.4548361,55.0630333 C43.4548361,54.6902411 43.1526283,54.3880333 42.7798361,54.3880333 Z M36.2666668,54.0313564 C35.8938746,54.0313564 35.5916668,54.3335642 35.5916668,54.7063564 C35.5916668,55.0791486 35.8938746,55.3813564 36.2666668,55.3813564 C36.639459,55.3813564 36.9416668,55.0791486 36.9416668,54.7063564 C36.9416668,54.3335642 36.639459,54.0313564 36.2666668,54.0313564 Z M39.4048363,52.8880337 C39.0320441,52.8880337 38.7298363,53.1902415 38.7298363,53.5630337 C38.7298363,53.9358259 39.0320441,54.2380337 39.4048363,54.2380337 C39.7776285,54.2380337 40.0798363,53.9358259 40.0798363,53.5630337 C40.0798363,53.1902415 39.7776285,52.8880337 39.4048363,52.8880337 Z M31.3500001,52.1088137 C30.9772079,52.1088137 30.6750001,52.4110214 30.6750001,52.7838137 C30.6750001,53.1566059 30.9772079,53.4588137 31.3500001,53.4588137 C31.7227923,53.4588137 32.0250001,53.1566059 32.0250001,52.7838137 C32.0250001,52.4110214 31.7227923,52.1088137 31.3500001,52.1088137 Z M34.3000001,51.628178 C33.9272079,51.628178 33.6250001,51.9303858 33.6250001,52.303178 C33.6250001,52.6759702 33.9272079,52.978178 34.3000001,52.978178 C34.6727923,52.978178 34.9750001,52.6759702 34.9750001,52.303178 C34.9750001,51.9303858 34.6727923,51.628178 34.3000001,51.628178 Z M43.1500002,51.628178 C42.777208,51.628178 42.4750002,51.9303858 42.4750002,52.303178 C42.4750002,52.6759702 42.777208,52.978178 43.1500002,52.978178 C43.5227924,52.978178 43.8250002,52.6759702 43.8250002,52.303178 C43.8250002,51.9303858 43.5227924,51.628178 43.1500002,51.628178 Z M40.2000002,50.1862709 C39.827208,50.1862709 39.5250002,50.4884787 39.5250002,50.8612709 C39.5250002,51.2340631 39.827208,51.5362709 40.2000002,51.5362709 C40.5727924,51.5362709 40.8750002,51.2340631 40.8750002,50.8612709 C40.8750002,50.4884787 40.5727924,50.1862709 40.2000002,50.1862709 Z M36.2666668,49.7056352 C35.8938746,49.7056352 35.5916668,50.007843 35.5916668,50.3806352 C35.5916668,50.7534274 35.8938746,51.0556352 36.2666668,51.0556352 C36.639459,51.0556352 36.9416668,50.7534274 36.9416668,50.3806352 C36.9416668,50.007843 36.639459,49.7056352 36.2666668,49.7056352 Z M30.3666667,49.2249995 C29.9938745,49.2249995 29.6916667,49.5272073 29.6916667,49.8999995 C29.6916667,50.2727917 29.9938745,50.5749995 30.3666667,50.5749995 C30.739459,50.5749995 31.0416667,50.2727917 31.0416667,49.8999995 C31.0416667,49.5272073 30.739459,49.2249995 30.3666667,49.2249995 Z M35.9975,34.875 C35.479733,34.875 35.06,35.294733 35.06,35.8125 L35.06,35.8125 L35.06,41.6875 C35.06,42.205267 35.479733,42.625 35.9975,42.625 C36.515267,42.625 36.935,42.205267 36.935,41.6875 L36.935,41.6875 L36.935,35.8125 C36.935,35.294733 36.515267,34.875 35.9975,34.875 Z" id="Combined-Shape" fill="#000000" fill-rule="nonzero" opacity="0.699999988"></path>
        <path d="M47.1896007,27.6356547 C55.8211403,28.7130519 62.5,36.0765603 62.5,45 C62.5,53.2300856 56.8187168,60.1332364 49.1619144,62.0019268 C48.1998382,59.80217 47.4667007,57.6343377 46.964079,55.4994035 L46.964079,55.4994035 L46.6493533,54.0258364 C46.3137403,52.2431224 46.1393384,50.482738 46.1258484,48.7445384 C46.1231839,48.4012093 45.8440678,48.1243125 45.5007284,48.1243888 L45.5007284,48.1243888 L42.7498611,48.1249992 L42.5829048,48.1167481 C41.5323467,48.013031 40.625,46.9467007 40.625,45.7803468 L40.625,45.7803468 L40.6327983,45.5973991 L40.6557683,45.4187668 C40.8175998,44.4787022 41.5995667,43.7499506 42.5666156,43.6674679 L42.5666156,43.6674679 L42.7691374,43.659389 L42.8980891,43.6445105 L43.011536,43.6099024 C43.3286346,43.4789258 43.4365852,43.1144926 43.33625,42.81125 L43.33625,42.81125 L43.3464422,42.3523812 C43.5022002,37.0955457 44.7763232,32.2402743 47.1586519,27.6950478 L47.1586519,27.6950478 Z M49.5136954,53.4886788 C49.2972098,55.5484011 50.2348702,57.3351334 51.6080184,57.4794571 C52.9811665,57.6237808 54.2698193,56.0710434 54.4863048,54.0113212 C54.7027904,51.9515989 53.76513,50.1648666 52.3919818,50.0205429 C51.0188336,49.8762192 49.7301809,51.4289566 49.5136954,53.4886788 Z M54.1540069,44.8141309 C53.1130349,44.3950399 52.03332,44.440607 50.9566312,44.941122 C50.643621,45.0866295 50.5078332,45.4583315 50.6533407,45.7713417 C50.7988482,46.084352 51.1705502,46.2201397 51.4835604,46.0746323 C52.253144,45.7168798 52.9737592,45.6864677 53.6871749,45.9736859 C54.4145105,46.2665082 54.9552418,46.7942711 55.3270657,47.5846815 C55.4739981,47.8970254 55.8463151,48.0311178 56.158659,47.8841854 C56.4710029,47.7372529 56.6050953,47.3649359 56.4581629,47.0525921 C55.9550099,45.983007 55.181059,45.2276177 54.1540069,44.8141309 Z M53.9975,34.88 C53.479733,34.88 53.06,35.299733 53.06,35.8175 L53.06,35.8175 L53.06,41.4285714 L54.935,42.5 L54.935,35.8175 C54.935,35.299733 54.515267,34.88 53.9975,34.88 Z" id="Combined-Shape" fill="#000000" fill-rule="nonzero" opacity="0.900000036"></path>
        <path d="M49.3830533,20.503254 C49.1202538,20.4569154 48.8832348,20.5091705 48.6660631,20.6612358 C48.4488914,20.813301 48.3187224,21.0181537 48.2723837,21.2809533 C48.2260451,21.5437528 48.2783002,21.7807718 48.4303654,21.9979435 C48.5824307,22.2151152 48.7872834,22.3452843 49.0500829,22.3916229 C49.3128825,22.4379615 49.5499015,22.3857064 49.7670732,22.2336412 C49.9842449,22.0815759 50.1144139,21.8767232 50.1607526,21.6139237 C50.2070912,21.3511241 50.1548361,21.1141051 50.0027708,20.8969334 C49.8507056,20.6797617 49.6458529,20.5495927 49.3830533,20.503254 Z M41.3447464,11.8737494 L41.3211217,14.4177543 L41.2252277,14.5167066 L40.0668224,14.5640714 L40.1010413,15.8743897 L41.2443566,15.8388865 L41.3474785,15.941447 L41.3013408,17.7084017 L41.205017,17.8057251 L39.8691543,17.8540903 L39.9253075,19.0872536 L41.082448,19.0405793 L41.1865464,19.1412643 L41.1624877,22.2232359 L42.1896061,22.2559113 L42.2160061,19.1222205 L42.309967,19.0232207 L43.2020291,18.9692796 L43.3080616,19.0699062 L43.284462,21.9542565 L44.3115805,21.9869319 L44.334663,19.0374283 L44.4303776,18.9382828 L45.5992089,18.887626 L45.5417741,17.653865 L44.4160365,17.699619 L44.3120064,17.5972714 L44.3552853,15.8168671 L44.4517797,15.7193576 L45.7764802,15.6731383 L45.7416636,14.3641017 L44.5735196,14.4143948 L44.4692407,14.3136322 L44.4919563,11.6264247 L43.4667207,11.60477 L43.4426377,14.3463011 L43.3486776,14.4452105 L42.4566156,14.4991517 L42.350583,14.3985417 L42.36964,11.8944644 L41.3447464,11.8737494 Z M49.6372733,13.1877841 L49.2991563,14.4750591 L49.5118102,14.4286105 C49.8182673,14.3704495 50.1243073,14.3480904 50.4297751,14.3615415 L50.6587661,14.3783442 L50.9446809,14.4182332 C51.3982172,14.4982038 51.7440454,14.6653534 51.9788557,14.9217756 C52.2188568,15.1838663 52.3064434,15.5062135 52.2406713,15.8792253 C52.1814226,16.2152413 52.0488915,16.4829735 51.8423817,16.6791548 C51.6408254,16.8706305 51.396885,17.0100098 51.1117887,17.0970649 C50.832174,17.1824462 50.5243307,17.2288512 50.1884106,17.2365325 L49.8568019,17.237728 L49.5228979,17.2261207 L49.2830459,17.2084104 L48.9099735,19.3235683 L50.2027693,19.5511298 L50.3984696,18.4445534 L50.4955354,18.3619282 L50.7539518,18.3583082 C51.0135238,18.3475766 51.283625,18.3154842 51.5642579,18.2619805 C51.9346309,18.1913675 52.2797826,18.0689485 52.6000821,17.8946746 C52.9184288,17.7214632 53.1972168,17.4918531 53.4368879,17.2053485 C53.6727867,16.9233532 53.8293307,16.5658198 53.9060044,16.1309821 C53.9672323,15.7837414 53.9566273,15.4518428 53.8744735,15.1343467 C53.7923102,14.8168141 53.6450454,14.5281018 53.4321236,14.2673721 C53.2190267,14.0064282 52.9375868,13.7841543 52.5869496,13.6006718 C52.2344055,13.4161914 51.8147905,13.2807959 51.3279245,13.1949482 C50.9290452,13.1246151 50.5783963,13.0992097 50.2763077,13.1183584 L50.1011448,13.130972 L49.8045036,13.1617457 L49.6372733,13.1877841 Z M27.0699652,15.9837924 L26.8277245,16.0801804 L26.5914143,16.187896 C26.0522361,16.4513331 25.5985073,16.7994864 25.229431,17.2326141 C24.8062503,17.7292357 24.5000837,18.2880396 24.3105045,18.9097725 C24.1206145,19.5325247 24.0518295,20.1996711 24.1043994,20.9117988 C24.1570406,21.624892 24.3315583,22.3306854 24.6282052,23.0295416 C24.9711938,23.8375723 25.3766482,24.4866822 25.8438828,24.9773171 C26.3106482,25.4674595 26.8115071,25.8218625 27.3466352,26.0414774 C27.8817588,26.2610904 28.4339738,26.3565121 29.0043134,26.3279823 C29.5774662,26.2993117 30.1453849,26.16561 30.708521,25.9265728 C30.9953907,25.8048039 31.3107026,25.6125179 31.6538293,25.3495101 C31.8791402,25.1768084 32.0701547,24.9825077 32.2261618,24.7681236 L32.3365922,24.6035936 L32.4000098,24.4920033 L31.5848164,23.7404943 L31.5137353,23.8529217 C31.4639545,23.9242511 31.4088777,23.9942947 31.3485202,24.0630592 L31.2540251,24.1652477 L31.0974549,24.3149442 C30.8752737,24.5130798 30.5655428,24.6958526 30.1680978,24.864558 C29.776807,25.0306511 29.3770058,25.1181117 28.9693155,25.1266416 C28.5589181,25.1352281 28.1597029,25.0484349 27.7727899,24.8667398 C27.3868375,24.6854958 27.0197571,24.4004265 26.6713213,24.0124244 C26.3234517,23.6250527 26.0171164,23.1184762 25.7515929,22.492942 C25.5254145,21.9600992 25.3895357,21.4187319 25.3441744,20.8691838 C25.2987707,20.3191206 25.341504,19.8018202 25.4726366,19.3177439 C25.6040547,18.832614 25.8168844,18.3992482 26.1109584,18.0183876 C26.4074954,17.6343372 26.787924,17.3436733 27.2507746,17.1472048 C27.7311365,16.9433033 28.1534879,16.8707974 28.5178927,16.9327239 C28.8223794,16.9844681 29.0573205,17.1777792 29.2210181,17.5059385 L29.2790619,17.6353061 L29.33302,17.786117 L29.5598531,18.4964546 L29.4844162,18.6248898 L29.3227115,18.6575589 L29.2087817,18.6857796 L28.9631772,18.7582971 C28.7688919,18.8211259 28.5887666,18.8877767 28.4228157,18.9582187 C28.1222857,19.0857861 27.8652825,19.2569902 27.6511024,19.4719901 C27.4367648,19.6871481 27.2731906,19.9305332 27.1598852,20.2026905 C27.0466878,20.4745884 26.9904344,20.7627535 26.9911074,21.0679665 C26.9917792,21.3726601 27.0573652,21.6790059 27.1883681,21.9876293 C27.3127634,22.2806861 27.4642627,22.5195109 27.6424304,22.704669 C27.8201044,22.889314 28.0102248,23.0221316 28.2130073,23.1040611 C28.4166466,23.1863367 28.6295059,23.2246946 28.852432,23.2192282 C29.0763485,23.2137374 29.2918873,23.1669708 29.4996966,23.0787609 C29.9158995,22.9020933 30.2412397,22.6460161 30.4763677,22.3118797 L30.7096564,21.9527278 L30.7982549,21.91512 L30.9033152,21.9320326 L31.4576405,22.4203783 L32.4414504,21.608961 L32.3511843,21.5709119 L32.2393516,21.5080084 L32.1299107,21.43066 L32.0228435,21.3389459 C31.9356021,21.2574852 31.8606784,21.1580358 31.7972863,21.0393778 L31.737709,20.9142717 L31.6896212,20.7865244 L30.4431614,17.1818997 L30.3667463,16.9844128 C30.2353138,16.6747771 30.0704102,16.4264581 29.8724583,16.2385993 C29.6344154,16.0126937 29.3615577,15.8593578 29.052599,15.7776897 C28.7409713,15.6953161 28.3949647,15.6816647 28.0140076,15.7374006 C27.7059599,15.7824695 27.3912889,15.864562 27.0699652,15.9837924 Z M36.1161088,21.149502 C35.8560946,21.209531 35.6583351,21.3502427 35.5178442,21.5750753 C35.3773532,21.7999079 35.3375743,22.0393369 35.3976033,22.2993511 C35.4576323,22.5593653 35.5983441,22.7571247 35.8231767,22.8976157 C36.0480092,23.0381067 36.2874382,23.0778856 36.5474524,23.0178566 C36.8074666,22.9578276 37.0052261,22.8171158 37.1457171,22.5922832 C37.286208,22.3674506 37.3259869,22.1280216 37.2659579,21.8680074 C37.2059289,21.6079932 37.0652171,21.4102338 36.8403846,21.2697428 C36.615552,21.1292518 36.376123,21.089473 36.1161088,21.149502 Z M42.2647555,15.7955406 L43.4375526,15.7760701 L43.5391785,15.8786665 L43.4930407,17.6456212 L43.3947348,17.7429972 L42.2219383,17.7624685 L42.1203124,17.659872 L42.1664496,15.8929166 L42.2647555,15.7955406 Z M33.5941894,14.2094563 L34.5341082,17.2151189 L35.3888966,20.1520102 L36.3841554,19.9217236 L35.8636627,16.8933346 L35.3543027,13.8029466 L33.5941894,14.2094563 Z M29.2707062,19.7275457 L29.4316767,19.6805467 L29.8608753,19.5655812 L29.9819845,19.6316759 L30.4244598,21.1572395 L30.3015829,21.3136804 C30.2127852,21.417156 30.1135377,21.5146073 30.0038982,21.6060249 C29.8386029,21.7438484 29.6753678,21.8472196 29.5139041,21.9157569 C29.2854275,22.0127394 29.0626236,22.041705 28.8475622,22.0011074 C28.6161947,21.9574316 28.4400816,21.7885368 28.3205892,21.5070304 C28.1560734,21.1194555 28.142794,20.7739363 28.2861211,20.4765417 C28.4265961,20.1850651 28.6574609,19.9707797 28.9747101,19.8361154 C29.0676346,19.7966712 29.1662835,19.7604921 29.2707062,19.7275457 Z" id="Shape" fill="#000000" fill-rule="nonzero" opacity="0.400000006"></path>
    </g>
</svg>