<?xml version="1.0" encoding="UTF-8"?>
<svg width="72px" height="72px" viewBox="0 0 72 72" version="1.1" xmlns="http://www.w3.org/2000/svg" xmlns:xlink="http://www.w3.org/1999/xlink">
    <title>avatar.404</title>
    <g id="avatar.404" stroke="none" stroke-width="1" fill="none" fill-rule="evenodd">
        <g id="Group-2" transform="translate(21.000000, 21.000000)" fill="#000000" fill-rule="nonzero">
            <path d="M15,0 C15.482496,0 15.9596713,0.0227809587 16.4305088,0.0673259528 L16.9668217,0.127788442 L17.2686772,0.170447146 C24.4766203,1.26416526 30,7.48705541 30,15 C30,22.1931168 24.9368738,28.2036771 18.1800658,29.6622366 L17.9240548,29.7151487 C16.9783628,29.9020226 16.0006233,30 15,30 C6.71572875,30 0,23.2842712 0,15 C0,6.71572875 6.71572875,0 15,0 Z M15,1 C7.2680135,1 1,7.2680135 1,15 C1,22.7319865 7.2680135,29 15,29 C15.7940959,29 16.5727501,28.933886 17.3307583,28.8068621 C16.57488,27.0543014 15.9961246,25.3235385 15.5930739,23.6140841 C13.1570604,23.9873425 10.7703027,23.1586999 9.35414672,21.4613964 C9.1418547,21.2069583 9.17602083,20.8285988 9.43045891,20.6163068 C9.68489699,20.4040147 10.0632565,20.4381809 10.2755485,20.692619 C11.4016774,22.0423168 13.3357729,22.7240805 15.3438329,22.4386185 C15.160962,21.4783646 15.0351302,20.5261251 14.9652983,19.5807043 L14.9309389,19.0304473 L14.91,18.499 L13.2,18.5 C11.8362806,18.5 10.6831527,17.3311605 10.5198016,15.9574166 L10.5050003,15.7916455 L10.5,15.6242775 C10.5,14.4240041 11.2851436,13.4070781 12.370287,13.0574661 L12.5352478,13.0100896 L12.675,12.979 L12.6771243,12.868244 C12.8005141,8.62877912 13.8031317,4.69724682 15.6732372,1.01660985 C15.4511827,1.0053654 15.2262179,1 15,1 Z M16.7516806,1.10852374 L16.7269215,1.15603827 C14.8210586,4.79221941 13.8017601,8.67643656 13.6771537,12.8819049 L13.669,13.249 C13.7492681,13.491594 13.6629077,13.7831407 13.4092288,13.8879219 L13.3184712,13.9156084 L13.2153099,13.9275112 L13.0532925,13.9339743 C12.2796534,13.9999605 11.6540799,14.5829617 11.5246146,15.3350134 L11.5062386,15.4779192 L11.5,15.6242775 C11.5,16.5573606 12.2258774,17.4104248 13.0663238,17.4933985 L13.1998889,17.4999994 L15.4005827,17.499511 C15.6752542,17.49945 15.8985471,17.7209674 15.9006787,17.9956307 C15.9114707,19.3861904 16.0509923,20.7944979 16.3194827,22.2206691 C18.1302631,21.6712757 19.5346808,20.3686299 20.0416225,18.7942141 C20.1431847,18.4787909 20.4812181,18.3054224 20.7966413,18.4069846 C21.1120644,18.5085468 21.285433,18.8465802 21.1838708,19.1620034 C20.5431182,21.1519973 18.7932875,22.7557749 16.5712632,23.3995228 C16.9733605,25.1074702 17.5598705,26.841736 18.3295315,28.6015414 C24.4549734,27.1065891 29,21.5840685 29,15 C29,7.86124824 23.6569122,1.9704415 16.7516806,1.10852374 Z M13.1181422,26.8591877 C13.4006223,26.8591877 13.6296176,27.0830454 13.6296176,27.3591877 C13.6296176,27.6353301 13.4006223,27.8591877 13.1181422,27.8591877 C12.8356622,27.8591877 12.6066668,27.6353301 12.6066668,27.3591877 C12.6066668,27.0830454 12.8356622,26.8591877 13.1181422,26.8591877 Z M15.46,26.8591877 C15.7361424,26.8591877 15.96,27.0830454 15.96,27.3591877 C15.96,27.6353301 15.7361424,27.8591877 15.46,27.8591877 C15.1838577,27.8591877 14.96,27.6353301 14.96,27.3591877 C14.96,27.0830454 15.1838577,26.8591877 15.46,26.8591877 Z M10.3648089,26.0901706 C10.6472889,26.0901706 10.8762843,26.3140283 10.8762843,26.5901706 C10.8762843,26.866313 10.6472889,27.0901706 10.3648089,27.0901706 C10.0823288,27.0901706 9.85333347,26.866313 9.85333347,26.5901706 C9.85333347,26.3140283 10.0823288,26.0901706 10.3648089,26.0901706 Z M7.61147552,24.5521364 C7.89395558,24.5521364 8.12295093,24.7759941 8.12295093,25.0521364 C8.12295093,25.3282788 7.89395558,25.5521364 7.61147552,25.5521364 C7.32899545,25.5521364 7.10000011,25.3282788 7.10000011,25.0521364 C7.10000011,24.7759941 7.32899545,24.5521364 7.61147552,24.5521364 Z M14.6914756,24.5521364 C14.9739557,24.5521364 15.202951,24.7759941 15.202951,25.0521364 C15.202951,25.3282788 14.9739557,25.5521364 14.6914756,25.5521364 C14.4089955,25.5521364 14.1800002,25.3282788 14.1800002,25.0521364 C14.1800002,24.7759941 14.4089955,24.5521364 14.6914756,24.5521364 Z M12.3314756,24.5521364 C12.6139556,24.5521364 12.842951,24.7759941 12.842951,25.0521364 C12.842951,25.3282788 12.6139556,25.5521364 12.3314756,25.5521364 C12.0489955,25.5521364 11.8200002,25.3282788 11.8200002,25.0521364 C11.8200002,24.7759941 12.0489955,24.5521364 12.3314756,24.5521364 Z M9.97147554,23.7831193 C10.2539556,23.7831193 10.4829509,24.006977 10.4829509,24.2831193 C10.4829509,24.5592617 10.2539556,24.7831193 9.97147554,24.7831193 C9.68899547,24.7831193 9.46000013,24.5592617 9.46000013,24.2831193 C9.46000013,24.006977 9.68899547,23.7831193 9.97147554,23.7831193 Z M5.64480883,22.6295937 C5.9272889,22.6295937 6.15628424,22.8534513 6.15628424,23.1295937 C6.15628424,23.4057361 5.9272889,23.6295937 5.64480883,23.6295937 C5.36232876,23.6295937 5.13333342,23.4057361 5.13333342,23.1295937 C5.13333342,22.8534513 5.36232876,22.6295937 5.64480883,22.6295937 Z M8.00480885,22.2450851 C8.28728892,22.2450851 8.51628426,22.4689428 8.51628426,22.7450851 C8.51628426,23.0212275 8.28728892,23.2450851 8.00480885,23.2450851 C7.72232878,23.2450851 7.49333344,23.0212275 7.49333344,22.7450851 C7.49333344,22.4689428 7.72232878,22.2450851 8.00480885,22.2450851 Z M4.07147548,20.7070509 C4.35395555,20.7070509 4.58295089,20.9309085 4.58295089,21.2070509 C4.58295089,21.4831933 4.35395555,21.7070509 4.07147548,21.7070509 C3.78899541,21.7070509 3.56000007,21.4831933 3.56000007,21.2070509 C3.56000007,20.9309085 3.78899541,20.7070509 4.07147548,20.7070509 Z M6.4314755,20.3225424 C6.71395557,20.3225424 6.94295091,20.5464 6.94295091,20.8225424 C6.94295091,21.0986847 6.71395557,21.3225424 6.4314755,21.3225424 C6.14899544,21.3225424 5.92000009,21.0986847 5.92000009,20.8225424 C5.92000009,20.5464 6.14899544,20.3225424 6.4314755,20.3225424 Z M13.5114756,20.3225424 C13.7939556,20.3225424 14.022951,20.5464 14.022951,20.8225424 C14.022951,21.0986847 13.7939556,21.3225424 13.5114756,21.3225424 C13.2289955,21.3225424 13.0000002,21.0986847 13.0000002,20.8225424 C13.0000002,20.5464 13.2289955,20.3225424 13.5114756,20.3225424 Z M11.1514756,19.1690167 C11.4339556,19.1690167 11.662951,19.3928743 11.662951,19.6690167 C11.662951,19.9451591 11.4339556,20.1690167 11.1514756,20.1690167 C10.8689955,20.1690167 10.6400001,19.9451591 10.6400001,19.6690167 C10.6400001,19.3928743 10.8689955,19.1690167 11.1514756,19.1690167 Z M8.00480885,18.7845082 C8.28728892,18.7845082 8.51628426,19.0083658 8.51628426,19.2845082 C8.51628426,19.5606505 8.28728892,19.7845082 8.00480885,19.7845082 C7.72232878,19.7845082 7.49333344,19.5606505 7.49333344,19.2845082 C7.49333344,19.0083658 7.72232878,18.7845082 8.00480885,18.7845082 Z M3.28480881,18.3999996 C3.56728888,18.3999996 3.79628422,18.6238572 3.79628422,18.8999996 C3.79628422,19.176142 3.56728888,19.3999996 3.28480881,19.3999996 C3.00232874,19.3999996 2.7733334,19.176142 2.7733334,18.8999996 C2.7733334,18.6238572 3.00232874,18.3999996 3.28480881,18.3999996 Z M22.3232055,14.8513047 C23.1448472,15.1820942 23.7640079,15.7864056 24.1665303,16.6420737 C24.2840763,16.8919488 24.1768023,17.1898024 23.9269272,17.3073483 C23.6770521,17.4248943 23.3791985,17.3176203 23.2616526,17.0677452 C22.9641934,16.4354169 22.5316084,16.0132065 21.9497399,15.7789487 C21.3790073,15.5491742 20.8025152,15.5735038 20.1868484,15.8597058 C19.9364402,15.9761118 19.6390785,15.8674816 19.5226725,15.6170734 C19.4062665,15.3666652 19.5148968,15.0693036 19.7653049,14.9528976 C20.626656,14.5524856 21.4904279,14.5160319 22.3232055,14.8513047 Z M22.25,7 C22.6642136,7 23,7.33578644 23,7.75 L23,13 L21.5,12.1428571 L21.5,7.75 C21.5,7.33578644 21.8357864,7 22.25,7 Z M7.75,7 C8.16421356,7 8.5,7.33578644 8.5,7.75 L8.5,12.25 C8.5,12.6642136 8.16421356,13 7.75,13 C7.33578644,13 7,12.6642136 7,12.25 L7,7.75 C7,7.33578644 7.33578644,7 7.75,7 Z" id="Shape"></path>
            <path d="M15,1 C7.2680135,1 1,7.2680135 1,15 C1,22.7319865 7.2680135,29 15,29 C15.7940959,29 16.5727501,28.933886 17.3307583,28.8068621 C16.57488,27.0543014 15.9961246,25.3235385 15.5930739,23.6140841 C13.1570604,23.9873425 10.7703027,23.1586999 9.35414672,21.4613964 C9.1418547,21.2069583 9.17602083,20.8285988 9.43045891,20.6163068 C9.68489699,20.4040147 10.0632565,20.4381809 10.2755485,20.692619 C11.4016774,22.0423168 13.3357729,22.7240805 15.3438329,22.4386185 C15.160962,21.4783646 15.0351302,20.5261251 14.9652983,19.5807043 L14.9309389,19.0304473 L14.91,18.499 L13.2,18.5 C11.8362806,18.5 10.6831527,17.3311605 10.5198016,15.9574166 L10.5050003,15.7916455 L10.5,15.6242775 C10.5,14.4240041 11.2851436,13.4070781 12.370287,13.0574661 L12.5352478,13.0100896 L12.675,12.979 L12.6771243,12.868244 C12.8005141,8.62877912 13.8031317,4.69724682 15.6732372,1.01660985 C15.4511827,1.0053654 15.2262179,1 15,1 Z" id="Path" opacity="0.03"></path>
        </g>
        <path d="M32.9280617,17.3442301 C33.1130563,17.4936924 33.2227355,17.6906788 33.2570992,17.9351894 C33.2901902,18.1706441 33.2390566,18.3902313 33.1036985,18.5939511 C32.9683403,18.7976708 32.7779357,18.9167787 32.5324847,18.9512746 C32.2954975,18.9845809 32.0820724,18.9245364 31.8922094,18.7711409 C31.7023465,18.6177454 31.5908696,18.4233203 31.5577786,18.1878656 C31.5234148,17.943355 31.5742302,17.7215038 31.7102247,17.522312 C31.8462193,17.3231202 32.036942,17.2062764 32.2823931,17.1717805 C32.5278442,17.1372846 32.743067,17.1947678 32.9280617,17.3442301 Z M39.0838572,17.1540977 L39.203908,17.1655889 C39.4487196,17.2043633 39.6377318,17.3222598 39.7709445,17.5192785 C39.9041572,17.7162972 39.9514507,17.9367434 39.9128249,18.180617 C39.8756297,18.4154583 39.7625293,18.6105006 39.5735238,18.7657439 C39.3845183,18.9209872 39.1676097,18.9792216 38.922798,18.9404473 C38.6864282,18.90301 38.4998841,18.7831896 38.3631658,18.5809862 C38.2264475,18.3787828 38.1766859,18.1602605 38.2138811,17.9254192 C38.2525069,17.6815455 38.3659649,17.4842451 38.5542552,17.333518 C38.7425454,17.182791 38.9590963,17.1268146 39.203908,17.1655889 Z M39.5359442,9.08651396 C39.8661724,9.02308022 40.2085639,9.01944133 40.5631187,9.07559729 C40.9176735,9.13175325 41.2404299,9.23842648 41.5313879,9.39561698 C41.8223458,9.55280748 42.0692004,9.75625159 42.2719515,10.0059493 C42.4747026,10.255647 42.6189348,10.5470004 42.7046481,10.8800095 C42.7903614,11.2130186 42.8010299,11.5827512 42.7366536,11.9892073 C42.6908749,12.2782428 42.6212723,12.5264692 42.5278458,12.7338864 C42.4344193,12.9413037 42.3209967,13.1247213 42.187578,13.2841392 C42.0541594,13.4435571 41.899314,13.5880076 41.723042,13.7174909 C41.54677,13.8469741 41.3571201,13.978968 41.1540921,14.1134724 C40.9609366,14.2402816 40.7956099,14.3552952 40.6581121,14.4585134 C40.5206142,14.5617316 40.4080841,14.671219 40.3205217,14.7869756 C40.2329592,14.9027323 40.1622449,15.0350458 40.1083788,15.1839162 C40.0545126,15.3327867 40.0096972,15.5201263 39.9739326,15.7459353 L39.9739326,15.7459353 L39.8988269,16.2201341 L38.7085358,16.0316105 L38.8115379,15.3812807 L38.8427208,15.2100104 C38.8771902,15.0436007 38.9215191,14.891773 38.9757075,14.7545273 C39.0479587,14.5715331 39.1363427,14.4096118 39.2408596,14.2687637 C39.3453764,14.1279156 39.4657039,13.9965158 39.601842,13.8745644 C39.7379801,13.7526129 39.889249,13.6307433 40.0556486,13.5089553 L40.0556486,13.5089553 L40.5992732,13.1089626 L40.7534822,12.998409 C40.9022249,12.8839514 41.0345691,12.7577823 41.1505146,12.6199017 C41.3051085,12.4360608 41.4074408,12.1860741 41.4575112,11.8699416 C41.5261793,11.4363884 41.452162,11.0705107 41.2354594,10.7723086 C41.0187568,10.4741065 40.7078027,10.2929163 40.3025972,10.228738 C39.8805082,10.1618857 39.5199476,10.2529216 39.2209155,10.5018456 C38.9218833,10.7507697 38.7183594,11.0796333 38.6103435,11.4884365 L38.6103435,11.4884365 L37.4183318,11.1468679 L37.4914863,10.9242958 C37.5968322,10.6350656 37.7334048,10.3759655 37.9012041,10.1469956 C38.1109531,9.86078309 38.35329,9.62834148 38.6282148,9.44967072 C38.9031395,9.27099996 39.205716,9.14994771 39.5359442,9.08651396 Z M31.7914816,9.16492348 L32.7479387,15.9704695 L31.49106,16.1471123 L30.5346029,9.34156627 L31.7914816,9.16492348 Z" id="Combined-Shape" fill="#000000" fill-rule="nonzero"></path>
    </g>
</svg>