<svg id="avatar" class="avatar-dark" width="90px" height="90px" viewBox="0 0 90 90" version="1.1" xmlns="http://www.w3.org/2000/svg" xmlns:xlink="http://www.w3.org/1999/xlink">
    <title>avatar.private.dark</title>
    <g id="avatar.private.dark" stroke="none" stroke-width="1" fill="none" fill-rule="evenodd">
        <path d="M45,27.5 C45.2827724,27.5 45.5639784,27.5067067 45.8415465,27.5207623 C43.5039146,32.1215585 42.2506426,37.0359739 42.0964053,42.335305 L42.0964053,42.335305 L42.09375,42.47375 L41.9190598,42.512612 L41.7128587,42.5718326 C40.3564295,43.0088476 39.375,44.2800051 39.375,45.7803468 L39.375,45.7803468 L39.3812503,45.9895569 L39.399752,46.1967708 C39.6039409,47.9139507 41.0453508,49.3749993 42.75,49.3749993 L42.75,49.3749993 L44.8875,49.37375 L44.9136736,50.0380591 L44.9566229,50.7258804 C45.0439128,51.9076564 45.2012026,53.0979557 45.4297911,54.2982731 C42.9197161,54.6551006 40.5020968,53.802896 39.0944357,52.1157737 C38.8290706,51.7977261 38.3561212,51.7550184 38.0380736,52.0203835 C37.720026,52.2857485 37.6773184,52.7586979 37.9426834,53.0767455 C39.7128783,55.1983749 42.6963255,56.2341781 45.7413423,55.7676052 C46.2451558,57.9044231 46.9686,60.0678768 47.9134478,62.2585776 C46.9659376,62.4173575 45.9926199,62.5 45,62.5 C35.3350169,62.5 27.5,54.6649831 27.5,45 C27.5,35.3350169 35.3350169,27.5 45,27.5 Z M42.6583335,59.7989847 C42.2855413,59.7989847 41.9833335,60.1011925 41.9833335,60.4739847 C41.9833335,60.8467769 42.2855413,61.1489847 42.6583335,61.1489847 C43.0311257,61.1489847 43.3333335,60.8467769 43.3333335,60.4739847 C43.3333335,60.1011925 43.0311257,59.7989847 42.6583335,59.7989847 Z M45.6,59.7989847 C45.2272078,59.7989847 44.925,60.1011925 44.925,60.4739847 C44.925,60.8467769 45.2272078,61.1489847 45.6,61.1489847 C45.9727923,61.1489847 46.275,60.8467769 46.275,60.4739847 C46.275,60.1011925 45.9727923,59.7989847 45.6,59.7989847 Z M39.2166668,58.8377133 C38.8438746,58.8377133 38.5416668,59.1399211 38.5416668,59.5127133 C38.5416668,59.8855055 38.8438746,60.1877133 39.2166668,60.1877133 C39.589459,60.1877133 39.8916668,59.8855055 39.8916668,59.5127133 C39.8916668,59.1399211 39.589459,58.8377133 39.2166668,58.8377133 Z M35.7750001,56.9151705 C35.4022079,56.9151705 35.1000001,57.2173783 35.1000001,57.5901705 C35.1000001,57.9629627 35.4022079,58.2651705 35.7750001,58.2651705 C36.1477923,58.2651705 36.4500001,57.9629627 36.4500001,57.5901705 C36.4500001,57.2173783 36.1477923,56.9151705 35.7750001,56.9151705 Z M44.6250002,56.9151705 C44.252208,56.9151705 43.9500002,57.2173783 43.9500002,57.5901705 C43.9500002,57.9629627 44.252208,58.2651705 44.6250002,58.2651705 C44.9977924,58.2651705 45.3000002,57.9629627 45.3000002,57.5901705 C45.3000002,57.2173783 44.9977924,56.9151705 44.6250002,56.9151705 Z M41.6750002,56.9151705 C41.302208,56.9151705 41.0000002,57.2173783 41.0000002,57.5901705 C41.0000002,57.9629627 41.302208,58.2651705 41.6750002,58.2651705 C42.0477924,58.2651705 42.3500002,57.9629627 42.3500002,57.5901705 C42.3500002,57.2173783 42.0477924,56.9151705 41.6750002,56.9151705 Z M38.7250002,55.9538992 C38.352208,55.9538992 38.0500002,56.256107 38.0500002,56.6288992 C38.0500002,57.0016914 38.352208,57.3038992 38.7250002,57.3038992 C39.0977924,57.3038992 39.4000002,57.0016914 39.4000002,56.6288992 C39.4000002,56.256107 39.0977924,55.9538992 38.7250002,55.9538992 Z M33.3166668,54.5119921 C32.9438746,54.5119921 32.6416668,54.8141999 32.6416668,55.1869921 C32.6416668,55.5597843 32.9438746,55.8619921 33.3166668,55.8619921 C33.689459,55.8619921 33.9916668,55.5597843 33.9916668,55.1869921 C33.9916668,54.8141999 33.689459,54.5119921 33.3166668,54.5119921 Z M36.2666668,54.0313564 C35.8938746,54.0313564 35.5916668,54.3335642 35.5916668,54.7063564 C35.5916668,55.0791486 35.8938746,55.3813564 36.2666668,55.3813564 C36.639459,55.3813564 36.9416668,55.0791486 36.9416668,54.7063564 C36.9416668,54.3335642 36.639459,54.0313564 36.2666668,54.0313564 Z M31.3500001,52.1088137 C30.9772079,52.1088137 30.6750001,52.4110214 30.6750001,52.7838137 C30.6750001,53.1566059 30.9772079,53.4588137 31.3500001,53.4588137 C31.7227923,53.4588137 32.0250001,53.1566059 32.0250001,52.7838137 C32.0250001,52.4110214 31.7227923,52.1088137 31.3500001,52.1088137 Z M34.3000001,51.628178 C33.9272079,51.628178 33.6250001,51.9303858 33.6250001,52.303178 C33.6250001,52.6759702 33.9272079,52.978178 34.3000001,52.978178 C34.6727923,52.978178 34.9750001,52.6759702 34.9750001,52.303178 C34.9750001,51.9303858 34.6727923,51.628178 34.3000001,51.628178 Z M43.1500002,51.628178 C42.777208,51.628178 42.4750002,51.9303858 42.4750002,52.303178 C42.4750002,52.6759702 42.777208,52.978178 43.1500002,52.978178 C43.5227924,52.978178 43.8250002,52.6759702 43.8250002,52.303178 C43.8250002,51.9303858 43.5227924,51.628178 43.1500002,51.628178 Z M40.2000002,50.1862709 C39.827208,50.1862709 39.5250002,50.4884787 39.5250002,50.8612709 C39.5250002,51.2340631 39.827208,51.5362709 40.2000002,51.5362709 C40.5727924,51.5362709 40.8750002,51.2340631 40.8750002,50.8612709 C40.8750002,50.4884787 40.5727924,50.1862709 40.2000002,50.1862709 Z M36.2666668,49.7056352 C35.8938746,49.7056352 35.5916668,50.007843 35.5916668,50.3806352 C35.5916668,50.7534274 35.8938746,51.0556352 36.2666668,51.0556352 C36.639459,51.0556352 36.9416668,50.7534274 36.9416668,50.3806352 C36.9416668,50.007843 36.639459,49.7056352 36.2666668,49.7056352 Z M30.3666667,49.2249995 C29.9938745,49.2249995 29.6916667,49.5272073 29.6916667,49.8999995 C29.6916667,50.2727917 29.9938745,50.5749995 30.3666667,50.5749995 C30.739459,50.5749995 31.0416667,50.2727917 31.0416667,49.8999995 C31.0416667,49.5272073 30.739459,49.2249995 30.3666667,49.2249995 Z M35.9975,34.875 C35.479733,34.875 35.06,35.294733 35.06,35.8125 L35.06,35.8125 L35.06,41.6875 C35.06,42.205267 35.479733,42.625 35.9975,42.625 C36.515267,42.625 36.935,42.205267 36.935,41.6875 L36.935,41.6875 L36.935,35.8125 C36.935,35.294733 36.515267,34.875 35.9975,34.875 Z" id="Combined-Shape" fill="#000000" fill-rule="nonzero" opacity="0.699999988"></path>
        <path d="M47.1896007,27.6356547 C55.8211403,28.7130519 62.5,36.0765603 62.5,45 C62.5,53.2300856 56.8187168,60.1332364 49.1619144,62.0019268 C48.1998382,59.80217 47.4667007,57.6343377 46.964079,55.4994035 C49.7416093,54.6947186 51.9288978,52.6899967 52.7298384,50.2025042 C52.8567912,49.8082253 52.6400805,49.3856835 52.2458016,49.2587308 C51.8515227,49.131778 51.4289809,49.3484887 51.3020281,49.7427676 C50.668351,51.7107874 48.9128289,53.3390946 46.6493533,54.0258364 C46.3137403,52.2431224 46.1393384,50.482738 46.1258484,48.7445384 C46.1231839,48.4012093 45.8440678,48.1243125 45.5007284,48.1243888 L45.5007284,48.1243888 L42.7498611,48.1249992 L42.5829048,48.1167481 C41.5323467,48.013031 40.625,46.9467007 40.625,45.7803468 L40.625,45.7803468 L40.6327983,45.5973991 L40.6557683,45.4187668 C40.8175998,44.4787022 41.5995667,43.7499506 42.5666156,43.6674679 L42.5666156,43.6674679 L42.7691374,43.659389 L42.8980891,43.6445105 L43.011536,43.6099024 C43.3286346,43.4789258 43.4365852,43.1144926 43.33625,42.81125 L43.33625,42.81125 L43.3464422,42.3523812 C43.5022002,37.0955457 44.7763232,32.2402743 47.1586519,27.6950478 L47.1586519,27.6950478 Z M54.1540069,44.8141309 C53.1130349,44.3950399 52.03332,44.440607 50.9566312,44.941122 C50.643621,45.0866295 50.5078332,45.4583315 50.6533407,45.7713417 C50.7988482,46.084352 51.1705502,46.2201397 51.4835604,46.0746323 C52.253144,45.7168798 52.9737592,45.6864677 53.6871749,45.9736859 C54.4145105,46.2665082 54.9552418,46.7942711 55.3270657,47.5846815 C55.4739981,47.8970254 55.8463151,48.0311178 56.158659,47.8841854 C56.4710029,47.7372529 56.6050953,47.3649359 56.4581629,47.0525921 C55.9550099,45.983007 55.181059,45.2276177 54.1540069,44.8141309 Z M53.9975,34.88 C53.479733,34.88 53.06,35.299733 53.06,35.8175 L53.06,35.8175 L53.06,41.4285714 L54.935,42.5 L54.935,35.8175 C54.935,35.299733 54.515267,34.88 53.9975,34.88 Z" id="Combined-Shape" fill="#000000" fill-rule="nonzero" opacity="0.900000036"></path>
        <path d="M35.6589891,18.4716145 L35.7269717,18.7231285 C35.9516329,19.5941984 36.050853,20.8695979 32.8455811,24.8722955 L32.124904,24.583465 C28.1196561,22.9323939 27.5331945,21.866057 27.2943571,21.053204 L27.2087578,20.7358472 C26.969003,19.8410701 27.4712141,18.5477815 28.7920235,18.1938717 C30.1128328,17.8399619 31.257419,18.9451937 31.257419,18.9451937 L31.2763544,18.8860915 C31.3728372,18.6015925 31.8514428,17.3741028 33.0168531,17.061832 C34.3376515,16.7079251 35.4192344,17.5768374 35.6589891,18.4716145 Z M56.5157879,19.5741467 C57.4009933,19.9869247 57.5472785,21.0583391 57.5472785,21.0583391 L57.6494981,21.0016721 C57.9120104,20.8672642 58.6391069,20.5642666 59.3472653,20.8944863 C60.2324633,21.3072609 60.4478551,22.2309955 60.1868626,22.7906958 L60.0598836,23.0547711 C59.7770427,23.5777408 59.1211657,24.2162888 55.8184353,24.7658554 C53.9990969,21.6837148 54.2017759,20.8531378 54.44975,20.307085 L54.5235244,20.1498378 C54.7845169,19.5901375 55.6305825,19.1613686 56.5157879,19.5741467 Z M47.8117707,12.5 C49.5698449,12.5 50.6239221,13.9923187 50.6239221,15.2274406 L50.624343,15.6031358 C50.6087656,16.8006558 50.2709415,18.4827917 45,22.5 C39.659912,18.4300922 39.3832199,16.7569237 39.3751999,15.556253 L39.375914,15.2916499 C39.3760125,15.2701346 39.3760779,15.2487358 39.3760779,15.2274406 C39.3760779,13.9923187 40.4301404,12.5 42.1882293,12.5 C43.9463182,12.5 45,14.3184168 45,14.3184168 L45.112274,14.145627 C45.4269638,13.6916609 46.3885677,12.5 47.8117707,12.5 Z" id="Combined-Shape" fill="#000000" opacity="0.400000006"></path>
    </g>
</svg>