<?xml version="1.0" encoding="UTF-8"?>
<svg width="72px" height="72px" viewBox="0 0 72 72" version="1.1" xmlns="http://www.w3.org/2000/svg" xmlns:xlink="http://www.w3.org/1999/xlink">
    <title>avatar.private.dark</title>
    <g id="avatar.private.dark" stroke="none" stroke-width="1" fill="none" fill-rule="evenodd">
        <path d="M36,22 C36.2262179,22 36.4511827,22.0053654 36.6732372,22.0166098 C34.8031317,25.6972468 33.8005141,29.6287791 33.6771243,33.868244 L33.6771243,33.868244 L33.675,33.979 L33.5352478,34.0100896 L33.370287,34.0574661 C32.2851436,34.4070781 31.5,35.4240041 31.5,36.6242775 L31.5,36.6242775 L31.5050003,36.7916455 L31.5198016,36.9574166 C31.6831527,38.3311605 32.8362806,39.5 34.2,39.5 L34.2,39.5 L35.91,39.499 L35.9309389,40.0304473 L35.9652983,40.5807043 C36.0351302,41.5261251 36.160962,42.4783646 36.3438329,43.4386185 C34.3357729,43.7240805 32.4016774,43.0423168 31.2755485,41.692619 C31.0632565,41.4381809 30.684897,41.4040147 30.4304589,41.6163068 C30.1760208,41.8285988 30.1418547,42.2069583 30.3541467,42.4613964 C31.7703027,44.1586999 34.1570604,44.9873425 36.5930739,44.6140841 C36.9961246,46.3235385 37.57488,48.0543014 38.3307583,49.8068621 C37.5727501,49.933886 36.7940959,50 36,50 C28.2680135,50 22,43.7319865 22,36 C22,28.2680135 28.2680135,22 36,22 Z M34.1181422,47.8591877 C33.8356622,47.8591877 33.6066668,48.0830454 33.6066668,48.3591877 C33.6066668,48.6353301 33.8356622,48.8591877 34.1181422,48.8591877 C34.4006223,48.8591877 34.6296176,48.6353301 34.6296176,48.3591877 C34.6296176,48.0830454 34.4006223,47.8591877 34.1181422,47.8591877 Z M36.46,47.8591877 C36.1838577,47.8591877 35.96,48.0830454 35.96,48.3591877 C35.96,48.6353301 36.1838577,48.8591877 36.46,48.8591877 C36.7361424,48.8591877 36.96,48.6353301 36.96,48.3591877 C36.96,48.0830454 36.7361424,47.8591877 36.46,47.8591877 Z M31.3648089,47.0901706 C31.0823288,47.0901706 30.8533335,47.3140283 30.8533335,47.5901706 C30.8533335,47.866313 31.0823288,48.0901706 31.3648089,48.0901706 C31.6472889,48.0901706 31.8762843,47.866313 31.8762843,47.5901706 C31.8762843,47.3140283 31.6472889,47.0901706 31.3648089,47.0901706 Z M28.6114755,45.5521364 C28.3289954,45.5521364 28.1000001,45.7759941 28.1000001,46.0521364 C28.1000001,46.3282788 28.3289954,46.5521364 28.6114755,46.5521364 C28.8939556,46.5521364 29.1229509,46.3282788 29.1229509,46.0521364 C29.1229509,45.7759941 28.8939556,45.5521364 28.6114755,45.5521364 Z M35.6914756,45.5521364 C35.4089955,45.5521364 35.1800002,45.7759941 35.1800002,46.0521364 C35.1800002,46.3282788 35.4089955,46.5521364 35.6914756,46.5521364 C35.9739557,46.5521364 36.202951,46.3282788 36.202951,46.0521364 C36.202951,45.7759941 35.9739557,45.5521364 35.6914756,45.5521364 Z M33.3314756,45.5521364 C33.0489955,45.5521364 32.8200002,45.7759941 32.8200002,46.0521364 C32.8200002,46.3282788 33.0489955,46.5521364 33.3314756,46.5521364 C33.6139556,46.5521364 33.842951,46.3282788 33.842951,46.0521364 C33.842951,45.7759941 33.6139556,45.5521364 33.3314756,45.5521364 Z M30.9714755,44.7831193 C30.6889955,44.7831193 30.4600001,45.006977 30.4600001,45.2831193 C30.4600001,45.5592617 30.6889955,45.7831193 30.9714755,45.7831193 C31.2539556,45.7831193 31.4829509,45.5592617 31.4829509,45.2831193 C31.4829509,45.006977 31.2539556,44.7831193 30.9714755,44.7831193 Z M26.6448088,43.6295937 C26.3623288,43.6295937 26.1333334,43.8534513 26.1333334,44.1295937 C26.1333334,44.4057361 26.3623288,44.6295937 26.6448088,44.6295937 C26.9272889,44.6295937 27.1562842,44.4057361 27.1562842,44.1295937 C27.1562842,43.8534513 26.9272889,43.6295937 26.6448088,43.6295937 Z M29.0048089,43.2450851 C28.7223288,43.2450851 28.4933334,43.4689428 28.4933334,43.7450851 C28.4933334,44.0212275 28.7223288,44.2450851 29.0048089,44.2450851 C29.2872889,44.2450851 29.5162843,44.0212275 29.5162843,43.7450851 C29.5162843,43.4689428 29.2872889,43.2450851 29.0048089,43.2450851 Z M25.0714755,41.7070509 C24.7889954,41.7070509 24.5600001,41.9309085 24.5600001,42.2070509 C24.5600001,42.4831933 24.7889954,42.7070509 25.0714755,42.7070509 C25.3539555,42.7070509 25.5829509,42.4831933 25.5829509,42.2070509 C25.5829509,41.9309085 25.3539555,41.7070509 25.0714755,41.7070509 Z M27.4314755,41.3225424 C27.1489954,41.3225424 26.9200001,41.5464 26.9200001,41.8225424 C26.9200001,42.0986847 27.1489954,42.3225424 27.4314755,42.3225424 C27.7139556,42.3225424 27.9429509,42.0986847 27.9429509,41.8225424 C27.9429509,41.5464 27.7139556,41.3225424 27.4314755,41.3225424 Z M34.5114756,41.3225424 C34.2289955,41.3225424 34.0000002,41.5464 34.0000002,41.8225424 C34.0000002,42.0986847 34.2289955,42.3225424 34.5114756,42.3225424 C34.7939556,42.3225424 35.022951,42.0986847 35.022951,41.8225424 C35.022951,41.5464 34.7939556,41.3225424 34.5114756,41.3225424 Z M32.1514756,40.1690167 C31.8689955,40.1690167 31.6400001,40.3928743 31.6400001,40.6690167 C31.6400001,40.9451591 31.8689955,41.1690167 32.1514756,41.1690167 C32.4339556,41.1690167 32.662951,40.9451591 32.662951,40.6690167 C32.662951,40.3928743 32.4339556,40.1690167 32.1514756,40.1690167 Z M29.0048089,39.7845082 C28.7223288,39.7845082 28.4933334,40.0083658 28.4933334,40.2845082 C28.4933334,40.5606505 28.7223288,40.7845082 29.0048089,40.7845082 C29.2872889,40.7845082 29.5162843,40.5606505 29.5162843,40.2845082 C29.5162843,40.0083658 29.2872889,39.7845082 29.0048089,39.7845082 Z M24.2848088,39.3999996 C24.0023287,39.3999996 23.7733334,39.6238572 23.7733334,39.8999996 C23.7733334,40.176142 24.0023287,40.3999996 24.2848088,40.3999996 C24.5672889,40.3999996 24.7962842,40.176142 24.7962842,39.8999996 C24.7962842,39.6238572 24.5672889,39.3999996 24.2848088,39.3999996 Z M28.75,28 C28.3357864,28 28,28.3357864 28,28.75 L28,28.75 L28,33.25 C28,33.6642136 28.3357864,34 28.75,34 C29.1642136,34 29.5,33.6642136 29.5,33.25 L29.5,33.25 L29.5,28.75 C29.5,28.3357864 29.1642136,28 28.75,28 Z" id="Combined-Shape" fill="#FFFFFF" fill-rule="nonzero" opacity="0.699999988"></path>
        <path d="M37.7516806,22.1085237 C44.6569122,22.9704415 50,28.8612482 50,36 C50,42.5840685 45.4549734,48.1065891 39.3295315,49.6015414 C38.5598705,47.841736 37.9733605,46.1074702 37.5712632,44.3995228 C39.7932875,43.7557749 41.5431182,42.1519973 42.1838708,40.1620034 C42.285433,39.8465802 42.1120644,39.5085468 41.7966413,39.4069846 C41.4812181,39.3054224 41.1431847,39.4787909 41.0416225,39.7942141 C40.5346808,41.3686299 39.1302631,42.6712757 37.3194827,43.2206691 C37.0509923,41.7944979 36.9114707,40.3861904 36.9006787,38.9956307 C36.8985471,38.7209674 36.6752542,38.49945 36.4005827,38.499511 L36.4005827,38.499511 L34.1998889,38.4999994 L34.0663238,38.4933985 C33.2258774,38.4104248 32.5,37.5573606 32.5,36.6242775 L32.5,36.6242775 L32.5062386,36.4779192 L32.5246146,36.3350134 C32.6540799,35.5829617 33.2796534,34.9999605 34.0532925,34.9339743 L34.0532925,34.9339743 L34.2153099,34.9275112 L34.3184712,34.9156084 L34.4092288,34.8879219 C34.6629077,34.7831407 34.7492681,34.491594 34.669,34.249 L34.669,34.249 L34.6771537,33.8819049 C34.8017601,29.6764366 35.8210586,25.7922194 37.7269215,22.1560383 L37.7269215,22.1560383 Z M43.3232055,35.8513047 C42.4904279,35.5160319 41.626656,35.5524856 40.7653049,35.9528976 C40.5148968,36.0693036 40.4062665,36.3666652 40.5226725,36.6170734 C40.6390785,36.8674816 40.9364402,36.9761118 41.1868484,36.8597058 C41.8025152,36.5735038 42.3790073,36.5491742 42.9497399,36.7789487 C43.5316084,37.0132065 43.9641934,37.4354169 44.2616526,38.0677452 C44.3791985,38.3176203 44.6770521,38.4248943 44.9269272,38.3073483 C45.1768023,38.1898024 45.2840763,37.8919488 45.1665303,37.6420737 C44.7640079,36.7864056 44.1448472,36.1820942 43.3232055,35.8513047 Z M43.25,28 C42.8357864,28 42.5,28.3357864 42.5,28.75 L42.5,28.75 L42.5,33.1428571 L44,34 L44,28.75 C44,28.3357864 43.6642136,28 43.25,28 Z" id="Combined-Shape" fill="#FFFFFF" fill-rule="nonzero" opacity="0.900000036"></path>
        <path d="M28.5271913,14.7772916 L28.5815773,14.9785028 C28.7613063,15.6753588 28.8406824,16.6956783 26.2764649,19.8978364 L25.6999232,19.666772 C22.4957248,18.3459151 22.0265556,17.4928456 21.8354856,16.8425632 L21.7670062,16.5886777 C21.5752024,15.8728561 21.9769713,14.8382252 23.0336188,14.5550974 C24.0902663,14.2719695 25.0059352,15.1561549 25.0059352,15.1561549 L25.0210835,15.1088732 C25.0982698,14.881274 25.4811542,13.8992822 26.4134825,13.6494656 C27.4701212,13.3663401 28.3353875,14.0614699 28.5271913,14.7772916 Z M45.2126303,15.6593174 C45.9207946,15.9895398 46.0378228,16.8466713 46.0378228,16.8466713 L46.1195985,16.8013377 C46.3296083,16.6938114 46.9112855,16.4514133 47.4778122,16.715589 C48.1859706,17.0458087 48.3582841,17.7847964 48.1494901,18.2325566 L48.0479069,18.4438169 C47.8216342,18.8621926 47.2969325,19.373031 44.6547482,19.8126843 C43.1992775,17.3469718 43.3614207,16.6825103 43.5598,16.245668 L43.6188195,16.1198703 C43.8276135,15.67211 44.504466,15.3290949 45.2126303,15.6593174 Z M38.2494165,10 C39.6558759,10 40.4991377,11.193855 40.4991377,12.1819525 L40.4994744,12.4825086 C40.4870125,13.4405247 40.2167532,14.7862334 36,18 C31.3249041,14.4369109 31.5008623,13.1700499 31.5008623,12.1819525 C31.5008623,11.193855 32.3441123,10 33.7505835,10 C35.1570546,10 36,11.4547335 36,11.4547335 L36.0898192,11.3165016 C36.3415711,10.9533287 37.1108542,10 38.2494165,10 Z" id="Combined-Shape" fill="#FFFFFF" opacity="0.400000006"></path>
    </g>
</svg>