<?xml version="1.0" encoding="UTF-8"?>
<svg width="72px" height="72px" viewBox="0 0 72 72" version="1.1" xmlns="http://www.w3.org/2000/svg" xmlns:xlink="http://www.w3.org/1999/xlink">
    <title>avatar.private</title>
    <g id="avatar.private" stroke="none" stroke-width="1" fill="none" fill-rule="evenodd">
        <g id="Group-2" transform="translate(21.000000, 10.000000)" fill="#000000" fill-rule="nonzero">
            <path d="M15,11 C15.482496,11 15.9596713,11.022781 16.4305088,11.067326 L16.9668217,11.1277884 L17.2686772,11.1704471 C24.4766203,12.2641653 30,18.4870554 30,26 C30,33.1931168 24.9368738,39.2036771 18.1800658,40.6622366 L17.9240548,40.7151487 C16.9783628,40.9020226 16.0006233,41 15,41 C6.71572875,41 0,34.2842712 0,26 C0,17.7157288 6.71572875,11 15,11 Z M15,12 C7.2680135,12 1,18.2680135 1,26 C1,33.7319865 7.2680135,40 15,40 C15.7940959,40 16.5727501,39.933886 17.3307583,39.8068621 C16.57488,38.0543014 15.9961246,36.3235385 15.5930739,34.6140841 C13.1570604,34.9873425 10.7703027,34.1586999 9.35414672,32.4613964 C9.1418547,32.2069583 9.17602083,31.8285988 9.43045891,31.6163068 C9.68489699,31.4040147 10.0632565,31.4381809 10.2755485,31.692619 C11.4016774,33.0423168 13.3357729,33.7240805 15.3438329,33.4386185 C15.160962,32.4783646 15.0351302,31.5261251 14.9652983,30.5807043 L14.9309389,30.0304473 L14.91,29.499 L13.2,29.5 C11.8362806,29.5 10.6831527,28.3311605 10.5198016,26.9574166 L10.5050003,26.7916455 L10.5,26.6242775 C10.5,25.4240041 11.2851436,24.4070781 12.370287,24.0574661 L12.5352478,24.0100896 L12.675,23.979 L12.6771243,23.868244 C12.8005141,19.6287791 13.8031317,15.6972468 15.6732372,12.0166098 C15.4511827,12.0053654 15.2262179,12 15,12 Z M16.7516806,12.1085237 L16.7269215,12.1560383 C14.8210586,15.7922194 13.8017601,19.6764366 13.6771537,23.8819049 L13.669,24.249 C13.7492681,24.491594 13.6629077,24.7831407 13.4092288,24.8879219 L13.3184712,24.9156084 L13.2153099,24.9275112 L13.0532925,24.9339743 C12.2796534,24.9999605 11.6540799,25.5829617 11.5246146,26.3350134 L11.5062386,26.4779192 L11.5,26.6242775 C11.5,27.5573606 12.2258774,28.4104248 13.0663238,28.4933985 L13.1998889,28.4999994 L15.4005827,28.499511 C15.6752542,28.49945 15.8985471,28.7209674 15.9006787,28.9956307 C15.9114707,30.3861904 16.0509923,31.7944979 16.3194827,33.2206691 C18.1302631,32.6712757 19.5346808,31.3686299 20.0416225,29.7942141 C20.1431847,29.4787909 20.4812181,29.3054224 20.7966413,29.4069846 C21.1120644,29.5085468 21.285433,29.8465802 21.1838708,30.1620034 C20.5431182,32.1519973 18.7932875,33.7557749 16.5712632,34.3995228 C16.9733605,36.1074702 17.5598705,37.841736 18.3295315,39.6015414 C24.4549734,38.1065891 29,32.5840685 29,26 C29,18.8612482 23.6569122,12.9704415 16.7516806,12.1085237 Z M13.1181422,37.8591877 C13.4006223,37.8591877 13.6296176,38.0830454 13.6296176,38.3591877 C13.6296176,38.6353301 13.4006223,38.8591877 13.1181422,38.8591877 C12.8356622,38.8591877 12.6066668,38.6353301 12.6066668,38.3591877 C12.6066668,38.0830454 12.8356622,37.8591877 13.1181422,37.8591877 Z M15.46,37.8591877 C15.7361424,37.8591877 15.96,38.0830454 15.96,38.3591877 C15.96,38.6353301 15.7361424,38.8591877 15.46,38.8591877 C15.1838577,38.8591877 14.96,38.6353301 14.96,38.3591877 C14.96,38.0830454 15.1838577,37.8591877 15.46,37.8591877 Z M10.3648089,37.0901706 C10.6472889,37.0901706 10.8762843,37.3140283 10.8762843,37.5901706 C10.8762843,37.866313 10.6472889,38.0901706 10.3648089,38.0901706 C10.0823288,38.0901706 9.85333347,37.866313 9.85333347,37.5901706 C9.85333347,37.3140283 10.0823288,37.0901706 10.3648089,37.0901706 Z M7.61147552,35.5521364 C7.89395558,35.5521364 8.12295093,35.7759941 8.12295093,36.0521364 C8.12295093,36.3282788 7.89395558,36.5521364 7.61147552,36.5521364 C7.32899545,36.5521364 7.10000011,36.3282788 7.10000011,36.0521364 C7.10000011,35.7759941 7.32899545,35.5521364 7.61147552,35.5521364 Z M14.6914756,35.5521364 C14.9739557,35.5521364 15.202951,35.7759941 15.202951,36.0521364 C15.202951,36.3282788 14.9739557,36.5521364 14.6914756,36.5521364 C14.4089955,36.5521364 14.1800002,36.3282788 14.1800002,36.0521364 C14.1800002,35.7759941 14.4089955,35.5521364 14.6914756,35.5521364 Z M12.3314756,35.5521364 C12.6139556,35.5521364 12.842951,35.7759941 12.842951,36.0521364 C12.842951,36.3282788 12.6139556,36.5521364 12.3314756,36.5521364 C12.0489955,36.5521364 11.8200002,36.3282788 11.8200002,36.0521364 C11.8200002,35.7759941 12.0489955,35.5521364 12.3314756,35.5521364 Z M9.97147554,34.7831193 C10.2539556,34.7831193 10.4829509,35.006977 10.4829509,35.2831193 C10.4829509,35.5592617 10.2539556,35.7831193 9.97147554,35.7831193 C9.68899547,35.7831193 9.46000013,35.5592617 9.46000013,35.2831193 C9.46000013,35.006977 9.68899547,34.7831193 9.97147554,34.7831193 Z M5.64480883,33.6295937 C5.9272889,33.6295937 6.15628424,33.8534513 6.15628424,34.1295937 C6.15628424,34.4057361 5.9272889,34.6295937 5.64480883,34.6295937 C5.36232876,34.6295937 5.13333342,34.4057361 5.13333342,34.1295937 C5.13333342,33.8534513 5.36232876,33.6295937 5.64480883,33.6295937 Z M8.00480885,33.2450851 C8.28728892,33.2450851 8.51628426,33.4689428 8.51628426,33.7450851 C8.51628426,34.0212275 8.28728892,34.2450851 8.00480885,34.2450851 C7.72232878,34.2450851 7.49333344,34.0212275 7.49333344,33.7450851 C7.49333344,33.4689428 7.72232878,33.2450851 8.00480885,33.2450851 Z M4.07147548,31.7070509 C4.35395555,31.7070509 4.58295089,31.9309085 4.58295089,32.2070509 C4.58295089,32.4831933 4.35395555,32.7070509 4.07147548,32.7070509 C3.78899541,32.7070509 3.56000007,32.4831933 3.56000007,32.2070509 C3.56000007,31.9309085 3.78899541,31.7070509 4.07147548,31.7070509 Z M6.4314755,31.3225424 C6.71395557,31.3225424 6.94295091,31.5464 6.94295091,31.8225424 C6.94295091,32.0986847 6.71395557,32.3225424 6.4314755,32.3225424 C6.14899544,32.3225424 5.92000009,32.0986847 5.92000009,31.8225424 C5.92000009,31.5464 6.14899544,31.3225424 6.4314755,31.3225424 Z M13.5114756,31.3225424 C13.7939556,31.3225424 14.022951,31.5464 14.022951,31.8225424 C14.022951,32.0986847 13.7939556,32.3225424 13.5114756,32.3225424 C13.2289955,32.3225424 13.0000002,32.0986847 13.0000002,31.8225424 C13.0000002,31.5464 13.2289955,31.3225424 13.5114756,31.3225424 Z M11.1514756,30.1690167 C11.4339556,30.1690167 11.662951,30.3928743 11.662951,30.6690167 C11.662951,30.9451591 11.4339556,31.1690167 11.1514756,31.1690167 C10.8689955,31.1690167 10.6400001,30.9451591 10.6400001,30.6690167 C10.6400001,30.3928743 10.8689955,30.1690167 11.1514756,30.1690167 Z M8.00480885,29.7845082 C8.28728892,29.7845082 8.51628426,30.0083658 8.51628426,30.2845082 C8.51628426,30.5606505 8.28728892,30.7845082 8.00480885,30.7845082 C7.72232878,30.7845082 7.49333344,30.5606505 7.49333344,30.2845082 C7.49333344,30.0083658 7.72232878,29.7845082 8.00480885,29.7845082 Z M3.28480881,29.3999996 C3.56728888,29.3999996 3.79628422,29.6238572 3.79628422,29.8999996 C3.79628422,30.176142 3.56728888,30.3999996 3.28480881,30.3999996 C3.00232874,30.3999996 2.7733334,30.176142 2.7733334,29.8999996 C2.7733334,29.6238572 3.00232874,29.3999996 3.28480881,29.3999996 Z M22.3232055,25.8513047 C23.1448472,26.1820942 23.7640079,26.7864056 24.1665303,27.6420737 C24.2840763,27.8919488 24.1768023,28.1898024 23.9269272,28.3073483 C23.6770521,28.4248943 23.3791985,28.3176203 23.2616526,28.0677452 C22.9641934,27.4354169 22.5316084,27.0132065 21.9497399,26.7789487 C21.3790073,26.5491742 20.8025152,26.5735038 20.1868484,26.8597058 C19.9364402,26.9761118 19.6390785,26.8674816 19.5226725,26.6170734 C19.4062665,26.3666652 19.5148968,26.0693036 19.7653049,25.9528976 C20.626656,25.5524856 21.4904279,25.5160319 22.3232055,25.8513047 Z M22.25,18 C22.6642136,18 23,18.3357864 23,18.75 L23,24 L21.5,23.1428571 L21.5,18.75 C21.5,18.3357864 21.8357864,18 22.25,18 Z M7.75,18 C8.16421356,18 8.5,18.3357864 8.5,18.75 L8.5,23.25 C8.5,23.6642136 8.16421356,24 7.75,24 C7.33578644,24 7,23.6642136 7,23.25 L7,18.75 C7,18.3357864 7.33578644,18 7.75,18 Z" id="Shape"></path>
            <path d="M15,12 C7.2680135,12 1,18.2680135 1,26 C1,33.7319865 7.2680135,40 15,40 C15.7940959,40 16.5727501,39.933886 17.3307583,39.8068621 C16.57488,38.0543014 15.9961246,36.3235385 15.5930739,34.6140841 C13.1570604,34.9873425 10.7703027,34.1586999 9.35414672,32.4613964 C9.1418547,32.2069583 9.17602083,31.8285988 9.43045891,31.6163068 C9.68489699,31.4040147 10.0632565,31.4381809 10.2755485,31.692619 C11.4016774,33.0423168 13.3357729,33.7240805 15.3438329,33.4386185 C15.160962,32.4783646 15.0351302,31.5261251 14.9652983,30.5807043 L14.9309389,30.0304473 L14.91,29.499 L13.2,29.5 C11.8362806,29.5 10.6831527,28.3311605 10.5198016,26.9574166 L10.5050003,26.7916455 L10.5,26.6242775 C10.5,25.4240041 11.2851436,24.4070781 12.370287,24.0574661 L12.5352478,24.0100896 L12.675,23.979 L12.6771243,23.868244 C12.8005141,19.6287791 13.8031317,15.6972468 15.6732372,12.0166098 C15.4511827,12.0053654 15.2262179,12 15,12 Z" id="Path" opacity="0.03"></path>
            <path d="M7.52719132,4.77729159 L7.58157735,4.97850283 C7.7613063,5.67535876 7.84068237,6.6956783 5.2764649,9.89783643 L4.69992319,9.66677197 C1.49572485,8.3459151 1.02655561,7.49284557 0.835485646,6.84256318 L0.767006216,6.58867773 C0.575202383,5.87285608 0.976971279,4.83822519 2.03361877,4.55509735 C3.09026627,4.27196951 4.00593517,5.15615494 4.00593517,5.15615494 L4.02108354,5.10887324 C4.09826979,4.88127401 4.48115422,3.8992822 5.41348248,3.6494656 C6.47012117,3.36634012 7.33538749,4.06146994 7.52719132,4.77729159 Z M24.2126303,5.65931735 C24.9207946,5.98953978 25.0378228,6.84667132 25.0378228,6.84667132 L25.1195985,6.80133767 C25.3296083,6.69381139 25.9112855,6.45141328 26.4778122,6.71558902 C27.1859706,7.04580871 27.3582841,7.78479642 27.1494901,8.23255664 L27.0479069,8.44381691 C26.8216342,8.86219263 26.2969325,9.37303105 23.6547482,9.81268434 C22.1992775,7.34697183 22.3614207,6.68251027 22.5598,6.24566799 L22.6188195,6.11987025 C22.8276135,5.67211004 23.504466,5.32909492 24.2126303,5.65931735 Z M17.2494165,0 C18.6558759,0 19.4991377,1.193855 19.4991377,2.18195247 L19.4994744,2.48250864 C19.4870125,3.44052468 19.2167532,4.78623337 15,8 C10.3249041,4.43691091 10.5008623,3.17004994 10.5008623,2.18195247 C10.5008623,1.193855 11.3441123,0 12.7505835,0 C14.1570546,0 15,1.45473346 15,1.45473346 L15.0898192,1.31650158 C15.3415711,0.953328728 16.1108542,0 17.2494165,0 Z" id="Combined-Shape" stroke="#000000" fill-opacity="0.1"></path>
        </g>
    </g>
</svg>