<svg id="avatar" width="90px" height="90px" viewBox="0 0 90 90" version="1.1" xmlns="http://www.w3.org/2000/svg" xmlns:xlink="http://www.w3.org/1999/xlink">
    <title>avatar.404</title>
    <g id="avatar.404" stroke="none" stroke-width="1" fill="none" fill-rule="evenodd">
        <path d="M45,26.25 C45.60312,26.25 46.1995891,26.2784762 46.788136,26.3341574 L47.4585272,26.4097356 L47.8358465,26.4630589 C56.8457754,27.8302066 63.75,35.6088193 63.75,45 C63.75,53.991396 57.4210923,61.5045964 48.9750823,63.3277957 L48.6550685,63.3939359 C47.4729535,63.6275283 46.2507791,63.75 45,63.75 C34.6446609,63.75 26.25,55.3553391 26.25,45 C26.25,34.6446609 34.6446609,26.25 45,26.25 Z M45,27.5 C35.3350169,27.5 27.5,35.3350169 27.5,45 C27.5,54.6649831 35.3350169,62.5 45,62.5 C45.9926199,62.5 46.9659376,62.4173575 47.9134478,62.2585776 C46.9686,60.0678768 46.2451558,57.9044231 45.7413423,55.7676052 C42.6963255,56.2341781 39.7128783,55.1983749 37.9426834,53.0767455 C37.6773184,52.7586979 37.720026,52.2857485 38.0380736,52.0203835 C38.3561212,51.7550184 38.8290706,51.7977261 39.0944357,52.1157737 C40.5020968,53.802896 42.9197161,54.6551006 45.4297911,54.2982731 C45.2012026,53.0979557 45.0439128,51.9076564 44.9566229,50.7258804 L44.9136736,50.0380591 L44.8875,49.37375 L42.75,49.375 C41.0453508,49.375 39.6039409,47.9139507 39.399752,46.1967708 L39.3812503,45.9895569 L39.375,45.7803468 C39.375,44.2800051 40.3564295,43.0088476 41.7128587,42.5718326 L41.9190598,42.512612 L42.09375,42.47375 L42.0964053,42.335305 C42.2506426,37.0359739 43.5039146,32.1215585 45.8415465,27.5207623 C45.5639784,27.5067067 45.2827724,27.5 45,27.5 Z M47.1896007,27.6356547 L47.1586519,27.6950478 C44.7763232,32.2402743 43.5022002,37.0955457 43.3464422,42.3523812 L43.33625,42.81125 C43.4365852,43.1144926 43.3286346,43.4789258 43.011536,43.6099024 L42.8980891,43.6445105 L42.7691374,43.659389 L42.5666156,43.6674679 C41.5995667,43.7499506 40.8175998,44.4787022 40.6557683,45.4187668 L40.6327983,45.5973991 L40.625,45.7803468 C40.625,46.9467007 41.5323467,48.013031 42.5829048,48.1167481 L42.7498611,48.1249992 L45.5007284,48.1243888 C45.8440678,48.1243125 46.1231839,48.4012093 46.1258484,48.7445384 C46.1393384,50.482738 46.3137403,52.2431224 46.6493533,54.0258364 C48.9128289,53.3390946 50.668351,51.7107874 51.3020281,49.7427676 C51.4289809,49.3484887 51.8515227,49.131778 52.2458016,49.2587308 C52.6400805,49.3856835 52.8567912,49.8082253 52.7298384,50.2025042 C51.9288978,52.6899967 49.7416093,54.6947186 46.964079,55.4994035 C47.4667007,57.6343377 48.1998382,59.80217 49.1619144,62.0019268 C56.8187168,60.1332364 62.5,53.2300856 62.5,45 C62.5,36.0765603 55.8211403,28.7130519 47.1896007,27.6356547 Z M42.6583335,59.7989847 C43.0311257,59.7989847 43.3333335,60.1011925 43.3333335,60.4739847 C43.3333335,60.8467769 43.0311257,61.1489847 42.6583335,61.1489847 C42.2855413,61.1489847 41.9833335,60.8467769 41.9833335,60.4739847 C41.9833335,60.1011925 42.2855413,59.7989847 42.6583335,59.7989847 Z M45.6,59.7989847 C45.9727923,59.7989847 46.275,60.1011925 46.275,60.4739847 C46.275,60.8467769 45.9727923,61.1489847 45.6,61.1489847 C45.2272078,61.1489847 44.925,60.8467769 44.925,60.4739847 C44.925,60.1011925 45.2272078,59.7989847 45.6,59.7989847 Z M39.2166668,58.8377133 C39.589459,58.8377133 39.8916668,59.1399211 39.8916668,59.5127133 C39.8916668,59.8855055 39.589459,60.1877133 39.2166668,60.1877133 C38.8438746,60.1877133 38.5416668,59.8855055 38.5416668,59.5127133 C38.5416668,59.1399211 38.8438746,58.8377133 39.2166668,58.8377133 Z M35.7750001,56.9151705 C36.1477923,56.9151705 36.4500001,57.2173783 36.4500001,57.5901705 C36.4500001,57.9629627 36.1477923,58.2651705 35.7750001,58.2651705 C35.4022079,58.2651705 35.1000001,57.9629627 35.1000001,57.5901705 C35.1000001,57.2173783 35.4022079,56.9151705 35.7750001,56.9151705 Z M44.6250002,56.9151705 C44.9977924,56.9151705 45.3000002,57.2173783 45.3000002,57.5901705 C45.3000002,57.9629627 44.9977924,58.2651705 44.6250002,58.2651705 C44.252208,58.2651705 43.9500002,57.9629627 43.9500002,57.5901705 C43.9500002,57.2173783 44.252208,56.9151705 44.6250002,56.9151705 Z M41.6750002,56.9151705 C42.0477924,56.9151705 42.3500002,57.2173783 42.3500002,57.5901705 C42.3500002,57.9629627 42.0477924,58.2651705 41.6750002,58.2651705 C41.302208,58.2651705 41.0000002,57.9629627 41.0000002,57.5901705 C41.0000002,57.2173783 41.302208,56.9151705 41.6750002,56.9151705 Z M38.7250002,55.9538992 C39.0977924,55.9538992 39.4000002,56.256107 39.4000002,56.6288992 C39.4000002,57.0016914 39.0977924,57.3038992 38.7250002,57.3038992 C38.352208,57.3038992 38.0500002,57.0016914 38.0500002,56.6288992 C38.0500002,56.256107 38.352208,55.9538992 38.7250002,55.9538992 Z M33.3166668,54.5119921 C33.689459,54.5119921 33.9916668,54.8141999 33.9916668,55.1869921 C33.9916668,55.5597843 33.689459,55.8619921 33.3166668,55.8619921 C32.9438746,55.8619921 32.6416668,55.5597843 32.6416668,55.1869921 C32.6416668,54.8141999 32.9438746,54.5119921 33.3166668,54.5119921 Z M42.7798361,54.3880333 C43.1526283,54.3880333 43.4548361,54.6902411 43.4548361,55.0630333 C43.4548361,55.4358255 43.1526283,55.7380333 42.7798361,55.7380333 C42.4070439,55.7380333 42.1048361,55.4358255 42.1048361,55.0630333 C42.1048361,54.6902411 42.4070439,54.3880333 42.7798361,54.3880333 Z M36.2666668,54.0313564 C36.639459,54.0313564 36.9416668,54.3335642 36.9416668,54.7063564 C36.9416668,55.0791486 36.639459,55.3813564 36.2666668,55.3813564 C35.8938746,55.3813564 35.5916668,55.0791486 35.5916668,54.7063564 C35.5916668,54.3335642 35.8938746,54.0313564 36.2666668,54.0313564 Z M39.4048363,52.8880337 C39.7776285,52.8880337 40.0798363,53.1902415 40.0798363,53.5630337 C40.0798363,53.9358259 39.7776285,54.2380337 39.4048363,54.2380337 C39.0320441,54.2380337 38.7298363,53.9358259 38.7298363,53.5630337 C38.7298363,53.1902415 39.0320441,52.8880337 39.4048363,52.8880337 Z M31.3500001,52.1088137 C31.7227923,52.1088137 32.0250001,52.4110214 32.0250001,52.7838137 C32.0250001,53.1566059 31.7227923,53.4588137 31.3500001,53.4588137 C30.9772079,53.4588137 30.6750001,53.1566059 30.6750001,52.7838137 C30.6750001,52.4110214 30.9772079,52.1088137 31.3500001,52.1088137 Z M34.3000001,51.628178 C34.6727923,51.628178 34.9750001,51.9303858 34.9750001,52.303178 C34.9750001,52.6759702 34.6727923,52.978178 34.3000001,52.978178 C33.9272079,52.978178 33.6250001,52.6759702 33.6250001,52.303178 C33.6250001,51.9303858 33.9272079,51.628178 34.3000001,51.628178 Z M43.1500002,51.628178 C43.5227924,51.628178 43.8250002,51.9303858 43.8250002,52.303178 C43.8250002,52.6759702 43.5227924,52.978178 43.1500002,52.978178 C42.777208,52.978178 42.4750002,52.6759702 42.4750002,52.303178 C42.4750002,51.9303858 42.777208,51.628178 43.1500002,51.628178 Z M40.2000002,50.1862709 C40.5727924,50.1862709 40.8750002,50.4884787 40.8750002,50.8612709 C40.8750002,51.2340631 40.5727924,51.5362709 40.2000002,51.5362709 C39.827208,51.5362709 39.5250002,51.2340631 39.5250002,50.8612709 C39.5250002,50.4884787 39.827208,50.1862709 40.2000002,50.1862709 Z M36.2666668,49.7056352 C36.639459,49.7056352 36.9416668,50.007843 36.9416668,50.3806352 C36.9416668,50.7534274 36.639459,51.0556352 36.2666668,51.0556352 C35.8938746,51.0556352 35.5916668,50.7534274 35.5916668,50.3806352 C35.5916668,50.007843 35.8938746,49.7056352 36.2666668,49.7056352 Z M30.3666667,49.2249995 C30.739459,49.2249995 31.0416667,49.5272073 31.0416667,49.8999995 C31.0416667,50.2727917 30.739459,50.5749995 30.3666667,50.5749995 C29.9938745,50.5749995 29.6916667,50.2727917 29.6916667,49.8999995 C29.6916667,49.5272073 29.9938745,49.2249995 30.3666667,49.2249995 Z M54.1540069,44.8141309 C55.181059,45.2276177 55.9550099,45.983007 56.4581629,47.0525921 C56.6050953,47.3649359 56.4710029,47.7372529 56.158659,47.8841854 C55.8463151,48.0311178 55.4739981,47.8970254 55.3270657,47.5846815 C54.9552418,46.7942711 54.4145105,46.2665082 53.6871749,45.9736859 C52.9737592,45.6864677 52.253144,45.7168798 51.4835604,46.0746323 C51.1705502,46.2201397 50.7988482,46.084352 50.6533407,45.7713417 C50.5078332,45.4583315 50.643621,45.0866295 50.9566312,44.941122 C52.03332,44.440607 53.1130349,44.3950399 54.1540069,44.8141309 Z M34.3746899,36.0099612 L35.997,37.632 L37.6203101,36.0099612 C37.9288243,35.701447 38.4290246,35.701447 38.7375388,36.0099612 C39.046053,36.3184754 39.046053,36.8186757 38.7375388,37.1271899 L37.115,38.75 L38.7375388,40.3728101 C39.046053,40.6813243 39.046053,41.1815246 38.7375388,41.4900388 C38.4290246,41.798553 37.9288243,41.798553 37.6203101,41.4900388 L35.997,39.867 L34.3746899,41.4900388 C34.0661757,41.798553 33.5659754,41.798553 33.2574612,41.4900388 C32.948947,41.1815246 32.948947,40.6813243 33.2574612,40.3728101 L34.88,38.75 L33.2574612,37.1271899 C32.948947,36.8186757 32.948947,36.3184754 33.2574612,36.0099612 C33.5659754,35.701447 34.0661757,35.701447 34.3746899,36.0099612 Z M52.3746899,36.0099612 L53.997,37.632 L55.6203101,36.0099612 C55.9288243,35.701447 56.4290246,35.701447 56.7375388,36.0099612 C57.046053,36.3184754 57.046053,36.8186757 56.7375388,37.1271899 L55.115,38.75 L56.7375388,40.3728101 C57.046053,40.6813243 57.046053,41.1815246 56.7375388,41.4900388 C56.4290246,41.798553 55.9288243,41.798553 55.6203101,41.4900388 L53.997,39.867 L52.3746899,41.4900388 C52.0661757,41.798553 51.5659754,41.798553 51.2574612,41.4900388 C50.948947,41.1815246 50.948947,40.6813243 51.2574612,40.3728101 L52.88,38.75 L51.2574612,37.1271899 C50.948947,36.8186757 50.948947,36.3184754 51.2574612,36.0099612 C51.5659754,35.701447 52.0661757,35.701447 52.3746899,36.0099612 Z" id="Shape" fill="#000000" fill-rule="nonzero"></path>
        <path d="M45,27.5 C35.3350169,27.5 27.5,35.3350169 27.5,45 C27.5,54.6649831 35.3350169,62.5 45,62.5 C45.9926199,62.5 46.9659376,62.4173575 47.9134478,62.2585776 C46.9686,60.0678768 46.2451558,57.9044231 45.7413423,55.7676052 C42.6963255,56.2341781 39.7128783,55.1983749 37.9426834,53.0767455 C37.6773184,52.7586979 37.720026,52.2857485 38.0380736,52.0203835 C38.3561212,51.7550184 38.8290706,51.7977261 39.0944357,52.1157737 C40.5020968,53.802896 42.9197161,54.6551006 45.4297911,54.2982731 C45.2012026,53.0979557 45.0439128,51.9076564 44.9566229,50.7258804 L44.9136736,50.0380591 L44.8875,49.37375 L42.75,49.3749993 C41.0453508,49.3749993 39.6039409,47.9139507 39.399752,46.1967708 L39.3812503,45.9895569 L39.375,45.7803468 C39.375,44.2800051 40.3564295,43.0088476 41.7128587,42.5718326 L41.9190598,42.512612 L42.09375,42.47375 L42.0964053,42.335305 C42.2506426,37.0359739 43.5039146,32.1215585 45.8415465,27.5207623 C45.5639784,27.5067067 45.2827724,27.5 45,27.5 Z" id="Path" fill="#000000" fill-rule="nonzero" opacity="0.03"></path>
    </g>
</svg>