<?xml version="1.0" encoding="UTF-8"?>
<svg width="72px" height="72px" viewBox="0 0 72 72" version="1.1" xmlns="http://www.w3.org/2000/svg" xmlns:xlink="http://www.w3.org/1999/xlink">
    <title>avatar.work</title>
    <g id="avatar.work" stroke="none" stroke-width="1" fill="none" fill-rule="evenodd">
        <g id="Group-3" transform="translate(21.000000, 14.000000)" fill="#000000" fill-rule="nonzero">
            <path d="M14.75,0 C15.1642136,0 15.5,0.335786438 15.5,0.75 L15.5,2.433 L22.9688711,1.5 C25.1780101,1.22385763 27.1927288,2.790861 27.4688711,5 C27.4896036,5.1658601 27.5,5.33284914 27.5,5.5 C27.5,6.87799588 26.8806172,8.11132716 25.9050653,8.93678033 C26.269904,9.25621382 26.5,9.72623602 26.5,10.25 C26.5,10.5680358 26.4151621,10.8662566 26.2668829,11.1232661 L28.8910493,8.49650063 C28.4443771,6.77913152 29.4961157,4.59999971 31.2767117,4.59999971 C32.0915879,4.59999971 32.5509911,4.41968249 32.779132,4.09685383 L32.8314212,4.01319956 L33.5228788,2.75590424 L34.4630744,3.83984954 C35.8252566,5.4103003 35.9080372,7.61350833 34.8503349,9.20186771 C34.0687784,10.3755368 32.8465455,10.9375125 31.5697983,10.7239677 L27.9196623,14.3741752 C29.2414196,16.6086718 30,19.2157479 30,22 C30,29.1818061 24.9527841,35.1847718 18.211927,36.6553224 L17.7506688,36.748352 L17.7506688,36.748352 C16.8589618,36.9136143 15.9395691,37 15,37 C6.71572875,37 3.30402372e-13,30.2842712 3.30402372e-13,22 C3.30402372e-13,17.9737614 1.5862935,14.3180215 4.16799208,11.6236687 C3.76097962,11.3046601 3.5,10.8078076 3.5,10.25 C3.5,9.9451813 3.57793292,9.65856481 3.71496061,9.40898868 C2.97787274,8.86494164 2.5,7.9882774 2.5,7 C2.5,5.38185368 3.66030043,4.00755464 5.23516485,3.72185986 L5.41867732,3.69377423 L14,2.621 L14,0.75 C14,0.335786438 14.3357864,0 14.75,0 Z M5.20383112,11.9994028 L5.01952327,12.1821506 C2.5336534,14.7089385 1,18.1753673 1,22 C1,29.7319865 7.2680135,36 15,36 C15.7940959,36 16.5727501,35.933886 17.3307583,35.8068621 C16.5756634,34.0547694 15.9965064,32.3239055 15.5932652,30.6143756 C13.1577135,30.9875692 10.7704964,30.1589321 9.35414672,28.4613964 C9.1418547,28.2069583 9.17602083,27.8285988 9.43045891,27.6163068 C9.68489699,27.4040147 10.0632565,27.4381809 10.2755485,27.692619 C11.4015444,29.0421574 13.335316,29.7239194 15.3431213,29.4387196 C15.1609762,28.4784718 15.0351342,27.5261784 14.9652983,26.5807043 L14.9309389,26.0304473 L14.91,25.499 L13.2,25.4999994 C11.8362806,25.4999994 10.6831527,24.3311605 10.5198016,22.9574166 L10.5050003,22.7916455 L10.5,22.6242775 C10.5,21.4240041 11.2851436,20.4070781 12.370287,20.0574661 L12.5352478,20.0100896 L12.675,19.979 L12.6771243,19.868244 C12.7570676,17.1215261 13.2060798,14.5040676 14.0209681,12.0003562 L5.20383112,11.9994028 L5.20383112,11.9994028 Z M24.7962802,11.9983488 L15.0749963,12.0000338 C14.2256031,14.5028706 13.7588909,17.1232725 13.6771537,19.8819049 L13.669,20.249 C13.7492681,20.491594 13.6629077,20.7831407 13.4092288,20.8879219 L13.3184712,20.9156084 L13.2153099,20.9275112 L13.0532925,20.9339743 C12.2796534,20.9999605 11.6540799,21.5829617 11.5246146,22.3350134 L11.5062386,22.4779192 L11.5,22.6242775 C11.5,23.5573606 12.2258774,24.4104248 13.0663238,24.4933985 L13.1998889,24.4999994 L15.4005827,24.499511 C15.6752542,24.49945 15.8985471,24.7209674 15.9006787,24.9956307 C15.9114705,26.3861713 16.0509884,27.7944594 16.3194716,29.2206106 C18.1302631,28.6712757 19.5346808,27.3686299 20.0416225,25.7942141 C20.1431847,25.4787909 20.4812181,25.3054224 20.7966413,25.4069846 C21.1120644,25.5085468 21.285433,25.8465802 21.1838708,26.1620034 C20.543069,28.1521503 18.7930184,29.7560215 16.5707506,30.3996712 C16.973347,32.1074585 17.5599113,33.8418724 18.3296578,35.6018302 C24.4544878,34.1071791 29,28.5844202 29,22 C29,18.0817751 27.3903685,14.5394998 24.7962802,11.9983488 Z M13.1181422,33.8591877 C13.4006223,33.8591877 13.6296176,34.0830454 13.6296176,34.3591877 C13.6296176,34.6353301 13.4006223,34.8591877 13.1181422,34.8591877 C12.8356622,34.8591877 12.6066668,34.6353301 12.6066668,34.3591877 C12.6066668,34.0830454 12.8356622,33.8591877 13.1181422,33.8591877 Z M15.46,33.8591877 C15.7361424,33.8591877 15.96,34.0830454 15.96,34.3591877 C15.96,34.6353301 15.7361424,34.8591877 15.46,34.8591877 C15.1838577,34.8591877 14.96,34.6353301 14.96,34.3591877 C14.96,34.0830454 15.1838577,33.8591877 15.46,33.8591877 Z M10.3648089,33.0901706 C10.6472889,33.0901706 10.8762843,33.3140283 10.8762843,33.5901706 C10.8762843,33.866313 10.6472889,34.0901706 10.3648089,34.0901706 C10.0823288,34.0901706 9.85333347,33.866313 9.85333347,33.5901706 C9.85333347,33.3140283 10.0823288,33.0901706 10.3648089,33.0901706 Z M7.61147552,31.5521364 C7.89395558,31.5521364 8.12295093,31.7759941 8.12295093,32.0521364 C8.12295093,32.3282788 7.89395558,32.5521364 7.61147552,32.5521364 C7.32899545,32.5521364 7.10000011,32.3282788 7.10000011,32.0521364 C7.10000011,31.7759941 7.32899545,31.5521364 7.61147552,31.5521364 Z M14.6914756,31.5521364 C14.9739557,31.5521364 15.202951,31.7759941 15.202951,32.0521364 C15.202951,32.3282788 14.9739557,32.5521364 14.6914756,32.5521364 C14.4089955,32.5521364 14.1800002,32.3282788 14.1800002,32.0521364 C14.1800002,31.7759941 14.4089955,31.5521364 14.6914756,31.5521364 Z M12.3314756,31.5521364 C12.6139556,31.5521364 12.842951,31.7759941 12.842951,32.0521364 C12.842951,32.3282788 12.6139556,32.5521364 12.3314756,32.5521364 C12.0489955,32.5521364 11.8200002,32.3282788 11.8200002,32.0521364 C11.8200002,31.7759941 12.0489955,31.5521364 12.3314756,31.5521364 Z M9.97147554,30.7831193 C10.2539556,30.7831193 10.4829509,31.006977 10.4829509,31.2831193 C10.4829509,31.5592617 10.2539556,31.7831193 9.97147554,31.7831193 C9.68899547,31.7831193 9.46000013,31.5592617 9.46000013,31.2831193 C9.46000013,31.006977 9.68899547,30.7831193 9.97147554,30.7831193 Z M5.64480883,29.6295937 C5.9272889,29.6295937 6.15628424,29.8534513 6.15628424,30.1295937 C6.15628424,30.4057361 5.9272889,30.6295937 5.64480883,30.6295937 C5.36232876,30.6295937 5.13333342,30.4057361 5.13333342,30.1295937 C5.13333342,29.8534513 5.36232876,29.6295937 5.64480883,29.6295937 Z M8.00480885,29.2450851 C8.28728892,29.2450851 8.51628426,29.4689428 8.51628426,29.7450851 C8.51628426,30.0212275 8.28728892,30.2450851 8.00480885,30.2450851 C7.72232878,30.2450851 7.49333344,30.0212275 7.49333344,29.7450851 C7.49333344,29.4689428 7.72232878,29.2450851 8.00480885,29.2450851 Z M4.07147548,27.7070509 C4.35395555,27.7070509 4.58295089,27.9309085 4.58295089,28.2070509 C4.58295089,28.4831933 4.35395555,28.7070509 4.07147548,28.7070509 C3.78899541,28.7070509 3.56000007,28.4831933 3.56000007,28.2070509 C3.56000007,27.9309085 3.78899541,27.7070509 4.07147548,27.7070509 Z M6.4314755,27.3225424 C6.71395557,27.3225424 6.94295091,27.5464 6.94295091,27.8225424 C6.94295091,28.0986847 6.71395557,28.3225424 6.4314755,28.3225424 C6.14899544,28.3225424 5.92000009,28.0986847 5.92000009,27.8225424 C5.92000009,27.5464 6.14899544,27.3225424 6.4314755,27.3225424 Z M13.5114756,27.3225424 C13.7939556,27.3225424 14.022951,27.5464 14.022951,27.8225424 C14.022951,28.0986847 13.7939556,28.3225424 13.5114756,28.3225424 C13.2289955,28.3225424 13.0000002,28.0986847 13.0000002,27.8225424 C13.0000002,27.5464 13.2289955,27.3225424 13.5114756,27.3225424 Z M11.1514756,26.1690167 C11.4339556,26.1690167 11.662951,26.3928743 11.662951,26.6690167 C11.662951,26.9451591 11.4339556,27.1690167 11.1514756,27.1690167 C10.8689955,27.1690167 10.6400001,26.9451591 10.6400001,26.6690167 C10.6400001,26.3928743 10.8689955,26.1690167 11.1514756,26.1690167 Z M8.00480885,25.7845082 C8.28728892,25.7845082 8.51628426,26.0083658 8.51628426,26.2845082 C8.51628426,26.5606505 8.28728892,26.7845082 8.00480885,26.7845082 C7.72232878,26.7845082 7.49333344,26.5606505 7.49333344,26.2845082 C7.49333344,26.0083658 7.72232878,25.7845082 8.00480885,25.7845082 Z M3.28480881,25.3999996 C3.56728888,25.3999996 3.79628422,25.6238572 3.79628422,25.8999996 C3.79628422,26.176142 3.56728888,26.3999996 3.28480881,26.3999996 C3.00232874,26.3999996 2.7733334,26.176142 2.7733334,25.8999996 C2.7733334,25.6238572 3.00232874,25.3999996 3.28480881,25.3999996 Z M19.7653049,21.9528976 C20.626656,21.5524856 21.4904279,21.5160319 22.3232055,21.8513047 C23.1448472,22.1820942 23.7640079,22.7864056 24.1665303,23.6420737 C24.2840763,23.8919488 24.1768023,24.1898024 23.9269272,24.3073483 C23.6770521,24.4248943 23.3791985,24.3176203 23.2616526,24.0677452 C22.9641934,23.4354169 22.5316084,23.0132065 21.9497399,22.7789487 C21.3790073,22.5491742 20.8025152,22.5735038 20.1868484,22.8597058 C19.9364402,22.9761118 19.6390785,22.8674816 19.5226725,22.6170734 C19.4062665,22.3666652 19.5148968,22.0693036 19.7653049,21.9528976 Z M7.75,14 C8.16421356,14 8.5,14.3357864 8.5,14.75 L8.5,19.25 C8.5,19.6642136 8.16421356,20 7.75,20 C7.33578644,20 7,19.6642136 7,19.25 L7,14.75 C7,14.3357864 7.33578644,14 7.75,14 Z M22.25,14 C22.6642136,14 23,14.3357864 23,14.75 L23,20 L21.5,19.1428571 L21.5,14.75 C21.5,14.3357864 21.8357864,14 22.25,14 Z M27.74,11.061 L26.4693426,12.3323175 C26.7877376,12.7096618 27.0878495,13.1029356 27.3683121,13.5107728 L28.822,12.056 L27.74,11.061 Z M29.3473714,9.45349657 L28.448,10.353 L29.53,11.348 L30.5116432,10.3681836 C30.3347311,10.2777986 30.158811,10.171677 29.9849085,10.0493836 L29.808131,9.91891295 C29.6299029,9.78106446 29.4767584,9.62440872 29.3473714,9.45349657 Z M24.75,9.5 L5.25,9.5 L5.14009328,9.50799583 L5.03703078,9.53066794 L4.93932008,9.56717288 L4.89764776,9.58775342 L4.85177592,9.61433771 L4.85177592,9.61433771 L4.8085215,9.6436377 L4.8085215,9.6436377 L4.7689804,9.67454601 L4.7689804,9.67454601 L4.7320625,9.70755865 L4.69230694,9.74851398 C4.66050775,9.78385419 4.63201945,9.82223289 4.60733047,9.86316167 C4.5373096,9.98257175 4.5,10.1119288 4.5,10.25 C4.5,10.6296958 4.78215388,10.943491 5.14822944,10.9931534 L5.235,10.999 L24.7643221,10.999866 C25.1719262,10.9922321 25.5,10.6594289 25.5,10.25 C25.5,9.93933983 25.3111201,9.67279491 25.0419338,9.55893872 L24.9041382,9.51585493 L24.9041382,9.51585493 L24.8395326,9.50534755 L24.8395326,9.50534755 L24.75,9.5 Z M33.7076532,4.495089 C33.3025514,5.23169614 32.4922375,5.59999971 31.2767117,5.59999971 C29.9882901,5.59999971 29.1242328,8.12575746 30.4199308,9.12790026 C33.3495819,11.3938055 35.9892062,7.12547637 33.7076532,4.495089 Z M33.1973491,6.60063738 L33.2782984,6.60408314 C33.496957,6.63556853 33.648691,6.83835038 33.6172056,7.05700906 C33.4561378,8.17558674 32.7843321,8.7889524 31.7,8.7889524 C31.4790861,8.7889524 31.3,8.6098663 31.3,8.3889524 C31.3,8.1680385 31.4790861,7.9889524 31.7,7.9889524 C32.3773867,7.9889524 32.7197736,7.6763496 32.8253724,6.94299036 C32.8529221,6.75166401 33.0116207,6.61157693 33.1973491,6.60063738 Z M23.2702706,2.47529286 L23.0929059,2.49227788 L5.54271206,4.6860521 C4.37573429,4.83192432 3.5,5.82394056 3.5,7 C3.5,7.71618593 3.87644139,8.34444927 4.442253,8.69771885 C4.63583746,8.59643908 4.85028416,8.53066688 5.07740803,8.50840919 L5.25,8.5 L24.7995125,8.50068694 L24.7995125,8.50068694 C25.8184944,7.89035996 26.5,6.77476705 26.5,5.5 L26.4941427,5.31165341 L26.4765932,5.12403473 L26.4493966,4.94794644 C26.1819532,3.49662634 24.9054052,2.45593611 23.4461992,2.46866753 L23.2702706,2.47529286 Z" id="Shape"></path>
            <path d="M27.74,11.061 L28.822,12.056 L27.3683121,13.5107728 C27.0878495,13.1029356 26.7877376,12.7096618 26.4693426,12.3323175 L26.4693426,12.3323175 L27.74,11.061 Z M29.3473714,9.45349657 C29.4767584,9.62440872 29.6299029,9.78106446 29.808131,9.91891295 L29.808131,9.91891295 L29.9849085,10.0493836 C30.158811,10.171677 30.3347311,10.2777986 30.5116432,10.3681836 L30.5116432,10.3681836 L29.53,11.348 L28.448,10.353 Z M33.7076532,4.495089 C35.9892062,7.12547637 33.3495819,11.3938055 30.4199308,9.12790026 C29.1242328,8.12575746 29.9882901,5.59999971 31.2767117,5.59999971 C32.4922375,5.59999971 33.3025514,5.23169614 33.7076532,4.495089 Z" id="Combined-Shape" opacity="0.0299999993"></path>
            <path d="M24.75,9.5 L24.8395326,9.50534755 L24.9041382,9.51585493 L25.0419338,9.55893872 C25.3111201,9.67279491 25.5,9.93933983 25.5,10.25 C25.5,10.6594289 25.1719262,10.9922321 24.7643221,10.999866 L24.7643221,10.999866 L5.235,10.999 L5.14822944,10.9931534 C4.78215388,10.943491 4.5,10.6296958 4.5,10.25 C4.5,10.1119288 4.5373096,9.98257175 4.60733047,9.86316167 C4.63201945,9.82223289 4.66050775,9.78385419 4.69230694,9.74851398 L4.69230694,9.74851398 L4.7320625,9.70755865 L4.7689804,9.67454601 L4.8085215,9.6436377 L4.85177592,9.61433771 L4.89764776,9.58775342 L4.93932008,9.56717288 L5.03703078,9.53066794 L5.14009328,9.50799583 L5.25,9.5 L24.75,9.5 Z M23.4461992,2.46866753 C24.9054052,2.45593611 26.1819532,3.49662634 26.4493966,4.94794644 L26.4493966,4.94794644 L26.4765932,5.12403473 L26.4941427,5.31165341 L26.5,5.5 C26.5,6.77476705 25.8184944,7.89035996 24.7995125,8.50068694 L24.7995125,8.50068694 L5.25,8.5 L5.07740803,8.50840919 C4.85028416,8.53066688 4.63583746,8.59643908 4.442253,8.69771885 C3.87644139,8.34444927 3.5,7.71618593 3.5,7 C3.5,5.82394056 4.37573429,4.83192432 5.54271206,4.6860521 L5.54271206,4.6860521 L23.0929059,2.49227788 L23.2702706,2.47529286 Z" id="Combined-Shape" opacity="0.1"></path>
            <path d="M5.20383112,11.9994028 L5.01952327,12.1821506 C2.5336534,14.7089385 1,18.1753673 1,22 C1,29.7319865 7.2680135,36 15,36 C15.7940959,36 16.5727501,35.933886 17.3307583,35.8068621 C16.5756634,34.0547694 15.9965064,32.3239055 15.5932652,30.6143756 C13.1577135,30.9875692 10.7704964,30.1589321 9.35414672,28.4613964 C9.1418547,28.2069583 9.17602083,27.8285988 9.43045891,27.6163068 C9.68489699,27.4040147 10.0632565,27.4381809 10.2755485,27.692619 C11.4015444,29.0421574 13.335316,29.7239194 15.3431213,29.4387196 C15.1609762,28.4784718 15.0351342,27.5261784 14.9652983,26.5807043 L14.9309389,26.0304473 L14.91,25.499 L13.2,25.4999994 C11.8362806,25.4999994 10.6831527,24.3311605 10.5198016,22.9574166 L10.5050003,22.7916455 L10.5,22.6242775 C10.5,21.4240041 11.2851436,20.4070781 12.370287,20.0574661 L12.5352478,20.0100896 L12.675,19.979 L12.6771243,19.868244 C12.7570676,17.1215261 13.2060798,14.5040676 14.0209681,12.0003562 L5.20383112,11.9994028 L5.20383112,11.9994028 Z" id="Path" opacity="0.03"></path>
        </g>
    </g>
</svg>