<?xml version="1.0" encoding="UTF-8"?>
<svg width="72px" height="72px" viewBox="0 0 72 72" version="1.1" xmlns="http://www.w3.org/2000/svg" xmlns:xlink="http://www.w3.org/1999/xlink">
    <title>avatar.words</title>
    <g id="avatar.words" stroke="none" stroke-width="1" fill="none" fill-rule="evenodd">
        <path d="M36,21 C36.482496,21 36.9596713,21.022781 37.4305088,21.067326 L37.9668217,21.1277884 L38.2686772,21.1704471 C45.4766203,22.2641653 51,28.4870554 51,36 C51,43.1931168 45.9368738,49.2036771 39.1800658,50.6622366 L38.9240548,50.7151487 C37.9783628,50.9020226 37.0006233,51 36,51 C27.7157288,51 21,44.2842712 21,36 C21,27.7157288 27.7157288,21 36,21 Z M36,22 C28.2680135,22 22,28.2680135 22,36 C22,43.7319865 28.2680135,50 36,50 C36.7940959,50 37.5727501,49.933886 38.3307583,49.8068621 C37.57488,48.0543014 36.9961246,46.3235385 36.5930739,44.6140841 C34.1570604,44.9873425 31.7703027,44.1586999 30.3541467,42.4613964 C30.1418547,42.2069583 30.1760208,41.8285988 30.4304589,41.6163068 C30.684897,41.4040147 31.0632565,41.4381809 31.2755485,41.692619 C32.4016774,43.0423168 34.3357729,43.7240805 36.3438329,43.4386185 C36.160962,42.4783646 36.0351302,41.5261251 35.9652983,40.5807043 L35.9309389,40.0304473 L35.91,39.499 L34.2,39.5 C32.8362806,39.5 31.6831527,38.3311605 31.5198016,36.9574166 L31.5050003,36.7916455 L31.5,36.6242775 C31.5,35.4240041 32.2851436,34.4070781 33.370287,34.0574661 L33.5352478,34.0100896 L33.675,33.979 L33.6771243,33.868244 C33.8005141,29.6287791 34.8031317,25.6972468 36.6732372,22.0166098 C36.4511827,22.0053654 36.2262179,22 36,22 Z M37.7516806,22.1085237 L37.7269215,22.1560383 C35.8210586,25.7922194 34.8017601,29.6764366 34.6771537,33.8819049 L34.669,34.249 C34.7492681,34.491594 34.6629077,34.7831407 34.4092288,34.8879219 L34.3184712,34.9156084 L34.2153099,34.9275112 L34.0532925,34.9339743 C33.2796534,34.9999605 32.6540799,35.5829617 32.5246146,36.3350134 L32.5062386,36.4779192 L32.5,36.6242775 C32.5,37.5573606 33.2258774,38.4104248 34.0663238,38.4933985 L34.1998889,38.4999994 L36.4005827,38.499511 C36.6752542,38.49945 36.8985471,38.7209674 36.9006787,38.9956307 C36.9114707,40.3861904 37.0509923,41.7944979 37.3194827,43.2206691 C39.1302631,42.6712757 40.5346808,41.3686299 41.0416225,39.7942141 C41.1431847,39.4787909 41.4812181,39.3054224 41.7966413,39.4069846 C42.1120644,39.5085468 42.285433,39.8465802 42.1838708,40.1620034 C41.5431182,42.1519973 39.7932875,43.7557749 37.5712632,44.3995228 C37.9733605,46.1074702 38.5598705,47.841736 39.3295315,49.6015414 C45.4549734,48.1065891 50,42.5840685 50,36 C50,28.8612482 44.6569122,22.9704415 37.7516806,22.1085237 Z M34.1181422,47.8591877 C34.4006223,47.8591877 34.6296176,48.0830454 34.6296176,48.3591877 C34.6296176,48.6353301 34.4006223,48.8591877 34.1181422,48.8591877 C33.8356622,48.8591877 33.6066668,48.6353301 33.6066668,48.3591877 C33.6066668,48.0830454 33.8356622,47.8591877 34.1181422,47.8591877 Z M36.46,47.8591877 C36.7361424,47.8591877 36.96,48.0830454 36.96,48.3591877 C36.96,48.6353301 36.7361424,48.8591877 36.46,48.8591877 C36.1838577,48.8591877 35.96,48.6353301 35.96,48.3591877 C35.96,48.0830454 36.1838577,47.8591877 36.46,47.8591877 Z M31.3648089,47.0901706 C31.6472889,47.0901706 31.8762843,47.3140283 31.8762843,47.5901706 C31.8762843,47.866313 31.6472889,48.0901706 31.3648089,48.0901706 C31.0823288,48.0901706 30.8533335,47.866313 30.8533335,47.5901706 C30.8533335,47.3140283 31.0823288,47.0901706 31.3648089,47.0901706 Z M28.6114755,45.5521364 C28.8939556,45.5521364 29.1229509,45.7759941 29.1229509,46.0521364 C29.1229509,46.3282788 28.8939556,46.5521364 28.6114755,46.5521364 C28.3289954,46.5521364 28.1000001,46.3282788 28.1000001,46.0521364 C28.1000001,45.7759941 28.3289954,45.5521364 28.6114755,45.5521364 Z M35.6914756,45.5521364 C35.9739557,45.5521364 36.202951,45.7759941 36.202951,46.0521364 C36.202951,46.3282788 35.9739557,46.5521364 35.6914756,46.5521364 C35.4089955,46.5521364 35.1800002,46.3282788 35.1800002,46.0521364 C35.1800002,45.7759941 35.4089955,45.5521364 35.6914756,45.5521364 Z M33.3314756,45.5521364 C33.6139556,45.5521364 33.842951,45.7759941 33.842951,46.0521364 C33.842951,46.3282788 33.6139556,46.5521364 33.3314756,46.5521364 C33.0489955,46.5521364 32.8200002,46.3282788 32.8200002,46.0521364 C32.8200002,45.7759941 33.0489955,45.5521364 33.3314756,45.5521364 Z M30.9714755,44.7831193 C31.2539556,44.7831193 31.4829509,45.006977 31.4829509,45.2831193 C31.4829509,45.5592617 31.2539556,45.7831193 30.9714755,45.7831193 C30.6889955,45.7831193 30.4600001,45.5592617 30.4600001,45.2831193 C30.4600001,45.006977 30.6889955,44.7831193 30.9714755,44.7831193 Z M26.6448088,43.6295937 C26.9272889,43.6295937 27.1562842,43.8534513 27.1562842,44.1295937 C27.1562842,44.4057361 26.9272889,44.6295937 26.6448088,44.6295937 C26.3623288,44.6295937 26.1333334,44.4057361 26.1333334,44.1295937 C26.1333334,43.8534513 26.3623288,43.6295937 26.6448088,43.6295937 Z M29.0048089,43.2450851 C29.2872889,43.2450851 29.5162843,43.4689428 29.5162843,43.7450851 C29.5162843,44.0212275 29.2872889,44.2450851 29.0048089,44.2450851 C28.7223288,44.2450851 28.4933334,44.0212275 28.4933334,43.7450851 C28.4933334,43.4689428 28.7223288,43.2450851 29.0048089,43.2450851 Z M25.0714755,41.7070509 C25.3539555,41.7070509 25.5829509,41.9309085 25.5829509,42.2070509 C25.5829509,42.4831933 25.3539555,42.7070509 25.0714755,42.7070509 C24.7889954,42.7070509 24.5600001,42.4831933 24.5600001,42.2070509 C24.5600001,41.9309085 24.7889954,41.7070509 25.0714755,41.7070509 Z M27.4314755,41.3225424 C27.7139556,41.3225424 27.9429509,41.5464 27.9429509,41.8225424 C27.9429509,42.0986847 27.7139556,42.3225424 27.4314755,42.3225424 C27.1489954,42.3225424 26.9200001,42.0986847 26.9200001,41.8225424 C26.9200001,41.5464 27.1489954,41.3225424 27.4314755,41.3225424 Z M34.5114756,41.3225424 C34.7939556,41.3225424 35.022951,41.5464 35.022951,41.8225424 C35.022951,42.0986847 34.7939556,42.3225424 34.5114756,42.3225424 C34.2289955,42.3225424 34.0000002,42.0986847 34.0000002,41.8225424 C34.0000002,41.5464 34.2289955,41.3225424 34.5114756,41.3225424 Z M32.1514756,40.1690167 C32.4339556,40.1690167 32.662951,40.3928743 32.662951,40.6690167 C32.662951,40.9451591 32.4339556,41.1690167 32.1514756,41.1690167 C31.8689955,41.1690167 31.6400001,40.9451591 31.6400001,40.6690167 C31.6400001,40.3928743 31.8689955,40.1690167 32.1514756,40.1690167 Z M29.0048089,39.7845082 C29.2872889,39.7845082 29.5162843,40.0083658 29.5162843,40.2845082 C29.5162843,40.5606505 29.2872889,40.7845082 29.0048089,40.7845082 C28.7223288,40.7845082 28.4933334,40.5606505 28.4933334,40.2845082 C28.4933334,40.0083658 28.7223288,39.7845082 29.0048089,39.7845082 Z M24.2848088,39.3999996 C24.5672889,39.3999996 24.7962842,39.6238572 24.7962842,39.8999996 C24.7962842,40.176142 24.5672889,40.3999996 24.2848088,40.3999996 C24.0023287,40.3999996 23.7733334,40.176142 23.7733334,39.8999996 C23.7733334,39.6238572 24.0023287,39.3999996 24.2848088,39.3999996 Z M43.3232055,35.8513047 C44.1448472,36.1820942 44.7640079,36.7864056 45.1665303,37.6420737 C45.2840763,37.8919488 45.1768023,38.1898024 44.9269272,38.3073483 C44.6770521,38.4248943 44.3791985,38.3176203 44.2616526,38.0677452 C43.9641934,37.4354169 43.5316084,37.0132065 42.9497399,36.7789487 C42.3790073,36.5491742 41.8025152,36.5735038 41.1868484,36.8597058 C40.9364402,36.9761118 40.6390785,36.8674816 40.5226725,36.6170734 C40.4062665,36.3666652 40.5148968,36.0693036 40.7653049,35.9528976 C41.626656,35.5524856 42.4904279,35.5160319 43.3232055,35.8513047 Z M10,17.3636729 C15.4685704,17.3636729 19.9285456,21.2156161 19.9285456,26.0065078 L19.9230641,26.2958421 C19.8245954,28.8918463 18.4048839,31.2644819 16.095,32.831 C16.1164061,32.9858666 16.1543388,33.1783568 16.2163005,33.4075847 C16.4018931,34.0941863 16.7384935,34.8273799 17.2658181,35.5755799 L17.818279,36.3594448 L16.8593004,36.3637272 C15.5825363,36.3691764 14.4310371,35.9554148 13.4261431,35.2662909 L13.2337345,35.1299374 C12.9239846,34.9031027 12.6690443,34.6798213 12.4712241,34.4818022 L12.3884544,34.3956729 L12.2491571,34.4269873 C11.5175406,34.5742438 10.7643955,34.6493427 10,34.6493427 C4.53171305,34.6493427 0.0714543733,30.7972756 0.0714543733,26.0065078 C0.0714543733,21.21574 4.53171305,17.3636729 10,17.3636729 Z M10,18.3636729 C5.05409206,18.3636729 1.07145437,21.8032464 1.07145437,26.0065078 C1.07145437,30.2097692 5.05409206,33.6493427 10,33.6493427 C10.8375456,33.6493427 11.6591717,33.5507352 12.4488104,33.3584033 L12.7577783,33.2831481 L12.9569355,33.5310613 C12.9956773,33.5792876 13.0815421,33.6750239 13.2117015,33.8024276 C13.4336826,34.0197091 13.6947408,34.2379367 13.9917014,34.4415826 L14.2060762,34.5820064 C14.711673,34.8978496 15.2548319,35.1299399 15.8322228,35.2558836 L15.894,35.267 L15.8314942,35.1543174 C15.31883,34.1927605 15.1060442,33.3497787 15.0767074,32.7261334 L15.0731278,32.5747159 L15.0735301,32.2999078 L15.3054266,32.1529054 C17.5719864,30.7161018 18.9285456,28.4541959 18.9285456,26.0065078 C18.9285456,21.8031146 14.9461856,18.3636729 10,18.3636729 Z M43.25,28 C43.6642136,28 44,28.3357864 44,28.75 L44,34 L42.5,33.1428571 L42.5,28.75 C42.5,28.3357864 42.8357864,28 43.25,28 Z M28.75,28 C29.1642136,28 29.5,28.3357864 29.5,28.75 L29.5,33.25 C29.5,33.6642136 29.1642136,34 28.75,34 C28.3357864,34 28,33.6642136 28,33.25 L28,28.75 C28,28.3357864 28.3357864,28 28.75,28 Z M6,25 C6.55228475,25 7,25.4477153 7,26 C7,26.5522847 6.55228475,27 6,27 C5.44771525,27 5,26.5522847 5,26 C5,25.4477153 5.44771525,25 6,25 Z M10,25 C10.5522847,25 11,25.4477153 11,26 C11,26.5522847 10.5522847,27 10,27 C9.44771525,27 9,26.5522847 9,26 C9,25.4477153 9.44771525,25 10,25 Z M14,25 C14.5522847,25 15,25.4477153 15,26 C15,26.5522847 14.5522847,27 14,27 C13.4477153,27 13,26.5522847 13,26 C13,25.4477153 13.4477153,25 14,25 Z" id="Shape" fill="#000000" fill-rule="nonzero"></path>
        <path d="M10,18.3636729 C5.05409206,18.3636729 1.07145437,21.8032464 1.07145437,26.0065078 C1.07145437,30.2097692 5.05409206,33.6493427 10,33.6493427 C10.8375456,33.6493427 11.6591717,33.5507352 12.4488104,33.3584033 L12.7577783,33.2831481 L12.9569355,33.5310613 C12.9956773,33.5792876 13.0815421,33.6750239 13.2117015,33.8024276 C13.4336826,34.0197091 13.6947408,34.2379367 13.9917014,34.4415826 L14.2060762,34.5820064 C14.711673,34.8978496 15.2548319,35.1299399 15.8322228,35.2558836 L15.894,35.267 L15.8314942,35.1543174 C15.31883,34.1927605 15.1060442,33.3497787 15.0767074,32.7261334 L15.0731278,32.5747159 L15.0735301,32.2999078 L15.3054266,32.1529054 C17.5719864,30.7161018 18.9285456,28.4541959 18.9285456,26.0065078 C18.9285456,21.8031146 14.9461856,18.3636729 10,18.3636729 Z" id="Path" fill="#000000" fill-rule="nonzero" opacity="0.03"></path>
        <path d="M36,22 C28.2680135,22 22,28.2680135 22,36 C22,43.7319865 28.2680135,50 36,50 C36.7940959,50 37.5727501,49.933886 38.3307583,49.8068621 C37.57488,48.0543014 36.9961246,46.3235385 36.5930739,44.6140841 C34.1570604,44.9873425 31.7703027,44.1586999 30.3541467,42.4613964 C30.1418547,42.2069583 30.1760208,41.8285988 30.4304589,41.6163068 C30.684897,41.4040147 31.0632565,41.4381809 31.2755485,41.692619 C32.4016774,43.0423168 34.3357729,43.7240805 36.3438329,43.4386185 C36.160962,42.4783646 36.0351302,41.5261251 35.9652983,40.5807043 L35.9309389,40.0304473 L35.91,39.499 L34.2,39.5 C32.8362806,39.5 31.6831527,38.3311605 31.5198016,36.9574166 L31.5050003,36.7916455 L31.5,36.6242775 C31.5,35.4240041 32.2851436,34.4070781 33.370287,34.0574661 L33.5352478,34.0100896 L33.675,33.979 L33.6771243,33.868244 C33.8005141,29.6287791 34.8031317,25.6972468 36.6732372,22.0166098 C36.4511827,22.0053654 36.2262179,22 36,22 Z" id="Path" fill="#000000" fill-rule="nonzero" opacity="0.03"></path>
    </g>
</svg>