<?xml version="1.0" encoding="UTF-8"?>
<svg width="72px" height="72px" viewBox="0 0 72 72" version="1.1" xmlns="http://www.w3.org/2000/svg" xmlns:xlink="http://www.w3.org/1999/xlink">
    <title>avatar.resume</title>
    <g id="avatar.resume" stroke="none" stroke-width="1" fill="none" fill-rule="evenodd">
        <path d="M38.8372039,12.7747473 L38.9860508,12.787155 L39.126209,12.8091093 L39.2644584,12.840944 L45.5825511,14.5338719 C46.6494833,14.8197555 47.2826483,15.9164294 46.9967647,16.9833616 L46.9552097,17.1190064 L46.9041435,17.2513642 L45.0321068,21.6322788 L45.9243635,21.8723935 C46.9427988,22.1452824 47.566004,23.1569286 47.3719102,24.1762871 L47.338577,24.3218832 C47.2184824,24.7700826 46.9553083,25.1417354 46.6113647,25.400867 C49.3226743,28.1114535 51,31.8598465 51,36 C51,41.5032225 48.0364062,46.3142606 43.6181108,48.9242222 C43.9717513,49.1608842 44.2522048,49.5131979 44.3973666,49.9486833 C44.4483498,50.101633 44.4805895,50.259997 44.4935229,50.4203077 L44.5,50.5811388 L44.5,53.4188612 C44.5,54.5234307 43.6045695,55.4188612 42.5,55.4188612 C42.3387769,55.4188612 42.1783445,55.3993673 42.0221705,55.3609423 L41.8675445,55.3162278 L38.8675445,54.3162278 C38.5415871,54.2075753 38.2579753,54.0205399 38.0348316,53.7802651 C37.7066948,54.1758925 37.2264359,54.4423758 36.6832648,54.4917162 L36.5,54.5 L35.5,54.5 C34.8821663,54.5 34.3297649,54.2198511 33.9628961,53.7796535 C33.7420247,54.0205399 33.4584129,54.2075753 33.1324555,54.3162278 L30.1324555,55.3162278 C29.9285226,55.3842054 29.7149642,55.4188612 29.5,55.4188612 C28.3954305,55.4188612 27.5,54.5234307 27.5,53.4188612 L27.5,50.5811388 C27.5,50.3661746 27.5346558,50.1526162 27.6026334,49.9486833 C27.7477952,49.5131979 28.0282487,49.1608842 28.3816856,48.9228961 C23.9639847,46.3148953 21,41.5035855 21,36 C21,28.8073927 26.062409,22.7971743 32.8184984,21.3380734 C32.7614219,21.0485636 32.7684256,20.742879 32.8496896,20.4395976 C33.1225786,19.4211623 34.1342247,18.797957 35.1535832,18.9920509 L35.2991794,19.025384 L36.1909877,19.263308 L36.7611796,14.5335652 C36.8872974,13.4867734 37.8006415,12.7267633 38.8372039,12.7747473 Z M28.594578,50.156402 L28.5513167,50.2649111 C28.5173279,50.3668775 28.5,50.4736567 28.5,50.5811388 L28.5,53.4188612 C28.5,53.9711459 28.9477153,54.4188612 29.5,54.4188612 C29.6074821,54.4188612 29.7142613,54.4015333 29.8162278,54.3675445 L32.8162278,53.3675445 C33.2245699,53.2314304 33.5,52.8492916 33.5,52.4188612 L33.5,51.5811388 C33.5,51.1988384 33.2827223,50.8546335 32.9480232,50.6870675 C31.7959347,50.4506612 30.6931691,50.0808834 29.6551332,49.595702 C29.2187919,49.5239154 28.7834083,49.7525604 28.594578,50.156402 Z M42.4096484,49.5850028 L42.346591,49.5951448 C41.3462912,50.0629139 40.2858598,50.4235342 39.1800658,50.6622366 L39.0499228,50.6880988 C38.7505976,50.8388179 38.5456198,51.130991 38.5067218,51.4650946 L38.5,51.5811388 L38.5,52.4188612 C38.5,52.8101615 38.7276282,53.1615515 39.0758086,53.3244712 L39.1837722,53.3675445 L42.1837722,54.3675445 C42.2857387,54.4015333 42.3925179,54.4188612 42.5,54.4188612 C43.0128358,54.4188612 43.4355072,54.032821 43.4932723,53.5354823 L43.5,53.4188612 L43.5,50.5811388 C43.5,50.5094841 43.4922987,50.4381418 43.4770938,50.3683296 L43.4486833,50.2649111 L43.405422,50.156402 C43.2439202,49.8110063 42.9020656,49.5937662 42.5333412,49.5814231 L42.4096484,49.5850028 Z M36.5,50.5 L35.5,50.5 L35.3550634,50.5104267 L35.3550634,50.5104267 L35.2588649,50.5292662 L35.1468531,50.5641428 L35.041679,50.6109783 L34.9979016,50.6349995 L34.897921,50.7014925 L34.8487288,50.7411315 L34.7738782,50.8124306 L34.7738782,50.8124306 L34.7360617,50.8546775 C34.6124108,51.0009083 34.5299874,51.1831209 34.5067277,51.3833789 L34.5,51.5 L34.5,52.5 C34.5,53.0128358 34.8860402,53.4355072 35.3833789,53.4932723 L35.5,53.5 L36.5,53.5 C37.0128358,53.5 37.4355072,53.1139598 37.4932723,52.6166211 L37.5,52.5 L37.5,51.5 C37.5,51.3027554 37.4428935,51.1188488 37.344312,50.9639118 L37.258413,50.8499429 L37.258413,50.8499429 L37.1788033,50.7667368 L37.1133401,50.7101225 L37.1133401,50.7101225 L37.0629459,50.673389 L36.9581384,50.610884 L36.8526946,50.5639721 L36.7832036,50.5407154 L36.7405152,50.5291129 C36.7011014,50.5193815 36.6607667,50.5119875 36.6196667,50.5070862 L36.5,50.5 Z M42,51.5 C42.2761424,51.5 42.5,51.7238576 42.5,52 C42.5,52.2761424 42.2761424,52.5 42,52.5 L40,52.5 C39.7238576,52.5 39.5,52.2761424 39.5,52 C39.5,51.7238576 39.7238576,51.5 40,51.5 L42,51.5 Z M32,51.5 C32.2761424,51.5 32.5,51.7238576 32.5,52 C32.5,52.2761424 32.2761424,52.5 32,52.5 L30,52.5 C29.7238576,52.5 29.5,52.2761424 29.5,52 C29.5,51.7238576 29.7238576,51.5 30,51.5 L32,51.5 Z M33.2702619,22.2675151 L33.0754292,22.3059304 C26.747323,23.6507971 22,29.2710002 22,36 C22,41.5727338 25.2559996,46.3849882 29.9693836,48.6381477 C30.0238382,48.6500911 30.0782602,48.6657071 30.1324555,48.6837722 L33.1324555,49.6837722 L33.2564654,49.7312896 C33.6016437,49.7998721 33.9513927,49.8557641 34.3052056,49.8984587 C34.5922102,49.681693 34.9393773,49.542538 35.3168701,49.5082718 L35.5,49.5 L36.5,49.5 C36.9477067,49.5 37.3610548,49.6471069 37.6943448,49.8956213 C37.9078291,49.8727628 38.1200911,49.8421648 38.3307583,49.8068621 C37.57488,48.0543014 36.9961246,46.3235385 36.5930739,44.6140841 C34.1570604,44.9873425 31.7703027,44.1586999 30.3541467,42.4613964 C30.1418547,42.2069583 30.1760208,41.8285988 30.4304589,41.6163068 C30.684897,41.4040147 31.0632565,41.4381809 31.2755485,41.692619 C32.4016774,43.0423168 34.3357729,43.7240805 36.3438329,43.4386185 C36.160962,42.4783646 36.0351302,41.5261251 35.9652983,40.5807043 L35.9309389,40.0304473 L35.91,39.499 L34.2,39.5 C32.8362806,39.5 31.6831527,38.3311605 31.5198016,36.9574166 L31.5050003,36.7916455 L31.5,36.6242775 C31.5,35.4240041 32.2851436,34.4070781 33.370287,34.0574661 L33.5352478,34.0100896 L33.675,33.979 L33.6771243,33.868244 C33.7855934,30.1414301 34.5735081,26.652579 36.0328932,23.3629436 L34.2639032,22.8890873 C33.8627838,22.7816077 33.5229743,22.5595287 33.2702619,22.2675151 Z M34.6771537,33.8819049 L34.669,34.249 C34.7492681,34.491594 34.6629077,34.7831407 34.4092288,34.8879219 L34.3184712,34.9156084 L34.2153099,34.9275112 L34.0532925,34.9339743 C33.2796534,34.9999605 32.6540799,35.5829617 32.5246146,36.3350134 L32.5062386,36.4779192 L32.5,36.6242775 C32.5,37.5573606 33.2258774,38.4104248 34.0663238,38.4933985 L34.1998889,38.4999994 L36.4005827,38.499511 C36.6752542,38.49945 36.8985471,38.7209674 36.9006787,38.9956307 C36.9114707,40.3861904 37.0509923,41.7944979 37.3194827,43.2206691 C39.1302631,42.6712757 40.5346808,41.3686299 41.0416225,39.7942141 C41.1431847,39.4787909 41.4812181,39.3054224 41.7966413,39.4069846 C42.1120644,39.5085468 42.285433,39.8465802 42.1838708,40.1620034 C41.5431182,42.1519973 39.7932875,43.7557749 37.5712632,44.3995228 C37.9686246,46.0873538 38.5460801,47.8008869 39.3024122,49.5393705 L41.8675445,48.6837722 C41.9224007,48.6654868 41.9774892,48.6497106 42.0326855,48.6363813 C46.7455485,46.3826998 50,41.5714088 50,36 C50,31.9757482 48.3020768,28.3480676 45.5835425,25.7942703 C45.403179,25.8129046 45.2190574,25.8045361 45.0346835,25.7694299 L44.8890873,25.7360968 L37.0109671,23.6259364 C35.5648235,26.8351522 34.7851232,30.2379316 34.6771537,33.8819049 Z M34.1181422,47.8591877 C34.4006223,47.8591877 34.6296176,48.0830454 34.6296176,48.3591877 C34.6296176,48.6353301 34.4006223,48.8591877 34.1181422,48.8591877 C33.8356622,48.8591877 33.6066668,48.6353301 33.6066668,48.3591877 C33.6066668,48.0830454 33.8356622,47.8591877 34.1181422,47.8591877 Z M36.46,47.8591877 C36.7361424,47.8591877 36.96,48.0830454 36.96,48.3591877 C36.96,48.6353301 36.7361424,48.8591877 36.46,48.8591877 C36.1838577,48.8591877 35.96,48.6353301 35.96,48.3591877 C35.96,48.0830454 36.1838577,47.8591877 36.46,47.8591877 Z M31.3648089,47.0901706 C31.6472889,47.0901706 31.8762843,47.3140283 31.8762843,47.5901706 C31.8762843,47.866313 31.6472889,48.0901706 31.3648089,48.0901706 C31.0823288,48.0901706 30.8533335,47.866313 30.8533335,47.5901706 C30.8533335,47.3140283 31.0823288,47.0901706 31.3648089,47.0901706 Z M28.6114755,45.5521364 C28.8939556,45.5521364 29.1229509,45.7759941 29.1229509,46.0521364 C29.1229509,46.3282788 28.8939556,46.5521364 28.6114755,46.5521364 C28.3289954,46.5521364 28.1000001,46.3282788 28.1000001,46.0521364 C28.1000001,45.7759941 28.3289954,45.5521364 28.6114755,45.5521364 Z M35.6914756,45.5521364 C35.9739557,45.5521364 36.202951,45.7759941 36.202951,46.0521364 C36.202951,46.3282788 35.9739557,46.5521364 35.6914756,46.5521364 C35.4089955,46.5521364 35.1800002,46.3282788 35.1800002,46.0521364 C35.1800002,45.7759941 35.4089955,45.5521364 35.6914756,45.5521364 Z M33.3314756,45.5521364 C33.6139556,45.5521364 33.842951,45.7759941 33.842951,46.0521364 C33.842951,46.3282788 33.6139556,46.5521364 33.3314756,46.5521364 C33.0489955,46.5521364 32.8200002,46.3282788 32.8200002,46.0521364 C32.8200002,45.7759941 33.0489955,45.5521364 33.3314756,45.5521364 Z M30.9714755,44.7831193 C31.2539556,44.7831193 31.4829509,45.006977 31.4829509,45.2831193 C31.4829509,45.5592617 31.2539556,45.7831193 30.9714755,45.7831193 C30.6889955,45.7831193 30.4600001,45.5592617 30.4600001,45.2831193 C30.4600001,45.006977 30.6889955,44.7831193 30.9714755,44.7831193 Z M26.6448088,43.6295937 C26.9272889,43.6295937 27.1562842,43.8534513 27.1562842,44.1295937 C27.1562842,44.4057361 26.9272889,44.6295937 26.6448088,44.6295937 C26.3623288,44.6295937 26.1333334,44.4057361 26.1333334,44.1295937 C26.1333334,43.8534513 26.3623288,43.6295937 26.6448088,43.6295937 Z M29.0048089,43.2450851 C29.2872889,43.2450851 29.5162843,43.4689428 29.5162843,43.7450851 C29.5162843,44.0212275 29.2872889,44.2450851 29.0048089,44.2450851 C28.7223288,44.2450851 28.4933334,44.0212275 28.4933334,43.7450851 C28.4933334,43.4689428 28.7223288,43.2450851 29.0048089,43.2450851 Z M25.0714755,41.7070509 C25.3539555,41.7070509 25.5829509,41.9309085 25.5829509,42.2070509 C25.5829509,42.4831933 25.3539555,42.7070509 25.0714755,42.7070509 C24.7889954,42.7070509 24.5600001,42.4831933 24.5600001,42.2070509 C24.5600001,41.9309085 24.7889954,41.7070509 25.0714755,41.7070509 Z M27.4314755,41.3225424 C27.7139556,41.3225424 27.9429509,41.5464 27.9429509,41.8225424 C27.9429509,42.0986847 27.7139556,42.3225424 27.4314755,42.3225424 C27.1489954,42.3225424 26.9200001,42.0986847 26.9200001,41.8225424 C26.9200001,41.5464 27.1489954,41.3225424 27.4314755,41.3225424 Z M34.5114756,41.3225424 C34.7939556,41.3225424 35.022951,41.5464 35.022951,41.8225424 C35.022951,42.0986847 34.7939556,42.3225424 34.5114756,42.3225424 C34.2289955,42.3225424 34.0000002,42.0986847 34.0000002,41.8225424 C34.0000002,41.5464 34.2289955,41.3225424 34.5114756,41.3225424 Z M32.1514756,40.1690167 C32.4339556,40.1690167 32.662951,40.3928743 32.662951,40.6690167 C32.662951,40.9451591 32.4339556,41.1690167 32.1514756,41.1690167 C31.8689955,41.1690167 31.6400001,40.9451591 31.6400001,40.6690167 C31.6400001,40.3928743 31.8689955,40.1690167 32.1514756,40.1690167 Z M29.0048089,39.7845082 C29.2872889,39.7845082 29.5162843,40.0083658 29.5162843,40.2845082 C29.5162843,40.5606505 29.2872889,40.7845082 29.0048089,40.7845082 C28.7223288,40.7845082 28.4933334,40.5606505 28.4933334,40.2845082 C28.4933334,40.0083658 28.7223288,39.7845082 29.0048089,39.7845082 Z M24.2848088,39.3999996 C24.5672889,39.3999996 24.7962842,39.6238572 24.7962842,39.8999996 C24.7962842,40.176142 24.5672889,40.3999996 24.2848088,40.3999996 C24.0023287,40.3999996 23.7733334,40.176142 23.7733334,39.8999996 C23.7733334,39.6238572 24.0023287,39.3999996 24.2848088,39.3999996 Z M43.3232055,35.8513047 C44.1448472,36.1820942 44.7640079,36.7864056 45.1665303,37.6420737 C45.2840763,37.8919488 45.1768023,38.1898024 44.9269272,38.3073483 C44.6770521,38.4248943 44.3791985,38.3176203 44.2616526,38.0677452 C43.9641934,37.4354169 43.5316084,37.0132065 42.9497399,36.7789487 C42.3790073,36.5491742 41.8025152,36.5735038 41.1868484,36.8597058 C40.9364402,36.9761118 40.6390785,36.8674816 40.5226725,36.6170734 C40.4062665,36.3666652 40.5148968,36.0693036 40.7653049,35.9528976 C41.626656,35.5524856 42.4904279,35.5160319 43.3232055,35.8513047 Z M43.25,28 C43.6642136,28 44,28.3357864 44,28.75 L44,34 L42.5,33.1428571 L42.5,28.75 C42.5,28.3357864 42.8357864,28 43.25,28 Z M28.75,28 C29.1642136,28 29.5,28.3357864 29.5,28.75 L29.5,33.25 C29.5,33.6642136 29.1642136,34 28.75,34 C28.3357864,34 28,33.6642136 28,33.25 L28,28.75 C28,28.3357864 28.3357864,28 28.75,28 Z M33.8156155,20.6984166 C33.774775,20.8508355 33.7714466,21.0044683 33.7999712,21.149513 L33.836835,21.2854533 L33.836835,21.2854533 L33.8769013,21.3829799 L33.9296276,21.4806361 L33.9922321,21.5713216 L33.9922321,21.5713216 L34.068084,21.6580873 L34.1523721,21.7347977 L34.2375347,21.7966309 L34.2375347,21.7966309 C34.2917638,21.831767 34.3500094,21.8619768 34.4118162,21.8864792 L34.5227223,21.9231615 L45.1479063,24.770171 L45.2853468,24.7969767 L45.2853468,24.7969767 L45.4176274,24.8044401 L45.5076264,24.7994133 L45.6203455,24.7813748 L45.7227949,24.7530973 L45.7806401,24.7317701 L45.7806401,24.7317701 C46.0615333,24.6184648 46.2880673,24.3787357 46.3726512,24.0630642 C46.5053829,23.5677028 46.2418921,23.0595191 45.7764505,22.8750016 L45.6655444,22.8383193 L44.2265738,22.451713 L44.2166557,22.4500907 L35.0403603,19.9913098 C34.5068942,19.848368 33.9585573,20.1649505 33.8156155,20.6984166 Z M37.774629,14.5382014 L37.754,14.6531804 L37.1665728,19.5247153 L44.0565217,21.3708715 L45.9978838,16.8256757 L46.0308389,16.7245426 C46.1635705,16.2291812 45.9000797,15.7209975 45.4346382,15.53648 L45.3237321,15.4997977 L39.0056393,13.8068699 C38.9599328,13.7946228 38.9134147,13.7856354 38.8664355,13.7799754 C38.3572817,13.7186324 37.8914687,14.051343 37.774629,14.5382014 Z M43.0352762,16 L44.001202,16.258819 L42.9659258,20.1225224 L42,19.8637033 L43.0352762,16 Z" id="Shape" fill="#000000" fill-rule="nonzero"></path>
        <path d="M29.5363393,49.5834785 L29.6551332,49.595702 C30.6931691,50.0808834 31.7959347,50.4506612 32.9480232,50.6870675 C33.2827223,50.8546335 33.5,51.1988384 33.5,51.5811388 L33.5,51.5811388 L33.5,52.4188612 C33.5,52.8492916 33.2245699,53.2314304 32.8162278,53.3675445 L32.8162278,53.3675445 L29.8162278,54.3675445 C29.7142613,54.4015333 29.6074821,54.4188612 29.5,54.4188612 C28.9477153,54.4188612 28.5,53.9711459 28.5,53.4188612 L28.5,53.4188612 L28.5,50.5811388 C28.5,50.4736567 28.5173279,50.3668775 28.5513167,50.2649111 L28.5513167,50.2649111 L28.594578,50.156402 C28.7834083,49.7525604 29.2187919,49.5239154 29.6551332,49.595702 Z M42.5333412,49.5814231 C42.9020656,49.5937662 43.2439202,49.8110063 43.405422,50.156402 L43.405422,50.156402 L43.4486833,50.2649111 L43.4770938,50.3683296 C43.4922987,50.4381418 43.5,50.5094841 43.5,50.5811388 L43.5,50.5811388 L43.5,53.4188612 L43.4932723,53.5354823 C43.4355072,54.032821 43.0128358,54.4188612 42.5,54.4188612 C42.3925179,54.4188612 42.2857387,54.4015333 42.1837722,54.3675445 L42.1837722,54.3675445 L39.1837722,53.3675445 L39.0758086,53.3244712 C38.7276282,53.1615515 38.5,52.8101615 38.5,52.4188612 L38.5,52.4188612 L38.5,51.5811388 L38.5067218,51.4650946 C38.5456198,51.130991 38.7505976,50.8388179 39.0499228,50.6880988 L39.0499228,50.6880988 L39.1800658,50.6622366 C40.2858598,50.4235342 41.3462912,50.0629139 42.346591,49.5951448 L42.346591,49.5951448 L42.4096484,49.5850028 Z M36.5,50.5 L36.6196667,50.5070862 C36.6607667,50.5119875 36.7011014,50.5193815 36.7405152,50.5291129 L36.7405152,50.5291129 L36.7832036,50.5407154 L36.8526946,50.5639721 L36.9581384,50.610884 L37.0629459,50.673389 L37.1133401,50.7101225 L37.1788033,50.7667368 L37.258413,50.8499429 L37.344312,50.9639118 C37.4428935,51.1188488 37.5,51.3027554 37.5,51.5 L37.5,51.5 L37.5,52.5 L37.4932723,52.6166211 C37.4355072,53.1139598 37.0128358,53.5 36.5,53.5 L36.5,53.5 L35.5,53.5 L35.3833789,53.4932723 C34.8860402,53.4355072 34.5,53.0128358 34.5,52.5 L34.5,52.5 L34.5,51.5 L34.5067277,51.3833789 C34.5299874,51.1831209 34.6124108,51.0009083 34.7360617,50.8546775 L34.7360617,50.8546775 L34.7738782,50.8124306 L34.8487288,50.7411315 L34.897921,50.7014925 L34.9979016,50.6349995 L35.041679,50.6109783 L35.1468531,50.5641428 L35.2588649,50.5292662 L35.3550634,50.5104267 L35.5,50.5 L36.5,50.5 Z" id="Combined-Shape" fill="#000000" fill-rule="nonzero" opacity="0.1"></path>
        <path d="M33.8156155,20.6984166 C33.9585573,20.1649505 34.5068942,19.848368 35.0403603,19.9913098 L35.0403603,19.9913098 L44.2166557,22.4500907 L44.2265738,22.451713 L45.6655444,22.8383193 L45.7764505,22.8750016 C46.2418921,23.0595191 46.5053829,23.5677028 46.3726512,24.0630642 C46.2880673,24.3787357 46.0615333,24.6184648 45.7806401,24.7317701 L45.7806401,24.7317701 L45.7227949,24.7530973 L45.6203455,24.7813748 L45.5076264,24.7994133 L45.4176274,24.8044401 L45.2853468,24.7969767 L45.1479063,24.770171 L34.5227223,21.9231615 L34.4118162,21.8864792 C34.3500094,21.8619768 34.2917638,21.831767 34.2375347,21.7966309 L34.2375347,21.7966309 L34.1523721,21.7347977 L34.068084,21.6580873 L33.9922321,21.5713216 L33.9296276,21.4806361 L33.8769013,21.3829799 L33.836835,21.2854533 L33.7999712,21.149513 C33.7714466,21.0044683 33.774775,20.8508355 33.8156155,20.6984166 Z M38.749847,13.7727051 L38.8664355,13.7799754 C38.9134147,13.7856354 38.9599328,13.7946228 39.0056393,13.8068699 L39.0056393,13.8068699 L45.3237321,15.4997977 L45.4346382,15.53648 C45.9000797,15.7209975 46.1635705,16.2291812 46.0308389,16.7245426 L46.0308389,16.7245426 L45.9978838,16.8256757 L44.0565217,21.3708715 L37.1665728,19.5247153 L37.754,14.6531804 L37.774629,14.5382014 C37.8914687,14.051343 38.3572817,13.7186324 38.8664355,13.7799754 Z" id="Combined-Shape" fill="#000000" fill-rule="nonzero" opacity="0.1"></path>
        <path d="M33.2702619,22.2675151 L33.0754292,22.3059304 C26.747323,23.6507971 22,29.2710002 22,36 C22,41.5727338 25.2559996,46.3849882 29.9693836,48.6381477 C30.0238382,48.6500911 30.0782602,48.6657071 30.1324555,48.6837722 L33.1324555,49.6837722 L33.2564654,49.7312896 C33.6016437,49.7998721 33.9513927,49.8557641 34.3052056,49.8984587 C34.5922102,49.681693 34.9393773,49.542538 35.3168701,49.5082718 L35.5,49.5 L36.5,49.5 C36.9477067,49.5 37.3610548,49.6471069 37.6943448,49.8956213 C37.9078291,49.8727628 38.1200911,49.8421648 38.3307583,49.8068621 C37.57488,48.0543014 36.9961246,46.3235385 36.5930739,44.6140841 C34.1570604,44.9873425 31.7703027,44.1586999 30.3541467,42.4613964 C30.1418547,42.2069583 30.1760208,41.8285988 30.4304589,41.6163068 C30.684897,41.4040147 31.0632565,41.4381809 31.2755485,41.692619 C32.4016774,43.0423168 34.3357729,43.7240805 36.3438329,43.4386185 C36.160962,42.4783646 36.0351302,41.5261251 35.9652983,40.5807043 L35.9309389,40.0304473 L35.91,39.499 L34.2,39.5 C32.8362806,39.5 31.6831527,38.3311605 31.5198016,36.9574166 L31.5050003,36.7916455 L31.5,36.6242775 C31.5,35.4240041 32.2851436,34.4070781 33.370287,34.0574661 L33.5352478,34.0100896 L33.675,33.979 L33.6771243,33.868244 C33.7855934,30.1414301 34.5735081,26.652579 36.0328932,23.3629436 L34.2639032,22.8890873 C33.8627838,22.7816077 33.5229743,22.5595287 33.2702619,22.2675151 Z" id="Path" fill="#000000" fill-rule="nonzero" opacity="0.03"></path>
    </g>
</svg>