<svg id="avatar" width="72px" height="72px" viewBox="0 0 72 72" version="1.1" xmlns="http://www.w3.org/2000/svg" xmlns:xlink="http://www.w3.org/1999/xlink">
    <title>avatar.404</title>
    <g id="avatar.404" stroke="none" stroke-width="1" fill="none" fill-rule="evenodd">
        <g id="Group-2" transform="translate(21.000000, 21.000000)" fill="#000000" fill-rule="nonzero">
            <path d="M15,0 C15.482496,0 15.9596713,0.0227809587 16.4305088,0.0673259528 L16.9668217,0.127788442 L17.2686772,0.170447146 C24.4766203,1.26416526 30,7.48705541 30,15 C30,22.1931168 24.9368738,28.2036771 18.1800658,29.6622366 L17.9240548,29.7151487 C16.9783628,29.9020226 16.0006233,30 15,30 C6.71572875,30 0,23.2842712 0,15 C0,6.71572875 6.71572875,0 15,0 Z M15,1 C7.2680135,1 1,7.2680135 1,15 C1,22.7319865 7.2680135,29 15,29 C15.7940959,29 16.5727501,28.933886 17.3307583,28.8068621 C16.57488,27.0543014 15.9961246,25.3235385 15.5930739,23.6140841 C13.1570604,23.9873425 10.7703027,23.1586999 9.35414672,21.4613964 C9.1418547,21.2069583 9.17602083,20.8285988 9.43045891,20.6163068 C9.68489699,20.4040147 10.0632565,20.4381809 10.2755485,20.692619 C11.4016774,22.0423168 13.3357729,22.7240805 15.3438329,22.4386185 C15.160962,21.4783646 15.0351302,20.5261251 14.9652983,19.5807043 L14.9309389,19.0304473 L14.91,18.499 L13.2,18.5 C11.8362806,18.5 10.6831527,17.3311605 10.5198016,15.9574166 L10.5050003,15.7916455 L10.5,15.6242775 C10.5,14.4240041 11.2851436,13.4070781 12.370287,13.0574661 L12.5352478,13.0100896 L12.675,12.979 L12.6771243,12.868244 C12.8005141,8.62877912 13.8031317,4.69724682 15.6732372,1.01660985 C15.4511827,1.0053654 15.2262179,1 15,1 Z M16.7516806,1.10852374 L16.7269215,1.15603827 C14.8210586,4.79221941 13.8017601,8.67643656 13.6771537,12.8819049 L13.669,13.249 C13.7492681,13.491594 13.6629077,13.7831407 13.4092288,13.8879219 L13.3184712,13.9156084 L13.2153099,13.9275112 L13.0532925,13.9339743 C12.2796534,13.9999605 11.6540799,14.5829617 11.5246146,15.3350134 L11.5062386,15.4779192 L11.5,15.6242775 C11.5,16.5573606 12.2258774,17.4104248 13.0663238,17.4933985 L13.1998889,17.4999994 L15.4005827,17.499511 C15.6752542,17.49945 15.8985471,17.7209674 15.9006787,17.9956307 C15.9114707,19.3861904 16.0509923,20.7944979 16.3194827,22.2206691 C18.1302631,21.6712757 19.5346808,20.3686299 20.0416225,18.7942141 C20.1431847,18.4787909 20.4812181,18.3054224 20.7966413,18.4069846 C21.1120644,18.5085468 21.285433,18.8465802 21.1838708,19.1620034 C20.5431182,21.1519973 18.7932875,22.7557749 16.5712632,23.3995228 C16.9733605,25.1074702 17.5598705,26.841736 18.3295315,28.6015414 C24.4549734,27.1065891 29,21.5840685 29,15 C29,7.86124824 23.6569122,1.9704415 16.7516806,1.10852374 Z M13.1181422,26.8591877 C13.4006223,26.8591877 13.6296176,27.0830454 13.6296176,27.3591877 C13.6296176,27.6353301 13.4006223,27.8591877 13.1181422,27.8591877 C12.8356622,27.8591877 12.6066668,27.6353301 12.6066668,27.3591877 C12.6066668,27.0830454 12.8356622,26.8591877 13.1181422,26.8591877 Z M15.46,26.8591877 C15.7361424,26.8591877 15.96,27.0830454 15.96,27.3591877 C15.96,27.6353301 15.7361424,27.8591877 15.46,27.8591877 C15.1838577,27.8591877 14.96,27.6353301 14.96,27.3591877 C14.96,27.0830454 15.1838577,26.8591877 15.46,26.8591877 Z M10.3648089,26.0901706 C10.6472889,26.0901706 10.8762843,26.3140283 10.8762843,26.5901706 C10.8762843,26.866313 10.6472889,27.0901706 10.3648089,27.0901706 C10.0823288,27.0901706 9.85333347,26.866313 9.85333347,26.5901706 C9.85333347,26.3140283 10.0823288,26.0901706 10.3648089,26.0901706 Z M7.61147552,24.5521364 C7.89395558,24.5521364 8.12295093,24.7759941 8.12295093,25.0521364 C8.12295093,25.3282788 7.89395558,25.5521364 7.61147552,25.5521364 C7.32899545,25.5521364 7.10000011,25.3282788 7.10000011,25.0521364 C7.10000011,24.7759941 7.32899545,24.5521364 7.61147552,24.5521364 Z M14.6914756,24.5521364 C14.9739557,24.5521364 15.202951,24.7759941 15.202951,25.0521364 C15.202951,25.3282788 14.9739557,25.5521364 14.6914756,25.5521364 C14.4089955,25.5521364 14.1800002,25.3282788 14.1800002,25.0521364 C14.1800002,24.7759941 14.4089955,24.5521364 14.6914756,24.5521364 Z M12.3314756,24.5521364 C12.6139556,24.5521364 12.842951,24.7759941 12.842951,25.0521364 C12.842951,25.3282788 12.6139556,25.5521364 12.3314756,25.5521364 C12.0489955,25.5521364 11.8200002,25.3282788 11.8200002,25.0521364 C11.8200002,24.7759941 12.0489955,24.5521364 12.3314756,24.5521364 Z M9.97147554,23.7831193 C10.2539556,23.7831193 10.4829509,24.006977 10.4829509,24.2831193 C10.4829509,24.5592617 10.2539556,24.7831193 9.97147554,24.7831193 C9.68899547,24.7831193 9.46000013,24.5592617 9.46000013,24.2831193 C9.46000013,24.006977 9.68899547,23.7831193 9.97147554,23.7831193 Z M5.64480883,22.6295937 C5.9272889,22.6295937 6.15628424,22.8534513 6.15628424,23.1295937 C6.15628424,23.4057361 5.9272889,23.6295937 5.64480883,23.6295937 C5.36232876,23.6295937 5.13333342,23.4057361 5.13333342,23.1295937 C5.13333342,22.8534513 5.36232876,22.6295937 5.64480883,22.6295937 Z M8.00480885,22.2450851 C8.28728892,22.2450851 8.51628426,22.4689428 8.51628426,22.7450851 C8.51628426,23.0212275 8.28728892,23.2450851 8.00480885,23.2450851 C7.72232878,23.2450851 7.49333344,23.0212275 7.49333344,22.7450851 C7.49333344,22.4689428 7.72232878,22.2450851 8.00480885,22.2450851 Z M4.07147548,20.7070509 C4.35395555,20.7070509 4.58295089,20.9309085 4.58295089,21.2070509 C4.58295089,21.4831933 4.35395555,21.7070509 4.07147548,21.7070509 C3.78899541,21.7070509 3.56000007,21.4831933 3.56000007,21.2070509 C3.56000007,20.9309085 3.78899541,20.7070509 4.07147548,20.7070509 Z M6.4314755,20.3225424 C6.71395557,20.3225424 6.94295091,20.5464 6.94295091,20.8225424 C6.94295091,21.0986847 6.71395557,21.3225424 6.4314755,21.3225424 C6.14899544,21.3225424 5.92000009,21.0986847 5.92000009,20.8225424 C5.92000009,20.5464 6.14899544,20.3225424 6.4314755,20.3225424 Z M13.5114756,20.3225424 C13.7939556,20.3225424 14.022951,20.5464 14.022951,20.8225424 C14.022951,21.0986847 13.7939556,21.3225424 13.5114756,21.3225424 C13.2289955,21.3225424 13.0000002,21.0986847 13.0000002,20.8225424 C13.0000002,20.5464 13.2289955,20.3225424 13.5114756,20.3225424 Z M11.1514756,19.1690167 C11.4339556,19.1690167 11.662951,19.3928743 11.662951,19.6690167 C11.662951,19.9451591 11.4339556,20.1690167 11.1514756,20.1690167 C10.8689955,20.1690167 10.6400001,19.9451591 10.6400001,19.6690167 C10.6400001,19.3928743 10.8689955,19.1690167 11.1514756,19.1690167 Z M8.00480885,18.7845082 C8.28728892,18.7845082 8.51628426,19.0083658 8.51628426,19.2845082 C8.51628426,19.5606505 8.28728892,19.7845082 8.00480885,19.7845082 C7.72232878,19.7845082 7.49333344,19.5606505 7.49333344,19.2845082 C7.49333344,19.0083658 7.72232878,18.7845082 8.00480885,18.7845082 Z M3.28480881,18.3999996 C3.56728888,18.3999996 3.79628422,18.6238572 3.79628422,18.8999996 C3.79628422,19.176142 3.56728888,19.3999996 3.28480881,19.3999996 C3.00232874,19.3999996 2.7733334,19.176142 2.7733334,18.8999996 C2.7733334,18.6238572 3.00232874,18.3999996 3.28480881,18.3999996 Z M22.3232055,14.8513047 C23.1448472,15.1820942 23.7640079,15.7864056 24.1665303,16.6420737 C24.2840763,16.8919488 24.1768023,17.1898024 23.9269272,17.3073483 C23.6770521,17.4248943 23.3791985,17.3176203 23.2616526,17.0677452 C22.9641934,16.4354169 22.5316084,16.0132065 21.9497399,15.7789487 C21.3790073,15.5491742 20.8025152,15.5735038 20.1868484,15.8597058 C19.9364402,15.9761118 19.6390785,15.8674816 19.5226725,15.6170734 C19.4062665,15.3666652 19.5148968,15.0693036 19.7653049,14.9528976 C20.626656,14.5524856 21.4904279,14.5160319 22.3232055,14.8513047 Z M22.25,7 C22.6642136,7 23,7.33578644 23,7.75 L23,13 L21.5,12.1428571 L21.5,7.75 C21.5,7.33578644 21.8357864,7 22.25,7 Z M7.75,7 C8.16421356,7 8.5,7.33578644 8.5,7.75 L8.5,12.25 C8.5,12.6642136 8.16421356,13 7.75,13 C7.33578644,13 7,12.6642136 7,12.25 L7,7.75 C7,7.33578644 7.33578644,7 7.75,7 Z" id="Shape"></path>
            <path d="M15,1 C7.2680135,1 1,7.2680135 1,15 C1,22.7319865 7.2680135,29 15,29 C15.7940959,29 16.5727501,28.933886 17.3307583,28.8068621 C16.57488,27.0543014 15.9961246,25.3235385 15.5930739,23.6140841 C13.1570604,23.9873425 10.7703027,23.1586999 9.35414672,21.4613964 C9.1418547,21.2069583 9.17602083,20.8285988 9.43045891,20.6163068 C9.68489699,20.4040147 10.0632565,20.4381809 10.2755485,20.692619 C11.4016774,22.0423168 13.3357729,22.7240805 15.3438329,22.4386185 C15.160962,21.4783646 15.0351302,20.5261251 14.9652983,19.5807043 L14.9309389,19.0304473 L14.91,18.499 L13.2,18.5 C11.8362806,18.5 10.6831527,17.3311605 10.5198016,15.9574166 L10.5050003,15.7916455 L10.5,15.6242775 C10.5,14.4240041 11.2851436,13.4070781 12.370287,13.0574661 L12.5352478,13.0100896 L12.675,12.979 L12.6771243,12.868244 C12.8005141,8.62877912 13.8031317,4.69724682 15.6732372,1.01660985 C15.4511827,1.0053654 15.2262179,1 15,1 Z" id="Path" opacity="0.03"></path>
        </g>
        <path d="M39.8402864,17.483307 C40.0864883,17.5267191 40.2805658,17.64979 40.4225187,17.8525198 C40.5644716,18.0552496 40.6137421,18.2797154 40.57033,18.5259174 C40.526918,18.7721193 40.4038471,18.9661967 40.2011173,19.1081497 C39.9983875,19.2501026 39.7739216,19.299373 39.5277197,19.255961 C39.2815177,19.2125489 39.0874403,19.089478 38.9454874,18.8867482 C38.8035345,18.6840184 38.754264,18.4595526 38.7976761,18.2133506 C38.8410881,17.9671487 38.964159,17.7730713 39.1668888,17.6311183 C39.3696186,17.4891654 39.5940845,17.439895 39.8402864,17.483307 Z M31.9071555,17.254068 C32.1533575,17.2106559 32.3778233,17.2599264 32.5805531,17.4018793 C32.7832829,17.5438322 32.9063538,17.7379097 32.9497659,17.9841116 C32.9931779,18.2303135 32.9439075,18.4547794 32.8019545,18.6575092 C32.6600016,18.860239 32.4659242,18.9833099 32.2197222,19.0267219 C31.9735203,19.070134 31.7490544,19.0208636 31.5463246,18.8789106 C31.3435949,18.7369577 31.2205239,18.5428803 31.1771119,18.2966783 C31.1336999,18.0504764 31.1829703,17.8260105 31.3249232,17.6232807 C31.4668761,17.420551 31.6609536,17.29748 31.9071555,17.254068 Z M41.7846264,8.9614723 C42.2967264,9.05176935 42.7380167,9.19812204 43.1084973,9.40053035 C43.4789779,9.60293867 43.7779232,9.85112042 44.0053333,10.1450756 C44.2327434,10.4390308 44.3858648,10.7655811 44.4646975,11.1247265 C44.5435302,11.4838718 44.5482169,11.8604061 44.4787577,12.2543292 C44.3919336,12.7467331 44.2228399,13.1586279 43.9714766,13.4900136 C43.7201133,13.8213993 43.4241362,14.0890699 43.0835454,14.2930255 C42.7429545,14.4969811 42.3799081,14.6411286 41.994406,14.7254682 C41.7052795,14.7887229 41.4274728,14.8282706 41.1609861,14.8441113 L40.8982726,14.8520497 L40.6742665,16.1224517 L39.4629529,15.9088644 L39.8510566,13.7078191 L40.2100713,13.730506 C40.4489308,13.7387758 40.6868228,13.733336 40.9237475,13.7141867 C41.2791345,13.6854626 41.6049713,13.6083724 41.9012578,13.482916 C42.1975443,13.3574597 42.451245,13.1711844 42.6623597,12.9240902 C42.8734745,12.6769959 43.015498,12.3466392 43.0884302,11.93302 C43.1717814,11.4603122 43.0649922,11.0581589 42.7680627,10.7265599 C42.4711333,10.3949609 42.0223022,10.1761987 41.4215694,10.0702733 C41.2049117,10.0320707 40.9481422,10.0197967 40.6512608,10.0334512 C40.4285998,10.0436921 40.2171015,10.0716087 40.0167659,10.1172009 L39.8201513,10.1686851 L39.6872022,10.1452426 L40.0259244,9.00168787 L40.1311132,8.97697832 C40.2837155,8.94539765 40.4857199,8.91927855 40.7371265,8.898621 C41.0513847,8.87279908 41.4005513,8.89374951 41.7846264,8.9614723 Z M31.1836557,8.7454372 L31.5889559,12.2533506 L32.0846012,15.9281106 L31.2278185,16.0791845 L30.4245634,12.4738959 L29.5587229,9.03195669 L31.1836557,8.7454372 Z" id="Combined-Shape" fill="#000000" fill-rule="nonzero"></path>
    </g>
</svg>