<?xml version="1.0" encoding="UTF-8"?>
<svg width="24px" height="24px" viewBox="0 0 24 24" version="1.1" xmlns="http://www.w3.org/2000/svg" xmlns:xlink="http://www.w3.org/1999/xlink">
    <g id="resume.phone" stroke="none" stroke-width="1" fill="none" fill-rule="evenodd">
        <path d="M16.444531,21.1414061 C18.0558591,21.1414061 19.1300779,20.701953 20.0871091,19.6374999 C20.1554685,19.5593749 20.2238279,19.4812499 20.2921873,19.4128905 C20.8390623,18.7878905 21.1027341,18.1726561 21.1027341,17.5867186 C21.1027341,16.9128905 20.7218748,16.2878905 19.9015623,15.7214842 L17.1867185,13.8367186 C16.3468748,13.2605467 15.3605466,13.1921874 14.5890623,13.9734374 L13.8859373,14.6667967 C13.6613279,14.8914061 13.4660154,14.9109374 13.2316404,14.7546874 C12.7335935,14.4324217 11.757031,13.5730467 11.0832029,12.8992186 C10.3800779,12.2058592 9.69648413,11.4343749 9.335156,10.858203 C9.18867163,10.623828 9.19843725,10.4285155 9.42304663,10.2039061 L10.116406,9.50078111 C10.8878904,8.72929673 10.8292966,7.74296861 10.2531248,6.90312486 L8.34882788,4.16874986 C7.79218725,3.35820298 7.15742163,2.98710923 6.4835935,2.97734361 C5.897656,2.96757798 5.28242163,3.24101548 4.66718725,3.78789048 C4.58906225,3.85624986 4.51093725,3.91484361 4.44257788,3.98320298 C3.37812475,4.94999986 2.928906,6.01445298 2.928906,7.64531236 C2.928906,10.311328 4.54023413,13.5339842 7.54804663,16.5320311 C10.5460935,19.5203124 13.7492185,21.1414061 16.444531,21.1414061 Z M16.444531,19.686328 C14.0910154,19.7253905 11.1027341,17.9578124 8.65156225,15.5261717 C6.18085913,13.0749999 4.34492163,9.97929673 4.39374975,7.61601548 C4.40351538,6.61015611 4.7648435,5.74101548 5.47773413,5.11601548 C5.53632788,5.05742173 5.59492163,5.01835923 5.65351538,4.96953111 C5.92695288,4.73515611 6.21992163,4.60820298 6.4835935,4.60820298 C6.757031,4.60820298 6.991406,4.71562486 7.16718725,4.98906236 L8.944531,7.64531236 C9.14960913,7.94804673 9.15937475,8.28007798 8.85664038,8.57304673 L8.07539038,9.35429673 C7.41132788,10.0085936 7.460156,10.7996092 7.91914038,11.4148436 C8.4367185,12.1277342 9.35468725,13.1726561 10.0968748,13.8953124 C10.8488279,14.6472655 11.9718748,15.6531249 12.6749998,16.170703 C13.2902341,16.6296874 14.0812498,16.6785155 14.7355466,16.014453 L15.5167966,15.233203 C15.8097654,14.9304686 16.1417966,14.9402342 16.444531,15.1453124 L19.0812498,16.9031249 C19.3644529,17.0886717 19.4718748,17.3230467 19.4718748,17.5964842 C19.4718748,17.8601561 19.3449216,18.1433592 19.1105466,18.4167967 C19.0519529,18.4851561 19.0128904,18.5339842 18.9640623,18.6023436 C18.3292966,19.3152342 17.460156,19.6667967 16.444531,19.686328 Z" id="phone" fill="#000000" fill-rule="nonzero"></path>
    </g>
</svg>