<?xml version="1.0" encoding="UTF-8"?>
<svg width="24px" height="24px" viewBox="0 0 24 24" version="1.1" xmlns="http://www.w3.org/2000/svg" xmlns:xlink="http://www.w3.org/1999/xlink">
    <title>resume.email</title>
    <g id="resume.email" stroke="none" stroke-width="1" fill="none" fill-rule="evenodd">
        <path d="M11.984375,21.8682031 C13.5078125,21.8682031 14.9335938,21.663125 15.8125,21.3701563 C16.4375,21.1650781 16.6425781,20.8428125 16.6425781,20.4814844 C16.6425781,20.1299219 16.3691406,19.8467188 15.9980469,19.8467188 C15.8808594,19.8467188 15.734375,19.8760156 15.5488281,19.9150781 C14.4746094,20.1689844 13.546875,20.3545313 12.2871094,20.3545313 C7.22851562,20.3545313 3.81054688,17.3076563 3.81054688,12.131875 C3.81054688,7.1709375 7.05273438,3.70414063 11.9160156,3.70414063 C16.2421875,3.70414063 19.8066406,6.37992188 19.8066406,11.1455469 C19.8066406,13.8799219 18.8886719,15.7158594 17.4042969,15.7158594 C16.4179688,15.7158594 15.8515625,15.1396875 15.8515625,14.1338281 L15.8515625,8.00101563 C15.8515625,7.47367188 15.5585938,7.15140625 15.0605469,7.15140625 C14.5625,7.15140625 14.2597656,7.47367188 14.2597656,8.00101563 L14.2597656,8.99710938 L14.1621094,8.99710938 C13.6933594,7.85453125 12.5507812,7.15140625 11.1835938,7.15140625 C8.80078125,7.15140625 7.12109375,9.18265625 7.12109375,12.1123438 C7.12109375,15.0615625 8.79101562,17.1221094 11.2324219,17.1221094 C12.6582031,17.1221094 13.7519531,16.350625 14.2792969,15.0517969 L14.3769531,15.0517969 C14.5722656,16.3408594 15.6660156,17.1221094 17.1308594,17.1221094 C19.7382812,17.1221094 21.3496094,14.6123438 21.3496094,11.0576563 C21.3496094,5.69632813 17.4042969,2.21 11.9355469,2.21 C6.18359375,2.21 2.15039062,6.13578125 2.15039062,12.0830469 C2.15039062,18.1572656 6.28125,21.8682031 11.984375,21.8682031 Z M11.5253906,15.5791406 C9.9140625,15.5791406 8.8984375,14.24125 8.8984375,12.1123438 C8.8984375,9.99320313 9.92382812,8.6553125 11.5351562,8.6553125 C13.1757812,8.6553125 14.2207031,9.97367188 14.2207031,12.0635156 C14.2207031,14.2119531 13.1660156,15.5791406 11.5253906,15.5791406 Z" id="email" fill="#000000" fill-rule="nonzero"></path>
    </g>
</svg>