<?xml version="1.0" encoding="UTF-8"?>
<svg width="24px" height="24px" viewBox="0 0 24 24" version="1.1" xmlns="http://www.w3.org/2000/svg" xmlns:xlink="http://www.w3.org/1999/xlink">
    <g id="resume.work" stroke="none" stroke-width="1" fill="none" fill-rule="evenodd">
        <path d="M15,3 C16.3807119,3 17.5,4.11928813 17.5,5.5 L17.5,6 L20,6 C21.3807119,6 22.5,7.11928813 22.5,8.5 L22.5,18.5 C22.5,19.8807119 21.3807119,21 20,21 L4,21 C2.61928813,21 1.5,19.8807119 1.5,18.5 L1.5,8.5 C1.5,7.11928813 2.61928813,6 4,6 L6.5,6 L6.5,5.5 C6.5,4.11928813 7.61928813,3 9,3 L15,3 Z M8,13 L3,13 L3,18.5 C3,19.0128358 3.38604019,19.4355072 3.88337887,19.4932723 L4,19.5 L20,19.5 C20.5128358,19.5 20.9355072,19.1139598 20.9932723,18.6166211 L21,18.5 L21,13 L16,13 C16,13.8284271 15.3284271,14.5 14.5,14.5 L9.5,14.5 C8.67157288,14.5 8,13.8284271 8,13 Z M20,7.5 L4,7.5 C3.48716416,7.5 3.06449284,7.88604019 3.00672773,8.38337887 L3,8.5 L3,11.5 L21,11.5 L21,8.5 C21,7.98716416 20.6139598,7.56449284 20.1166211,7.50672773 L20,7.5 Z M15,4.5 L9,4.5 C8.48716416,4.5 8.06449284,4.88604019 8.00672773,5.38337887 L8,5.5 L8,6 L16,6 L16,5.5 C16,4.98716416 15.6139598,4.56449284 15.1166211,4.50672773 L15,4.5 Z" id="Combined-Shape" fill="#000000"></path>
    </g>
</svg>