<?xml version="1.0" encoding="UTF-8"?>
<svg width="24px" height="24px" viewBox="0 0 24 24" version="1.1" xmlns="http://www.w3.org/2000/svg" xmlns:xlink="http://www.w3.org/1999/xlink">
    <g id="resume.address" stroke="none" stroke-width="1" fill="none" fill-rule="evenodd">
        <path d="M18.5,1 C18.7761424,1 19,1.22385763 19,1.5 L18.9991174,6.728 L22.4005244,9.78555153 C22.7085624,10.062473 22.7337873,10.5366763 22.4568659,10.8447142 C22.2030212,11.1270824 21.783405,11.171809 21.4779641,10.9640025 L21.3977032,10.9010557 L19.9991174,9.644 L20,18.4249012 C20,19.5709466 19.1045695,20.5 18,20.5 L6,20.5 C4.8954305,20.5 4,19.5709466 4,18.4249012 L3.99911735,9.644 L2.60153456,10.9010557 C2.29349659,11.1779771 1.81929329,11.1527522 1.54237185,10.8447142 C1.2885272,10.5623461 1.28856943,10.1403529 1.52760695,9.8586816 L1.59871332,9.78555153 L10.8296608,1.48707059 C11.4580102,0.922194008 12.3931837,0.890811975 13.0556247,1.39292449 L13.169577,1.48707059 L16.4991174,4.48 L16.5,1.5 C16.5,1.22385763 16.7238576,1 17,1 L18.5,1 Z M11.8836443,2.5669733 L11.832482,2.60257476 L5.49911735,8.296 L5.5,18.4249012 C5.5,18.721665 5.69154998,18.950084 5.92196499,18.9928001 L6,19 L9.5,19 L9.5,13 C9.5,12.4477153 9.94771525,12 10.5,12 L13.5,12 C14.0522847,12 14.5,12.4477153 14.5,13 L14.5,19 L18,19 C18.2371667,19 18.4524333,18.8012574 18.493115,18.5211302 L18.5,18.4249012 L18.4991174,8.296 L12.1667557,2.60257476 C12.087552,2.53137183 11.9742231,2.51950468 11.8836443,2.5669733 Z" id="Combined-Shape" fill="#000000" fill-rule="nonzero"></path>
    </g>
</svg>