<svg viewBox="0 0 1050 184" xmlns="http://www.w3.org/2000/svg"><path d="m276.781681 0c-71.028243 71.8866782-10.76308 91.9239318 8.585053 91.9239318 39.622347 0 66.27345-17.312154 79.95331-51.9364619 7.976578 38.1721183 30.04685 57.2581775 66.210815 57.2581775 54.245948 0 165.371063-49.9317863 265.159735-49.9317863 76.952775 0 17.391601 49.9317863 61.430339 49.9317863s116.381672-57.2581775 189.986901-5.3217156c39.430031 27.8221572 73.264896 19.7655092 101.504596-24.1699459v116.0058211h-1049.00203334v-103.429405c38.14178604-53.5536013 130.19888034-80.330402 276.17128434-80.330402zm12.857568 25.4215925c17.821842 1.3150051 17.292044 13.2326565-3.396398 13.4708781l-.633094.0036209c-21.993288 0-34.900798 15.9942919-33.7383 10.9552245 1.162497-5.0390674 19.765931-25.7580115 37.767792-24.4297235zm1.591247-17.30788961c11.126021.84243766 7.293229 8.18516741-2.202159 8.30565261l-.289462.0014263c-11.51251-.0321322-21.755964 9.808073-21.039141 6.7008692.716822-3.1072039 12.292356-15.85889525 23.530762-15.00794811z"/></svg>